<?xml version="1.0" encoding="utf-8" ?>
<svg xmlns="http://www.w3.org/2000/svg" xmlns:xlink="http://www.w3.org/1999/xlink" width="1024" height="1024">
	<path fill="#E4E3E2" d="M782.906 497.175C784.908 497.257 786.97 497.453 788.969 497.374Q788.859 511.961 789.116 526.546C786.955 526.554 784.71 526.43 782.563 526.62C783.235 516.848 783.005 506.962 782.906 497.175Z"/>
	<path fill="#AAA398" d="M422.423 460.403Q440.787 463.087 458.934 466.981C471.455 469.655 483.891 472.714 496.609 474.3C491.701 477.923 488.19 481.443 484.928 486.621C483.018 490.425 482.294 494.614 481.45 498.748C471.351 492.573 461.689 485.649 451.668 479.339C442.05 473.284 430.918 467.956 422.423 460.403Z"/>
	<path fill="#324A64" d="M513.807 479.21C518.658 479.416 523.019 480.57 526.878 483.641C531.638 487.431 534.861 493.596 535.345 499.652C535.809 505.465 533.658 511.443 529.886 515.85C525.834 520.583 520.249 523.031 514.097 523.435C508.65 523.094 503.733 522.254 499.274 518.835Q498.843 518.499 498.429 518.143Q498.014 517.786 497.618 517.409Q497.222 517.032 496.845 516.637Q496.468 516.241 496.111 515.827Q495.754 515.413 495.418 514.982Q495.082 514.551 494.768 514.104Q494.454 513.656 494.162 513.194Q493.87 512.732 493.601 512.256Q493.332 511.78 493.088 511.292Q492.843 510.803 492.622 510.303Q492.402 509.802 492.207 509.292Q492.011 508.782 491.841 508.262Q491.671 507.743 491.527 507.215Q491.383 506.688 491.265 506.154Q491.147 505.621 491.056 505.082Q490.965 504.543 490.9 504Q490.828 503.454 490.784 502.906Q490.739 502.358 490.723 501.808Q490.706 501.258 490.717 500.708Q490.729 500.158 490.768 499.609Q490.807 499.06 490.874 498.514Q490.941 497.968 491.036 497.426Q491.13 496.884 491.252 496.348Q491.374 495.811 491.523 495.282Q491.672 494.752 491.847 494.23Q492.023 493.709 492.224 493.197Q492.426 492.685 492.653 492.184Q492.881 491.683 493.133 491.194Q493.385 490.705 493.662 490.23Q493.939 489.755 494.24 489.294Q494.54 488.833 494.864 488.388Q495.187 487.943 495.533 487.515C500.343 481.62 506.549 479.809 513.807 479.21Z"/>
	<path fill="#AAA398" d="M640.784 384.593C640.425 385.931 554.444 487.748 544.796 498.592C543.609 493.751 542.271 489.422 539.936 485.008C536.487 479.018 530.58 475.501 524.568 472.549L588.466 424.384C605.902 411.105 623.141 397.602 640.784 384.593Z"/>
	<path fill="#EC8B54" d="M408.245 632.538C411.477 625.186 432.693 598.849 439.159 594.235Q439.807 593.775 440.477 593.348Q441.148 592.921 441.838 592.527Q442.529 592.134 443.238 591.775Q443.947 591.416 444.673 591.092Q445.399 590.769 446.14 590.482Q446.881 590.195 447.636 589.945Q448.39 589.696 449.156 589.483Q449.922 589.271 450.697 589.097Q451.473 588.923 452.256 588.788Q453.039 588.652 453.828 588.556Q454.617 588.459 455.41 588.402Q456.203 588.345 456.997 588.327Q457.792 588.309 458.586 588.33Q459.381 588.352 460.173 588.413Q460.966 588.473 461.754 588.573Q462.542 588.673 463.325 588.812C481.551 592.142 492.958 614.634 502.506 628.792L502.412 629.075Q478.322 663.632 454.655 698.478C449.702 691.175 444.194 684.204 439.068 677.013Q423.388 654.961 408.245 632.538Z"/>
	<path fill="#6CCBB4" d="M408.245 632.538Q423.388 654.961 439.068 677.013C444.194 684.204 449.702 691.175 454.655 698.478C448.755 707.127 442.487 715.526 436.572 724.171C431.395 731.739 426.614 739.697 420.824 746.821Q411.681 742.863 402.842 738.267Q394.002 733.671 385.511 728.461Q377.019 723.25 368.917 717.452Q360.816 711.654 353.145 705.296C371.835 681.957 390.762 656.788 408.245 632.538Z"/>
	<path fill="#4496CB" d="M322.57 348.809C325.312 350.258 353.547 379.807 358.578 384.827L393.006 418.543C375.331 443.34 364.981 466.742 360.251 496.916C351.045 496.976 341.834 496.61 332.625 496.576L260.598 496.676C264.273 452.292 277.607 411.047 302.528 373.966C308.463 365.136 314.769 356.102 322.57 348.809Z"/>
	<path fill="#6CCBB4" d="M260.185 528.326L359.868 528.534Q360.126 531.421 360.497 534.295Q360.868 537.169 361.351 540.027Q361.834 542.884 362.428 545.721Q363.023 548.557 363.727 551.368Q364.432 554.179 365.246 556.961Q366.059 559.742 366.981 562.49Q367.903 565.237 368.931 567.947Q369.96 570.656 371.093 573.323Q372.227 575.991 373.464 578.611Q374.7 581.232 376.039 583.803Q377.377 586.374 378.814 588.89Q380.252 591.406 381.787 593.865Q383.322 596.323 384.951 598.719Q386.581 601.116 388.303 603.447Q390.025 605.778 391.837 608.04Q393.648 610.302 395.547 612.491C384.686 622.659 372.968 631.957 361.676 641.648Q342.244 659.785 321.463 676.359C295.237 644.19 278.437 615.756 267.857 575.271C263.771 559.637 261.02 544.477 260.185 528.326Z"/>
	<path fill="#4496CB" d="M493.712 261.701C494.888 261.563 495.376 261.479 496.53 261.848C496.814 262.326 496.941 262.463 497.051 263.086C497.313 264.564 496.882 266.918 496.88 268.497L496.882 287.946L496.946 362.359C475.167 362.864 452.223 371.818 433.704 383.037C428.15 386.402 422.93 390.319 417.535 393.931C405.163 383.6 394.657 371.397 383.125 360.192C370.968 347.924 358.126 336.374 345.574 324.526C388.758 287.951 436.789 265.379 493.712 261.701Z"/>
	<path fill="#FBD08C" d="M661.901 529.468L763.405 529.516C758.621 580.992 745.046 619.506 714.625 661.567C709.933 667.96 704.849 674.001 699.698 680.026C675.741 657.409 652.668 633.531 629.65 609.957C633.466 604.474 637.569 599.204 641.094 593.519C653.487 573.533 658.667 552.392 661.901 529.468Z"/>
	<path fill="#EC8B54" d="M526.715 260.672C541.89 262.252 557.055 264.202 571.921 267.712C611.184 276.985 647.595 296.9 678.301 322.835C666.526 334.974 654.102 346.639 642.149 358.63L620.251 380.578C615.595 385.236 610.99 390.391 605.73 394.359C601.997 390.97 597.364 388.146 593.096 385.443C572.728 372.547 550.909 364.809 526.899 362.374C526.5 349.925 526.777 337.4 526.777 324.944L526.715 260.672Z"/>
	<path fill="#EC8B54" d="M700.012 345.268C700.499 345.448 700.962 345.779 701.356 346.103C707.747 351.355 714.589 361.913 719.366 368.849C746.624 408.429 760.563 450.108 763.88 497.959Q729.317 497.407 694.75 497.518L662.257 497.558C655.578 464.361 647.853 447.384 629.241 418.871C636.89 410.671 645.029 402.901 652.827 394.838Q676.596 370.221 700.012 345.268Z"/>
	<path fill="#324A64" d="M502.506 628.792C505.873 625.468 508.423 620.825 511.004 616.873C518.774 604.978 530.759 583.338 541.791 575.56C549.081 570.421 558.787 568.179 567.567 569.784C584.849 572.944 593.077 587.58 602.206 600.945L618.93 625.501C628.857 639.843 639.207 653.894 649.202 668.191C657.256 679.711 665.244 692.97 674.878 703.081C648.978 725.108 618.033 743.155 585.723 753.823C567.086 759.998 547.037 764.007 527.406 764.899C490.428 766.282 455.604 759.081 420.824 746.821C426.614 739.697 431.395 731.739 436.572 724.171C442.487 715.526 448.755 707.127 454.655 698.478Q478.322 663.631 502.412 629.075L502.506 628.792Z"/>
	<path fill="#9A3D33" d="M560.357 715.067C564.212 720.381 567.529 726.221 571.051 731.767Q578.154 742.95 585.723 753.823C567.086 759.998 547.037 764.007 527.406 764.899C533.543 755.74 539.976 746.842 545.885 737.521C550.558 730.152 554.623 721.64 560.357 715.067Z"/>
	<path fill="#4C7893" d="M502.506 628.792C505.873 625.468 508.423 620.825 511.004 616.873C518.774 604.978 530.759 583.338 541.791 575.56C549.081 570.421 558.787 568.179 567.567 569.784C584.849 572.944 593.077 587.58 602.206 600.945L618.93 625.501C613.37 630.694 608.276 640.295 604.002 646.819L574.917 691.815C570.191 699.262 565.877 707.172 560.807 714.365C554.884 708.306 550.426 699.577 545.806 692.43Q533.734 673.918 521.424 655.563C515.417 646.552 509.754 637.069 502.412 629.075L502.506 628.792Z"/>
	<path fill="#324A64" d="M154.628 527.254C183.2 526.394 211.969 527.034 240.562 527.002C241.438 532.333 241.677 537.864 242.279 543.241Q243.572 554.163 245.637 564.965Q246.409 568.87 247.299 572.75Q248.189 576.629 249.197 580.48Q250.204 584.331 251.328 588.15Q252.452 591.968 253.691 595.751Q254.93 599.534 256.284 603.277Q257.637 607.021 259.104 610.721Q260.57 614.422 262.148 618.076Q263.726 621.73 265.414 625.335Q267.102 628.94 268.899 632.492Q270.696 636.044 272.6 639.54Q274.503 643.035 276.512 646.472Q278.521 649.908 280.633 653.282Q282.746 656.656 284.959 659.964Q287.173 663.272 289.486 666.512Q291.799 669.751 294.209 672.919Q296.62 676.087 299.125 679.18C337.818 727.643 395.578 762.056 455.766 775.958C469.517 779.134 483.413 780.603 497.411 782.175L497.42 840.23C497.45 849.916 498.23 860.222 497.312 869.843C410.525 866.56 332.52 831.212 268.58 773.116Q265.373 770.181 262.24 767.168Q259.107 764.155 256.049 761.065Q252.992 757.976 250.011 754.811Q247.031 751.647 244.13 748.41Q241.228 745.173 238.408 741.865Q235.588 738.558 232.85 735.181Q230.113 731.805 227.459 728.361Q224.806 724.918 222.239 721.411Q219.671 717.903 217.191 714.333Q214.711 710.763 212.321 707.132Q209.93 703.502 207.629 699.813Q205.329 696.125 203.121 692.381Q200.912 688.637 198.797 684.839Q196.682 681.042 194.661 677.193Q192.641 673.344 190.716 669.447Q188.791 665.549 186.963 661.606Q185.135 657.662 183.405 653.674Q181.675 649.686 180.045 645.657Q178.414 641.627 176.883 637.559Q175.353 633.49 173.923 629.385Q172.494 625.28 171.166 621.141Q169.839 617.001 168.614 612.831Q167.389 608.66 166.268 604.46Q165.146 600.26 164.129 596.034Q163.112 591.808 162.2 587.558Q161.287 583.308 160.48 579.037Q159.673 574.765 158.972 570.475Q158.271 566.185 157.676 561.879Q157.082 557.573 156.593 553.254Q156.105 548.935 155.724 544.604Q155.343 540.274 155.069 535.936Q154.795 531.598 154.628 527.254Z"/>
	<path fill="#EC8B54" d="M527.003 154.039Q531.377 154.208 535.746 154.484Q540.116 154.76 544.477 155.143Q548.838 155.526 553.188 156.017Q557.538 156.507 561.875 157.104Q566.212 157.701 570.533 158.405Q574.853 159.108 579.156 159.918Q583.458 160.727 587.739 161.642Q592.02 162.557 596.278 163.577Q600.535 164.597 604.766 165.721Q608.997 166.845 613.199 168.072Q617.401 169.3 621.572 170.631Q625.742 171.961 629.879 173.394Q634.016 174.827 638.116 176.361Q642.216 177.894 646.278 179.529Q650.339 181.163 654.359 182.896Q658.379 184.63 662.355 186.461Q666.331 188.293 670.261 190.222Q674.191 192.151 678.073 194.176Q681.954 196.2 685.784 198.32Q689.615 200.44 693.392 202.653Q697.169 204.866 700.891 207.171Q704.613 209.476 708.277 211.872Q711.94 214.268 715.544 216.753Q719.148 219.238 722.69 221.811Q726.232 224.384 729.71 227.044Q733.187 229.703 736.598 232.447Q740.009 235.191 743.352 238.018Q746.695 240.845 749.967 243.753Q753.239 246.661 756.439 249.649Q759.639 252.636 762.764 255.702Q765.89 258.767 768.939 261.908Q771.988 265.05 774.959 268.265Q777.13 270.594 779.258 272.963Q781.386 275.331 783.471 277.737Q785.557 280.143 787.598 282.586Q789.64 285.03 791.637 287.509Q793.634 289.989 795.586 292.504Q797.539 295.019 799.445 297.569Q801.352 300.119 803.212 302.703Q805.073 305.287 806.886 307.904Q808.7 310.521 810.466 313.17Q812.232 315.82 813.95 318.5Q815.668 321.181 817.338 323.892Q819.007 326.603 820.628 329.344Q822.248 332.084 823.819 334.854Q825.39 337.623 826.911 340.421Q828.432 343.218 829.902 346.042Q831.372 348.866 832.791 351.717Q834.21 354.567 835.577 357.442Q836.945 360.318 838.26 363.217Q839.576 366.117 840.839 369.04Q842.102 371.962 843.312 374.907Q844.522 377.852 845.679 380.819Q846.836 383.785 847.939 386.772Q849.042 389.758 850.092 392.764Q851.141 395.77 852.136 398.795Q853.131 401.819 854.072 404.861Q855.012 407.903 855.897 410.962Q856.783 414.02 857.613 417.094Q858.443 420.168 859.218 423.256Q859.993 426.344 860.712 429.446Q861.431 432.547 862.094 435.662Q862.757 438.776 863.364 441.901Q863.971 445.027 864.521 448.163C867.405 464.401 868.753 480.721 870.068 497.141C851.37 496.193 832.635 496.825 813.922 496.877C807.876 496.894 794.044 496.052 788.969 497.374C786.97 497.453 784.908 497.257 782.906 497.175C782.156 487.259 781.382 477.355 779.754 467.536C769.261 404.221 736.879 348.948 688.318 307.162Q684.88 304.184 681.343 301.325Q677.805 298.466 674.172 295.729Q670.539 292.993 666.814 290.382Q663.089 287.772 659.277 285.29Q655.465 282.809 651.571 280.459Q647.676 278.109 643.703 275.894Q639.731 273.679 635.685 271.601Q631.639 269.523 627.524 267.585Q623.409 265.647 619.23 263.85Q615.052 262.054 610.814 260.401Q606.576 258.749 602.284 257.242Q597.993 255.736 593.652 254.377Q589.311 253.018 584.927 251.808Q580.542 250.599 576.118 249.54Q571.695 248.481 567.238 247.574Q562.781 246.667 558.295 245.913C547.986 244.145 537.46 242.644 526.997 242.26L527.003 154.039Z"/>
	<path fill="#3E9489" d="M486.769 154.704C489.953 154.36 493.327 154.539 496.535 154.525Q497.318 198.433 496.771 242.345C450.337 243.719 405.148 259.821 366.246 284.793Q363.557 286.514 360.909 288.297Q358.261 290.08 355.655 291.924Q353.049 293.768 350.486 295.672Q347.924 297.577 345.407 299.54Q342.889 301.503 340.418 303.525Q337.947 305.546 335.524 307.625Q333.101 309.703 330.727 311.838Q328.353 313.972 326.029 316.161Q323.705 318.35 321.433 320.592Q319.16 322.835 316.941 325.13Q314.722 327.425 312.556 329.77Q310.391 332.116 308.28 334.512Q306.17 336.907 304.116 339.351Q302.062 341.796 300.066 344.287Q298.07 346.778 296.132 349.315Q294.194 351.852 292.315 354.433Q290.437 357.015 288.619 359.639Q286.802 362.264 285.046 364.93Q283.289 367.596 281.596 370.302Q279.902 373.008 278.272 375.753Q276.642 378.498 275.076 381.28Q273.51 384.062 272.01 386.88Q270.509 389.698 269.074 392.55Q267.64 395.402 266.272 398.287Q264.904 401.171 263.604 404.087Q262.303 407.003 261.071 409.948Q259.839 412.893 258.676 415.866Q257.513 418.839 256.419 421.838Q255.325 424.838 254.302 427.862Q253.278 430.885 252.325 433.932Q251.372 436.979 250.491 440.048Q249.609 443.116 248.799 446.204C246.383 455.527 244.216 465.225 242.993 474.779C242.083 481.887 241.909 489.502 240.337 496.467C240.305 496.61 240.269 496.751 240.235 496.894L164.875 496.799L154.555 496.809C154.978 418.625 187.612 341.117 237.428 281.587Q239.811 278.753 242.251 275.97Q244.692 273.186 247.19 270.453Q249.687 267.72 252.241 265.04Q254.795 262.359 257.403 259.732Q260.012 257.105 262.674 254.532Q265.336 251.959 268.051 249.442Q270.766 246.925 273.533 244.465Q276.299 242.004 279.116 239.602Q281.932 237.199 284.798 234.855Q287.664 232.511 290.577 230.227Q293.491 227.943 296.451 225.719Q299.411 223.496 302.417 221.334Q305.422 219.172 308.472 217.073Q311.521 214.974 314.614 212.938Q317.706 210.902 320.84 208.931Q323.973 206.96 327.147 205.054Q330.321 203.147 333.534 201.307Q336.746 199.467 339.996 197.694Q343.246 195.921 346.532 194.215Q349.818 192.509 353.138 190.872Q356.459 189.234 359.812 187.666Q363.166 186.098 366.551 184.599Q369.936 183.1 373.352 181.672Q376.768 180.243 380.212 178.886Q383.656 177.528 387.128 176.242Q390.6 174.956 394.097 173.742Q397.595 172.528 401.117 171.387Q404.639 170.245 408.183 169.177Q411.728 168.108 415.294 167.114Q418.86 166.119 422.446 165.198Q426.032 164.277 429.636 163.43Q433.24 162.584 436.861 161.812C453.387 158.274 469.952 156.203 486.769 154.704ZM302.773 253.044C296.773 255.119 292.021 258.15 289.137 264.061Q288.92 264.503 288.726 264.955Q288.532 265.407 288.361 265.869Q288.19 266.33 288.042 266.8Q287.895 267.269 287.771 267.746Q287.648 268.222 287.548 268.704Q287.449 269.186 287.374 269.672Q287.3 270.159 287.25 270.648Q287.199 271.138 287.174 271.629Q287.149 272.121 287.149 272.613Q287.148 273.105 287.173 273.597Q287.197 274.088 287.247 274.578Q287.296 275.067 287.37 275.554Q287.444 276.04 287.543 276.523Q287.641 277.005 287.764 277.481Q287.887 277.958 288.034 278.428Q288.181 278.897 288.351 279.359Q288.521 279.824 288.713 280.28Q288.905 280.736 289.12 281.182Q289.334 281.628 289.571 282.063Q289.807 282.498 290.064 282.92Q290.322 283.343 290.6 283.752Q290.878 284.162 291.175 284.557Q291.473 284.952 291.79 285.333Q292.107 285.713 292.442 286.077Q292.777 286.441 293.13 286.788Q293.483 287.135 293.852 287.464Q294.222 287.793 294.607 288.104Q294.992 288.415 295.393 288.706Q295.793 288.997 296.207 289.268Q296.621 289.54 297.047 289.79Q297.474 290.041 297.913 290.27Q298.352 290.499 298.801 290.706C302.601 292.439 306.839 292.83 310.941 292.214C317.346 289.349 322.709 286.19 325.231 279.181C327.034 274.171 326.566 268.437 324.252 263.668C321.93 258.88 317.792 255.486 312.717 253.948C309.453 252.96 306.154 252.698 302.773 253.044Z"/>
	<path fill="#324A64" d="M789.116 526.546C816.198 526.839 843.327 526.075 870.398 526.587C868.327 550.465 865.558 574.153 860.043 597.513Q859.218 600.954 858.323 604.378Q857.428 607.802 856.465 611.207Q855.502 614.613 854.47 617.998Q853.438 621.383 852.339 624.747Q851.239 628.11 850.072 631.451Q848.905 634.792 847.671 638.109Q846.437 641.426 845.136 644.717Q843.836 648.008 842.469 651.273Q841.103 654.537 839.671 657.773Q838.239 661.01 836.742 664.216Q835.245 667.423 833.684 670.599Q832.123 673.775 830.498 676.919Q828.873 680.063 827.186 683.173Q825.498 686.284 823.748 689.36Q821.998 692.436 820.187 695.476Q818.375 698.516 816.503 701.519Q814.631 704.522 812.698 707.487Q810.766 710.451 808.774 713.377Q806.783 716.302 804.732 719.187Q802.682 722.071 800.574 724.914Q798.467 727.756 796.302 730.556Q794.138 733.356 791.917 736.111Q789.697 738.867 787.421 741.577Q785.146 744.288 782.816 746.952Q780.486 749.616 778.104 752.232Q775.721 754.849 773.286 757.417Q770.851 759.985 768.365 762.503Q765.879 765.022 763.342 767.49Q760.806 769.958 758.221 772.374Q755.635 774.791 753.001 777.154Q750.368 779.518 747.687 781.829Q745.007 784.139 742.28 786.395Q739.907 788.412 737.499 790.386Q735.092 792.36 732.649 794.292Q730.207 796.223 727.73 798.111Q725.254 799.999 722.745 801.843Q720.236 803.687 717.694 805.486Q715.153 807.285 712.58 809.039Q710.007 810.793 707.403 812.501Q704.8 814.209 702.166 815.871Q699.533 817.533 696.871 819.148Q694.208 820.763 691.518 822.331Q688.828 823.898 686.11 825.418Q683.392 826.938 680.648 828.41Q677.904 829.881 675.134 831.304Q672.364 832.727 669.569 834.1Q666.775 835.474 663.956 836.798Q661.138 838.121 658.297 839.395Q655.455 840.669 652.592 841.893Q649.728 843.116 646.844 844.288Q643.959 845.461 641.054 846.582Q638.149 847.704 635.225 848.773Q632.3 849.843 629.358 850.861Q626.415 851.879 623.455 852.845Q620.494 853.811 617.517 854.724Q614.54 855.637 611.548 856.497Q608.555 857.358 605.548 858.165Q602.54 858.972 599.519 859.726Q596.498 860.48 593.464 861.181Q590.43 861.881 587.384 862.528Q584.338 863.174 581.281 863.767Q578.224 864.36 575.157 864.898Q572.09 865.437 569.014 865.921Q565.938 866.405 562.854 866.835C551.248 868.447 538.582 870.851 526.904 870.066C525.736 858.873 526.592 846.93 526.64 835.66L526.603 781.434C533.18 780.242 539.868 779.772 546.499 778.97C556.878 777.715 567.382 775.971 577.538 773.475Q580.492 772.723 583.429 771.907Q586.366 771.09 589.284 770.208Q592.203 769.326 595.1 768.38Q597.998 767.434 600.874 766.423Q603.751 765.413 606.604 764.339Q609.457 763.265 612.285 762.128Q615.114 760.991 617.916 759.792Q620.719 758.593 623.494 757.332Q626.27 756.07 629.016 754.748Q631.763 753.426 634.48 752.043Q637.196 750.66 639.882 749.217Q642.567 747.774 645.22 746.272Q647.872 744.77 650.491 743.209Q653.11 741.648 655.693 740.03Q658.277 738.412 660.824 736.737Q663.371 735.062 665.88 733.33Q668.389 731.599 670.859 729.813Q673.329 728.026 675.759 726.185Q678.189 724.345 680.577 722.45Q682.966 720.556 685.312 718.609Q687.658 716.663 689.96 714.664Q692.262 712.666 694.519 710.617Q696.777 708.568 698.988 706.47Q701.199 704.371 703.363 702.225Q705.527 700.078 707.643 697.883Q709.76 695.689 711.826 693.448Q713.893 691.207 715.91 688.921Q717.927 686.635 719.892 684.305Q721.857 681.974 723.771 679.601Q725.684 677.228 727.544 674.813Q729.404 672.398 731.211 669.942Q733.017 667.486 734.768 664.991C761.682 626.183 781.692 574.226 782.563 526.62C784.71 526.43 786.955 526.554 789.116 526.546Z"/>
</svg>
