<?xml version="1.0" encoding="utf-8" ?>
<svg xmlns="http://www.w3.org/2000/svg" xmlns:xlink="http://www.w3.org/1999/xlink" width="1024" height="1024">
	<path fill="#0C467F" d="M510.056 388.625C512.493 388.68 515.111 388.982 517.241 390.28C522.96 393.766 527.536 399.788 532.531 404.243C543.653 414.164 556.631 422.577 569.96 429.204C585.045 436.705 602.024 442.283 618.776 444.124C633.899 445.786 661.383 442.578 673.49 449.04C678.845 451.898 682.854 457.242 684.389 463.098C686.623 471.621 685.16 481.736 685.051 490.496L684.898 525.164C684.827 566.851 685.96 609.311 684.799 650.901C684.575 658.956 684.276 667.004 682.907 674.961Q682.163 679.291 681.217 683.582Q680.272 687.873 679.126 692.114Q677.981 696.356 676.639 700.54Q675.296 704.723 673.76 708.839Q672.223 712.956 670.496 716.995Q668.768 721.035 666.854 724.99Q664.939 728.944 662.842 732.805Q660.745 736.666 658.469 740.424C628.527 790.958 569.438 830.905 513.094 845.36C500.489 845.854 485.536 838.086 474.339 832.694C423.768 808.339 366.089 758.006 347.324 703.74Q345.617 698.656 344.237 693.474Q342.856 688.292 341.808 683.033Q340.76 677.774 340.049 672.458Q339.337 667.143 338.965 661.793C338.031 649.419 338.483 636.833 338.496 624.423L338.564 564.229L338.553 501.319C338.532 490.007 338.003 478.464 338.665 467.175C338.933 462.614 339.38 458.335 341.509 454.192C347.403 442.721 365.171 443.944 375.994 444.06C382.826 444.134 389.671 444.341 396.504 444.257C404.952 444.153 413.203 443.372 421.443 441.42C441.254 436.726 463.08 426.558 479.207 414.036C486.987 407.995 502.562 390.975 510.056 388.625ZM512.175 432.91C502.751 440.256 493.427 447.976 483.24 454.247C459.598 468.8 430.592 476.758 403.097 479.321C393.587 480.207 384.009 480.242 374.465 480.425L374.429 599.078Q374.529 615.364 374.221 631.648C373.731 651.542 372.296 671.392 378.104 690.742C385.007 713.736 400.064 733.319 416.819 750.094C439.368 772.67 467.048 792.305 496.026 805.703C500.62 807.827 506.644 810.948 511.703 811.479C511.865 811.497 512.028 811.461 512.191 811.451C565.505 790.193 616.119 758.67 639.65 704.022Q641.573 699.611 643.165 695.07Q644.758 690.529 646.011 685.884Q647.264 681.238 648.171 676.512Q649.079 671.787 649.635 667.007C652.333 645.048 650.807 622.569 650.607 600.499L650.32 530.262C650.248 513.692 649.929 497.066 650.245 480.5C638.255 480.512 626.283 480.512 614.359 479.099C585.814 475.715 555.884 464.429 532.168 448.104C527.578 444.944 516.68 433.636 512.175 432.91Z"/>
	<path fill="#3A9EE5" d="M512.189 453.871C519.743 457.467 528.836 465.519 537.259 470.058Q540.2 471.607 543.185 473.068Q546.171 474.529 549.198 475.9Q552.226 477.271 555.293 478.551Q558.361 479.832 561.465 481.02Q564.569 482.208 567.707 483.304Q570.845 484.399 574.014 485.4Q577.184 486.402 580.381 487.308Q583.579 488.215 586.802 489.026Q590.026 489.836 593.272 490.551Q596.518 491.265 599.784 491.882Q603.05 492.5 606.333 493.019Q609.615 493.539 612.912 493.961Q616.209 494.383 619.517 494.706Q622.825 495.029 626.141 495.254Q629.458 495.478 632.779 495.604Q636.1 495.729 639.424 495.756C639.861 526.806 639.31 557.934 639.373 588.993C639.421 613.203 640.889 638.183 637.927 662.227Q637.372 666.543 636.546 670.815Q635.72 675.087 634.627 679.299Q633.533 683.511 632.177 687.646Q630.82 691.78 629.206 695.821C608.575 747.523 561.327 775.475 512.636 796.224C512.467 796.261 512.302 796.321 512.13 796.335C508.918 796.592 502.148 792.489 499.016 790.96C472.559 778.044 448.073 762.348 427.15 741.466C409.48 723.831 395.472 702.568 389.006 678.251C384.885 662.751 385.497 646.964 385.535 631.09L385.574 594.748L385.589 494.502C438.021 491.572 468.786 483.833 512.189 453.871ZM505.267 490.654C489.546 493.837 476.066 499.887 466.96 513.687C457.738 527.664 458.023 543.97 458.216 560.076C458.3 567.094 458.341 574.222 458.903 581.219C450.747 583.497 443.898 585.926 439.525 593.808C437.435 597.574 437.015 603.022 436.714 607.263C435.723 621.259 436.789 635.587 436.891 649.617C436.985 662.495 434.673 690.305 438.134 701.073C439.94 706.692 444.07 711.696 449.362 714.361C453.181 716.284 457.662 717.122 461.885 717.537C469.491 718.286 477.342 717.691 484.979 717.587C495.897 717.438 506.831 717.556 517.75 717.58L543.239 717.648C555.567 717.777 570.724 720.26 580.429 710.759C588.158 703.193 587.184 691.418 587.091 681.453C586.917 662.7 587.246 643.948 586.958 625.203C586.815 615.957 587.633 606.203 585.222 597.181C584.348 593.911 582.86 591.434 580.447 589.057C576.036 584.714 570.349 582.978 564.586 581.269L564.641 556.766C564.65 537.994 563.929 519.975 549.905 505.853C540.389 496.272 526.435 490.231 512.895 490.341C510.359 490.362 507.792 490.41 505.267 490.654Z"/>
	<path fill="#3A9EE5" d="M505.292 653.352C510.149 653.872 514.851 653.989 519.726 653.983C521.915 663.911 524.379 673.884 525.499 683.999C523.891 684.239 522.247 684.315 520.625 684.438L499.639 684.413C501.285 674.034 502.823 663.573 505.292 653.352Z"/>
	<path fill="#3A9EE5" d="M509.259 614.614C513.455 614.164 517.31 614.455 521.221 616.191Q522.041 616.549 522.82 616.987Q523.6 617.425 524.332 617.939Q525.063 618.453 525.74 619.038Q526.416 619.623 527.031 620.273Q527.645 620.922 528.191 621.631Q528.738 622.339 529.21 623.098Q529.682 623.858 530.076 624.661Q530.47 625.464 530.781 626.302Q531.081 627.142 531.298 628.008Q531.514 628.874 531.645 629.757Q531.776 630.639 531.82 631.531Q531.863 632.422 531.819 633.313Q531.775 634.205 531.644 635.088Q531.513 635.97 531.297 636.836Q531.08 637.702 530.779 638.542Q530.479 639.382 530.097 640.189C527.518 645.575 523.099 648.183 517.738 650.171C513.747 650.924 508.938 650.556 505.209 648.958Q504.444 648.638 503.716 648.242Q502.987 647.846 502.303 647.379Q501.618 646.911 500.984 646.377Q500.349 645.844 499.772 645.248Q499.195 644.653 498.681 644.003Q498.167 643.352 497.72 642.654Q497.274 641.955 496.901 641.214Q496.528 640.474 496.231 639.7Q496.053 639.244 495.898 638.779Q495.743 638.314 495.612 637.842Q495.481 637.37 495.375 636.892Q495.268 636.414 495.187 635.931Q495.105 635.448 495.048 634.962Q494.991 634.475 494.959 633.986Q494.928 633.497 494.921 633.008Q494.914 632.518 494.933 632.028Q494.951 631.539 494.995 631.051Q495.038 630.563 495.107 630.078Q495.175 629.593 495.268 629.112Q495.362 628.631 495.479 628.156Q495.597 627.68 495.739 627.212Q495.881 626.743 496.047 626.282Q496.213 625.821 496.402 625.369Q496.592 624.917 496.804 624.476C499.499 618.996 503.773 616.579 509.259 614.614Z"/>
	<path fill="#3A9EE5" d="M508.435 507.65C509.537 507.543 510.673 507.53 511.782 507.526C520.713 507.498 530.869 511.786 537.159 518.094C548.408 529.376 547.397 546.618 547.128 561.328Q546.94 571.442 546.984 581.557L515.25 581.524L476.568 581.527C475.52 568.87 474.739 546.535 477.49 534.32Q477.853 532.628 478.383 530.98Q478.913 529.332 479.604 527.745Q480.294 526.158 481.139 524.647Q481.984 523.136 482.975 521.717C489.178 512.992 498.173 509.299 508.435 507.65Z"/>
	<path fill="#0C467F" d="M608.083 175.699C611.945 175.174 616.243 175.363 620.16 175.408C676.097 176.052 728.014 199.968 766.862 239.885C797.141 270.998 817.4 314.065 821.812 357.267C823.121 370.086 822.545 383.152 822.387 396.022C858.367 395.955 892.235 407.328 918.582 432.372Q919.858 433.565 921.104 434.789Q922.35 436.013 923.565 437.267Q924.78 438.522 925.964 439.806Q927.148 441.091 928.3 442.404Q929.451 443.717 930.57 445.058Q931.688 446.4 932.774 447.768Q933.859 449.137 934.91 450.532Q935.96 451.927 936.976 453.348Q937.992 454.769 938.973 456.214Q939.953 457.66 940.898 459.129Q941.842 460.598 942.749 462.091Q943.657 463.583 944.527 465.097Q945.398 466.612 946.23 468.147Q947.063 469.683 947.857 471.238Q948.651 472.794 949.407 474.369Q950.162 475.943 950.879 477.536Q951.595 479.129 952.271 480.74Q952.948 482.35 953.584 483.977Q954.221 485.603 954.817 487.245Q955.412 488.887 955.967 490.543Q956.522 492.199 957.036 493.868Q957.55 495.538 958.022 497.219Q958.495 498.901 958.925 500.594Q959.356 502.286 959.744 503.989Q960.132 505.692 960.478 507.404Q960.824 509.116 961.128 510.836Q961.431 512.556 961.692 514.283Q961.953 516.01 962.171 517.743Q962.389 519.476 962.564 521.214Q962.739 522.952 962.871 524.694Q963.002 526.435 963.091 528.18Q963.18 529.924 963.225 531.67Q963.24 533.285 963.216 534.9Q963.192 536.515 963.129 538.129Q963.067 539.743 962.965 541.354Q962.864 542.966 962.723 544.575Q962.583 546.184 962.404 547.79Q962.226 549.395 962.008 550.995Q961.791 552.596 961.535 554.19Q961.28 555.785 960.986 557.373Q960.692 558.961 960.36 560.542Q960.028 562.123 959.658 563.695Q959.288 565.267 958.881 566.83Q958.473 568.393 958.028 569.945Q957.583 571.498 957.101 573.039Q956.619 574.581 956.1 576.11Q955.581 577.64 955.025 579.156Q954.47 580.673 953.878 582.175Q953.286 583.678 952.658 585.166Q952.03 586.654 951.367 588.127Q950.703 589.599 950.005 591.056Q949.306 592.512 948.573 593.951Q947.84 595.39 947.072 596.811Q946.304 598.232 945.502 599.634Q944.701 601.036 943.866 602.418Q943.031 603.801 942.163 605.163Q941.295 606.525 940.394 607.865Q939.494 609.206 938.561 610.525Q937.629 611.844 936.665 613.14Q935.701 614.436 934.706 615.708Q933.711 616.98 932.686 618.229Q931.661 619.477 930.607 620.7Q929.552 621.923 928.468 623.12Q927.384 624.318 926.272 625.489C884.021 669.357 842.713 665.585 787.437 665.411Q745.608 665.215 703.784 665.849L703.661 527.786L703.716 488.12C703.734 480.176 704.032 472.109 703.463 464.186C703.156 459.907 702.432 455.535 700.909 451.509C689.644 421.728 655.971 427.197 630.511 426.714Q624.668 426.548 618.864 425.865Q613.059 425.183 607.337 423.989C585.845 419.467 564.082 407.508 547.7 392.906C540.229 386.247 533.135 378.537 523.854 374.397C505.469 366.198 492.758 378.439 479.876 389.699Q472.617 396.169 464.635 401.723C452.977 409.93 440.409 416.175 427.126 421.248C418.26 424.527 408.9 425.982 399.482 426.392C377.323 427.355 348.64 421.482 331.405 438.785C325.922 444.289 322.455 450.695 321.017 458.322C319.065 468.682 319.581 479.591 319.593 490.094L319.67 528.016L319.991 666.411L241.733 666.5C214.473 666.502 185.537 668.553 158.99 661.66Q156.988 661.135 155.004 660.548Q153.02 659.961 151.055 659.311Q149.09 658.662 147.146 657.951Q145.203 657.24 143.282 656.469Q141.362 655.697 139.467 654.866Q137.572 654.034 135.704 653.144Q133.836 652.253 131.997 651.304Q130.158 650.355 128.349 649.349Q126.541 648.343 124.765 647.281Q122.989 646.218 121.247 645.101Q119.506 643.983 117.8 642.811Q116.094 641.639 114.426 640.414Q112.758 639.19 111.13 637.913Q109.501 636.636 107.913 635.309Q106.325 633.982 104.78 632.606Q103.234 631.229 101.733 629.805C75.4095 605.013 60.9969 571.318 60.0149 535.259C59.0107 498.383 73.1835 464.398 98.496 437.829C119.019 416.288 145.124 402.566 174.709 398.656C183.62 397.478 192.542 397.307 201.513 397.103C199.417 356.639 208.985 321.325 235.527 289.861C259.732 261.168 295.793 243.47 333.038 240.262C372.97 236.823 414.44 250.871 445.059 276.659C450.947 267.178 456.867 257.849 464.03 249.259Q465.333 247.695 466.666 246.158Q468 244.62 469.364 243.109Q470.727 241.597 472.12 240.113Q473.513 238.629 474.935 237.173Q476.357 235.717 477.808 234.289Q479.258 232.861 480.736 231.461Q482.215 230.062 483.72 228.692Q485.226 227.323 486.758 225.983Q488.29 224.643 489.848 223.333Q491.407 222.024 492.99 220.746Q494.574 219.467 496.183 218.22Q497.792 216.973 499.424 215.758Q501.057 214.543 502.714 213.36Q504.37 212.177 506.05 211.027Q507.729 209.877 509.431 208.761Q511.133 207.644 512.857 206.561Q514.58 205.479 516.325 204.43Q518.069 203.381 519.834 202.367Q521.599 201.353 523.383 200.374Q525.168 199.395 526.971 198.451Q528.774 197.507 530.596 196.599Q532.417 195.691 534.257 194.819Q536.096 193.947 537.952 193.111Q539.808 192.275 541.68 191.476Q543.552 190.677 545.439 189.915Q547.327 189.153 549.229 188.429Q551.131 187.704 553.047 187.017Q554.963 186.33 556.892 185.681Q558.821 185.032 560.763 184.421Q562.704 183.81 564.657 183.237Q566.611 182.664 568.575 182.13Q570.539 181.596 572.513 181.101C584.281 178.248 596.037 176.775 608.083 175.699ZM833.762 462.146C817.757 464.241 803.002 471.9 793.153 484.867C783.768 497.222 780.44 512.959 782.676 528.186Q782.862 529.467 783.112 530.738Q783.361 532.009 783.673 533.266Q783.985 534.522 784.359 535.762Q784.733 537.002 785.167 538.222Q785.602 539.442 786.097 540.638Q786.591 541.835 787.144 543.006Q787.697 544.177 788.307 545.319Q788.917 546.461 789.583 547.572Q790.249 548.682 790.969 549.759Q791.689 550.835 792.462 551.874Q793.234 552.913 794.057 553.913Q794.88 554.913 795.751 555.871Q796.622 556.829 797.54 557.743Q798.458 558.656 799.419 559.524Q800.381 560.391 801.384 561.209Q802.387 562.028 803.43 562.796C815.301 571.589 829.138 574.737 843.76 573.985C859.634 571.714 873.792 564.833 883.573 551.82C892.638 539.761 896.558 525.082 894.307 510.124C892.047 495.114 884.306 481.908 872.018 472.941C861.254 465.086 847.143 460.412 833.762 462.146ZM641.458 239.831L641.476 260.416C671.143 263.544 697.751 279.406 716.359 302.433C735.258 325.82 743.334 354.45 740.414 384.249Q750.457 384.409 760.494 384.773C762.826 347.135 755.315 314.28 729.77 285.238C713.793 267.074 692.009 252.167 668.786 245.21C659.873 242.539 650.659 241.085 641.458 239.831ZM740.254 419.104C732.687 420.467 726.372 423.714 721.902 430.202C717.659 436.361 716.351 444.033 717.796 451.318Q717.925 451.963 718.086 452.601Q718.247 453.24 718.439 453.869Q718.63 454.499 718.853 455.118Q719.076 455.737 719.328 456.345Q719.581 456.952 719.863 457.547Q720.146 458.141 720.457 458.721Q720.768 459.301 721.107 459.865Q721.447 460.429 721.813 460.975Q722.18 461.521 722.573 462.049Q722.966 462.577 723.384 463.085Q723.803 463.593 724.246 464.08Q724.689 464.566 725.155 465.031Q725.621 465.495 726.11 465.936Q726.599 466.377 727.108 466.793Q727.618 467.209 728.147 467.6Q728.677 467.991 729.225 468.355C735.037 472.202 741.797 473.185 748.623 472.445C756.981 469.97 763.791 466.626 768.258 458.596C771.907 452.038 772.388 444.15 770.129 437.059C767.973 430.291 763.34 424.749 756.948 421.617C751.8 419.094 745.91 418.318 740.254 419.104Z"/>
</svg>
