<?xml version="1.0" encoding="utf-8" ?><svg xmlns="http://www.w3.org/2000/svg" xmlns:xlink="http://www.w3.org/1999/xlink" width="1024" height="1024" viewBox="0 0 1024 1024"><path fill="#F3C789" d="M402.812 172.816C460.685 119.356 528.704 82.8814 607.853 73.4857C627.315 71.6833 647.555 71.7102 667.056 72.5405C750.41 76.0896 830.583 115.181 886.658 176.138C989.449 287.88 1011.25 456.318 940.072 590.359C932.482 604.651 924.369 616.022 915.693 629.355C922.283 644.282 928.933 659.219 934.367 674.585C957.166 739.063 964.274 809.663 954.529 877.389C951.815 896.249 947.301 927.684 939.824 945.284C964.048 944.412 989.412 945.232 1013.7 945.282C1016.53 945.287 1021.85 946.31 1022.2 949.746C1020.07 953.67 1017.96 954.228 1013.47 954.239C1008.64 954.251 1003.82 953.937 998.975 953.934L957.071 953.999L816.304 953.931L242.69 954.025L111.739 953.969C98.1664 953.96 81.6357 954.838 68.044 953.689C66.4013 953.55 65.0724 952.065 64.2367 950.648C63.8098 947.429 65.12 945.365 68.4784 945.234C92.41 944.295 117.099 945.665 140.989 944.943L140.138 943.059C130.385 934.436 118.565 921.061 110.085 911.32C55.5069 848.624 20.1734 770.964 7.01167 689.024C4.22458 672.545 2.8195 655.904 1.56959 639.251C0.929697 630.725 1.95011 621.208 0 612.876L0 607.613C2.06232 598.27 1.224 584.491 2.1859 574.643C3.85864 557.518 5.47766 540.499 9.03844 523.619C31.7015 407.1 96.6368 311.032 195.214 245.136C247.052 210.483 302.567 188.815 363.989 178.105C377.631 175.726 389.498 174.67 402.812 172.816Z"/><path fill="#B04144" d="M502.236 511.964C529.099 495.888 551.436 504.046 575.586 520.53C601.074 537.928 613.554 556.29 627.816 582.622C608.427 617.415 589.308 654.533 570.28 689.771L549.558 727.495C546.737 732.669 541.174 742.499 539.039 747.615C561.749 742.991 582.161 740.125 605.306 740.54C611.14 740.645 630.694 743.249 633.904 742.397C658.733 735.812 684.278 733.788 709.093 742.155C711.638 743.013 719.175 746.591 721.92 746.051C722.914 742.42 713.292 740.233 710.734 739.368C695.345 734.167 680.89 732.9 664.76 733.628L666.519 648.53C666.772 633.214 666.59 616.401 667.081 601.24C671.827 593.86 677.71 589.27 680.608 584.941C678.948 583.727 678.784 583.456 678.304 581.584L679.368 579.831C695.149 560.276 718.919 550.579 743.509 547.967C759.046 546.316 771.649 548.815 786.327 553.47L788.04 554.466C791.323 555.713 801.069 560.736 802.865 564.237C803.168 564.829 802.774 565.595 802.557 566.407C806.869 568.937 810.656 571.215 814.661 574.248C827.9 615.347 839.855 657.042 851.925 698.505C854.745 708.193 857.726 718.005 859.415 727.974C871.932 816.98 811.404 899.89 734.035 937.795C729.946 939.799 723.523 942.704 720.029 945.45L847.983 945.318C878.278 945.337 909.591 946.006 939.824 945.284C964.048 944.412 989.412 945.232 1013.7 945.282C1016.53 945.287 1021.85 946.31 1022.2 949.746C1020.07 953.67 1017.96 954.228 1013.47 954.239C1008.64 954.251 1003.82 953.937 998.975 953.934L957.071 953.999L816.304 953.931L242.69 954.025L111.739 953.969C98.1664 953.96 81.6357 954.838 68.044 953.689C66.4013 953.55 65.0724 952.065 64.2367 950.648C63.8098 947.429 65.12 945.365 68.4784 945.234C92.41 944.295 117.099 945.665 140.989 944.943L140.138 943.059C146.179 936.427 151.483 928.419 156.668 921.047L178.495 890.018C184.063 882.167 199.504 862.087 202.989 854.666C208.197 855.996 213.301 857.244 218.584 858.236C283.734 870.476 355.352 834.84 375.542 769.674C377.717 762.654 381.606 754.356 385.173 747.974C387.251 744.607 389.105 741.772 391.374 738.532C394.432 738.497 397.927 738.237 400.998 738.022C418.436 736.802 435.66 736.901 453.124 736.928C452.934 732.763 453.034 727.774 453.006 723.544C501.965 722.246 531.433 674.235 521.11 628.744C516.206 607.13 504.37 593.622 486.021 582.26C487.325 581.292 487.342 581.35 488.902 580.812C511.803 570.546 521.666 546.402 510.154 523.37C507.94 518.941 505.356 515.807 502.236 511.964Z"/><path fill="#3B2C43" d="M140.989 944.943C180.511 945.534 221.176 945.014 260.794 945.01L496.404 945.033L658.394 944.986C676.298 944.938 694.166 945.257 712.066 945.512C714.627 945.548 717.476 945.558 720.029 945.45L847.983 945.318C878.278 945.337 909.591 946.006 939.824 945.284C964.048 944.412 989.412 945.232 1013.7 945.282C1016.53 945.287 1021.85 946.31 1022.2 949.746C1020.07 953.67 1017.96 954.228 1013.47 954.239C1008.64 954.251 1003.82 953.937 998.975 953.934L957.071 953.999L816.304 953.931L242.69 954.025L111.739 953.969C98.1664 953.96 81.6357 954.838 68.044 953.689C66.4013 953.55 65.0724 952.065 64.2367 950.648C63.8098 947.429 65.12 945.365 68.4784 945.234C92.41 944.295 117.099 945.665 140.989 944.943Z"/><path fill="#FEFEFC" d="M391.374 738.532C394.432 738.497 397.927 738.237 400.998 738.022C418.436 736.802 435.66 736.901 453.124 736.928L455.106 737.346C475.084 738.565 490.77 740.249 509.199 749.015C467.363 747.072 426.48 749.055 385.173 747.974C387.251 744.607 389.105 741.772 391.374 738.532Z"/><path fill="#FEFEFC" d="M679.368 579.831C695.149 560.276 718.919 550.579 743.509 547.967C759.046 546.316 771.649 548.815 786.327 553.47L788.04 554.466C791.323 555.713 801.069 560.736 802.865 564.237C803.168 564.829 802.774 565.595 802.557 566.407C785.136 558.227 769.523 554.392 750.023 555.691C724.675 557.379 699.141 567.261 680.608 584.941C678.948 583.727 678.784 583.456 678.304 581.584L679.368 579.831Z"/><path fill="#4C011B" d="M488.902 580.812C503.441 586.986 515.577 605.315 521.271 619.363C537.16 658.561 516.722 706.868 476.953 721.917C469.543 724.721 463.413 725.899 455.651 727.095C456.008 730.987 456.363 733.54 455.106 737.346L453.124 736.928C452.934 732.763 453.034 727.774 453.006 723.544C501.965 722.246 531.433 674.235 521.11 628.744C516.206 607.13 504.37 593.622 486.021 582.26C487.325 581.292 487.342 581.35 488.902 580.812Z"/><path fill="#F3C789" d="M510.236 760.899C511.172 761.132 510.734 760.986 511.552 761.758C511.214 764.332 504.514 768.348 502.247 770.242C467.597 799.186 446.159 840.976 431.398 882.902C428.989 889.744 427.227 897.108 425.103 904.073C422.722 902.405 422.536 900.137 423.356 897.435C438.214 848.493 465.646 789.688 510.236 760.899Z"/><path fill="#F3C789" d="M654.238 751.444C659.929 751.263 678.352 760.974 684.057 764.344C694.742 770.657 718.09 783.476 721.445 795.397C718.952 794.782 714.294 789.903 712.169 787.878C700.437 776.65 686.44 767.974 671.889 760.898C667.134 758.585 656.292 755.478 654.238 751.444Z"/><path fill="#3B2C43" d="M445.005 524.869C458.75 500.37 479.556 492.912 502.236 511.964C505.356 515.807 507.94 518.941 510.154 523.37C521.666 546.402 511.803 570.546 488.902 580.812C487.342 581.35 487.325 581.292 486.021 582.26C504.37 593.622 516.206 607.13 521.11 628.744C531.433 674.235 501.965 722.246 453.006 723.544C453.034 727.774 452.934 732.763 453.124 736.928C435.66 736.901 418.436 736.802 400.998 738.022C397.927 738.237 394.432 738.497 391.374 738.532C389.105 741.772 387.251 744.607 385.173 747.974C381.606 754.356 377.717 762.654 375.542 769.674C355.352 834.84 283.734 870.476 218.584 858.236C213.301 857.244 208.197 855.996 202.989 854.666C148.815 838.98 107.388 792.542 100.583 736.012C91.0544 656.865 150.334 582.244 230.915 578.635C262.114 577.238 288.175 584.248 318.511 570.446C354.687 553.986 361.895 499.672 407.124 503.083C424.88 504.401 433.877 512.138 445.005 524.869Z"/><path fill="#B04144" d="M478.485 578.852L486.021 582.26C504.37 593.622 516.206 607.13 521.11 628.744C531.433 674.235 501.965 722.246 453.006 723.544C453.034 727.774 452.934 732.763 453.124 736.928C435.66 736.901 418.436 736.802 400.998 738.022C397.927 738.237 394.432 738.497 391.374 738.532C396.972 730.806 406.729 723.988 414.136 717.875C435.949 699.874 455.665 680.288 464.297 652.645C450.86 659.718 441.29 661.443 429.844 649.101C417.099 635.36 434.671 613.903 450.801 616.557C459.098 617.922 463.066 621.627 467.888 627.96C475.869 610.374 478.56 597.886 478.485 578.852Z"/><path fill="#FEFEFC" d="M662.972 234.504C663.042 229.423 663.216 224.894 664.245 220.025C674.766 170.256 737.505 150.557 772.94 188.214C776.201 191.68 778.949 195.149 781.816 198.869C790.382 185.023 797.286 176.741 813.862 172.732C836.291 167.307 860.12 180.655 865.052 203.635C867.046 212.929 865.787 220.674 863.113 229.613C877.074 225.658 889.099 224.5 902.216 232.024C924.652 244.892 931.912 274.645 918.934 297.272C900.688 329.082 862.022 318.889 831.616 320.536C823.481 320.976 806.098 321.327 798.529 320.369C805.351 309.909 812.545 299.707 819.809 289.552C822.644 285.589 825.509 281.63 827.661 277.243C819.079 278.302 806.121 281.152 797.138 282.806L745.548 291.836L668.621 304.789C657.307 306.761 644.782 308.732 633.625 311.135C629.904 308.072 627.185 305.744 624.093 302.086C605.551 280.148 616.511 244.372 644.121 236.487C651.041 234.51 655.815 234.395 662.972 234.504Z"/><path fill="#B04144" d="M635.101 383.41C642.387 379.741 645.736 379.567 652.962 377.426C655.942 376.544 663.355 371.948 666.88 370.362L668.868 371.727C684.064 379.431 699.212 387.336 711.956 398.851C717.552 403.907 722.506 409.757 727.807 415.113L729.401 416.857C756.51 453.226 768.669 489.318 781.663 532.417C782.763 536.065 788.142 551.455 788.04 554.466L786.327 553.47C771.649 548.815 759.046 546.316 743.509 547.967C718.919 550.579 695.149 560.276 679.368 579.831L678.304 581.584C676.558 577.587 675.24 569.694 673.551 564.786C666.804 545.189 658.006 534.032 644.728 518.992C642.966 521.667 640.764 528.672 639.472 532.107C635.506 542.649 631.774 552.22 624.979 561.34C614.173 545.641 604.239 532.476 588.944 520.505C579.269 512.933 555.319 499.165 542.561 500.788C544.531 497.123 545.322 491.905 546.826 487.922C557.892 458.616 552.362 427.693 560.017 397.558L560.073 396.505L561.05 395.716C569.254 400.924 578.506 410.711 586.05 416.83C605.931 432.957 623.633 451.863 646.939 463.035C651.06 465.011 657.468 472.047 660.781 475.65C655.854 460.901 651.383 445.886 646.173 431.283C642.364 420.607 637.153 409.785 633.5 398.986C631.01 391.623 631.764 389.954 635.101 383.41Z"/><path fill="#B04144" d="M560.017 397.558C567.051 402.189 582.028 416.479 589.131 422.667C588.498 427.332 585.73 453.866 587.434 457.069C591.42 453.64 591.149 431.586 592.146 425.756L606.82 437.752C605.287 446.428 603.987 455.194 602.394 463.858C601.514 468.647 596.485 480.583 598.123 484.528L598.986 484.669C604.419 480.676 608.26 446.986 608.666 439.636C615.27 444.525 621.941 450.27 628.298 455.557C610.976 463.51 614.382 473.8 620.683 488.617C626.104 501.369 636.968 508.697 644.728 518.992C642.966 521.667 640.764 528.672 639.472 532.107C635.506 542.649 631.774 552.22 624.979 561.34C614.173 545.641 604.239 532.476 588.944 520.505C579.269 512.933 555.319 499.165 542.561 500.788C544.531 497.123 545.322 491.905 546.826 487.922C557.892 458.616 552.362 427.693 560.017 397.558Z"/><path fill="#4C011B" d="M635.101 383.41C642.387 379.741 645.736 379.567 652.962 377.426C655.942 376.544 663.355 371.948 666.88 370.362L668.868 371.727C684.064 379.431 699.212 387.336 711.956 398.851C717.552 403.907 722.506 409.757 727.807 415.113L729.401 416.857C756.51 453.226 768.669 489.318 781.663 532.417C782.763 536.065 788.142 551.455 788.04 554.466L786.327 553.47C779.541 537.485 775.226 519.933 769.846 503.341C754.588 456.284 731.089 408.006 685.851 383.089C705.986 403.619 722.205 424.756 734.371 450.995C736.269 455.088 741.52 464.267 740.639 468.464L739.747 468.824C738.057 467.748 729.144 446.217 726.863 441.966C714.8 419.489 690.597 384.618 667.24 373.698C663.858 375.835 661.673 377.406 658.502 379.863C686.378 404.514 704.084 436.123 719.482 469.534C719.604 469.8 719.384 470.38 719.296 470.658L718.53 470.917C716.347 469.558 709.341 453.142 707.124 449.569C694.498 429.229 673.37 388.856 650.54 380.061L641.687 383.79C662.873 409.385 675.673 434.73 687.238 465.929C688.378 469.006 692.335 478.774 692.446 481.052L691.993 481.536C689.856 480.569 688.913 477.742 688.115 475.499C678.722 449.096 666.711 423.243 651 399.973C647.963 395.475 643.624 388.912 639.497 385.528L638.305 385.272C632.182 389.646 635.58 399.999 638.327 405.242C646.154 420.182 676.945 510.731 673.01 520.601C667.154 514.892 670.376 480.444 644.787 464.283C640.601 461.639 635.3 459.248 630.286 459.196C627.188 459.165 624.332 460.195 622.215 462.504C619.576 465.383 618.461 469.213 618.709 473.065C620.126 495.026 645.747 514.354 658.335 530.79C664.555 538.912 670.024 549.463 674.085 558.815C676.838 565.156 679.832 572.807 679.368 579.831L678.304 581.584C676.558 577.587 675.24 569.694 673.551 564.786C666.804 545.189 658.006 534.032 644.728 518.992C636.968 508.697 626.104 501.369 620.683 488.617C614.382 473.8 610.976 463.51 628.298 455.557C621.941 450.27 615.27 444.525 608.666 439.636C608.26 446.986 604.419 480.676 598.986 484.669L598.123 484.528C596.485 480.583 601.514 468.647 602.394 463.858C603.987 455.194 605.287 446.428 606.82 437.752L592.146 425.756C591.149 431.586 591.42 453.64 587.434 457.069C585.73 453.866 588.498 427.332 589.131 422.667C582.028 416.479 567.051 402.189 560.017 397.558L560.073 396.505L561.05 395.716C569.254 400.924 578.506 410.711 586.05 416.83C605.931 432.957 623.633 451.863 646.939 463.035C651.06 465.011 657.468 472.047 660.781 475.65C655.854 460.901 651.383 445.886 646.173 431.283C642.364 420.607 637.153 409.785 633.5 398.986C631.01 391.623 631.764 389.954 635.101 383.41Z"/><path fill="#781212" d="M633.625 311.135C644.782 308.732 657.307 306.761 668.621 304.789L745.548 291.836L797.138 282.806C806.121 281.152 819.079 278.302 827.661 277.243C825.509 281.63 822.644 285.589 819.809 289.552C812.545 299.707 805.351 309.909 798.529 320.369C793.355 326.707 788.709 334.48 783.987 341.25L753.022 384.969C746.077 394.777 737.173 408.011 729.401 416.857L727.807 415.113C722.506 409.757 717.552 403.907 711.956 398.851C699.212 387.336 684.064 379.431 668.868 371.727L666.88 370.362C663.355 371.948 655.942 376.544 652.962 377.426C645.736 379.567 642.387 379.741 635.101 383.41C631.764 389.954 631.01 391.623 633.5 398.986C637.153 409.785 642.364 420.607 646.173 431.283C651.383 445.886 655.854 460.901 660.781 475.65C657.468 472.047 651.06 465.011 646.939 463.035C623.633 451.863 605.931 432.957 586.05 416.83C578.506 410.711 569.254 400.924 561.05 395.716L560.073 396.505L560.017 397.558C552.362 427.693 557.892 458.616 546.826 487.922C545.322 491.905 544.531 497.123 542.561 500.788C541.903 500.546 541.626 500.329 541.019 499.97C538.974 495.231 548.478 475.375 549.471 469.17C552.617 449.516 551.753 429.514 555.059 409.879C555.915 404.796 557.105 399.747 557.812 394.643C555.791 393.857 543.932 385.36 541.551 383.709L503.383 357.178C497.036 352.697 487.965 345.616 481.484 341.988C481.201 340.827 481.163 340.903 481.493 339.765C482.93 338.779 484.805 338.157 486.522 337.863C535.616 329.46 584.552 319.601 633.625 311.135Z"/><defs><linearGradient id="gradient_0" gradientUnits="userSpaceOnUse" x1="689.66772" y1="277.19131" x2="642.98016" y2="468.33127"><stop offset="0" stop-color="#FED39B"/><stop offset="1" stop-color="#FAE4CB"/></linearGradient></defs><path fill="url(#gradient_0)" d="M781.629 298.654C782.55 300.193 782.55 300.877 782.85 302.62C744.255 325.913 706.567 348.966 666.88 370.362C663.355 371.948 655.942 376.544 652.962 377.426C645.736 379.567 642.387 379.741 635.101 383.41C631.764 389.954 631.01 391.623 633.5 398.986C637.153 409.785 642.364 420.607 646.173 431.283C651.383 445.886 655.854 460.901 660.781 475.65C657.468 472.047 651.06 465.011 646.939 463.035C623.633 451.863 605.931 432.957 586.05 416.83C578.506 410.711 569.254 400.924 561.05 395.716C572.656 389.74 588.134 383.46 600.29 378.115L668.23 348.218L730.145 320.877C746.924 313.355 764.45 305.085 781.629 298.654Z"/><path fill="#F3C789" d="M668.868 371.727C700.385 354.537 731.589 336.967 761.873 317.713C764.816 315.841 767.925 314.056 770.923 312.257L805.44 291.592C811.065 288.235 817.448 284.744 822.835 281.184L760.68 369.994L741.494 397.105C737.54 402.638 732.341 410.209 727.807 415.113C722.506 409.757 717.552 403.907 711.956 398.851C699.212 387.336 684.064 379.431 668.868 371.727Z"/><path fill="#F3C789" d="M781.629 298.654C789.425 295.16 797.283 291.53 805.256 288.488C797.866 293.834 790.731 298.022 782.85 302.62C782.55 300.877 782.55 300.193 781.629 298.654Z"/><path fill="#F3C789" d="M816.078 282.253C787.928 292.209 754.264 307.669 726.834 319.905L620.313 367.047L578.197 385.703C574.891 387.169 561.315 393.391 558.727 393.998C553.996 389.898 544.608 384.154 539.333 380.348C521.055 367.159 501.179 354.809 483.267 341.222C487.282 339.31 499.296 337.334 503.993 336.441C520.465 333.307 537.129 330.866 553.672 328.054L657.058 309.689L766.252 290.34L793.412 285.573C799.752 284.432 809.731 282.491 816.078 282.253Z"/><path fill="#FEFEFC" d="M312.866 292.21C317.953 291.432 330.203 292.52 335.211 293.471C358.389 297.868 381.177 310.315 394.407 330.31C410.825 355.122 411.341 379.038 406.181 406.983C418.596 406.914 430.041 409.409 439.322 418.253C456.436 434.559 454.589 459.454 438.427 475.716C426.804 487.411 411.129 486.51 395.859 486.517L369.436 486.523L273.25 486.501L230.391 486.481C213.62 486.499 188.241 488.32 172.888 482.236C126.807 463.975 126.848 400.754 172.939 382.317C191.608 374.85 203.622 377.815 221.431 385.442C221.358 366.068 231.654 342.403 243.894 327.715C262.007 305.979 285.141 295.041 312.866 292.21Z"/><path fill="#EBB6A4" d="M397.143 191.636C415.126 190.612 421.327 196.809 429.578 211.532C440.83 211.37 453.905 209.624 462.656 218.026C472.498 227.475 472.851 245.097 462.734 254.323C453.247 262.975 435.002 261.3 423.143 261.015L391.427 261.041C382.619 261.034 372.269 261.243 363.659 259.616C348.241 256.702 342.886 235.213 353.712 224.442C358.943 219.237 363.907 218.979 370.792 218.86C374.042 201.695 379.044 194.428 397.143 191.636Z"/><path fill="#EBB6A4" d="M596.305 107.563C611.976 106.521 616.893 109.606 624.424 123.049C633.368 123.379 642.206 123.33 648.954 130.296C656.556 138.143 656.618 151.57 648.395 158.95C640.931 165.649 629.105 165.125 619.802 164.639C608.709 164.381 577 166.466 568.858 161.976C564.952 159.822 562.388 156.333 561.159 152.088C559.808 147.419 559.607 142.976 562.122 138.648C565.373 133.053 571.268 131.39 577.062 129.698C581.148 117.513 582.835 111.241 596.305 107.563Z"/><path fill="#EBB6A4" d="M97.893 486.752C106.368 485.495 114.273 491.303 115.606 499.767C116.939 508.231 111.202 516.187 102.75 517.596C94.1913 519.022 86.1111 513.196 84.7612 504.624C83.4114 496.053 89.3098 488.025 97.893 486.752Z"/><path fill="#EBB6A4" d="M922.972 325.164C930.255 323.884 937.205 328.727 938.524 336.003C939.844 343.28 935.037 350.255 927.768 351.613C920.444 352.982 913.404 348.131 912.075 340.8C910.746 333.468 915.634 326.454 922.972 325.164Z"/><path fill="#FEFEFC" d="M882.136 335.172C885.651 337.058 886.143 342.084 886.681 345.757C893.737 393.956 879.101 437.847 849.654 475.764C848.016 475.974 848.652 476.221 847.562 475.392C847.059 472.232 855.432 461.92 857.721 458.443C876.511 429.907 885.54 395.712 884.879 361.66C884.711 353.003 881.608 344.12 882.136 335.172Z"/><path fill="#FEFEFC" d="M824.845 396.305C826.289 397.438 825.831 396.753 826.462 398.288C825.363 402.87 797.201 436.119 792.89 440.781L791.379 440.122L791.073 439.238C792.611 435.023 820.66 401.025 824.845 396.305Z"/><path fill="#FEFEFC" d="M846.437 516.2C853.253 518.445 865.899 531.422 872.441 535.762C877.516 539.129 883.044 544.095 888.152 547.642C889.304 548.442 888.89 549.985 888.843 551.277C881.989 548.829 857.037 528.176 850.002 522.454C847.128 520.117 846.619 519.448 846.437 516.2Z"/><path fill="#F28A53" fill-opacity="0.98431373" d="M954.454 646.328C956.69 648.065 958.862 654.367 959.852 657.175C978.256 709.385 988.194 765.177 987.094 820.595C986.914 829.697 986.344 838.584 985.859 847.664C984.025 846.131 985.83 815.512 985.844 811.31C986.038 752.775 974.221 701.081 954.454 646.328Z"/><path fill="#C95D32" fill-opacity="0.89019608" d="M353.785 151.079C354.552 151.044 354.159 150.963 354.933 151.443C353.3 152.94 339.654 154.51 336.252 155.117C269.644 166.997 201.768 197.921 149.62 241.097C149.27 241.349 149.516 241.213 148.806 241.313C148.962 241.017 149.118 240.721 149.274 240.425C196.186 201.525 254.735 173.009 313.686 158.638C331.996 154.174 340.432 153.719 353.785 151.079Z"/></svg>