<?xml version="1.0" encoding="utf-8" ?>
<svg xmlns="http://www.w3.org/2000/svg" xmlns:xlink="http://www.w3.org/1999/xlink" width="1024" height="1024">
	<path fill="#FEFEFE" d="M505.248 108.252C505.901 105.99 506.562 103.982 508.676 102.707C509.927 102.716 510.596 102.675 511.538 103.688C512.525 104.748 512.939 106.773 513.32 108.128L512.344 108.575C509.938 108.601 507.643 108.501 505.248 108.252Z"/>
	<path fill="#115A6F" d="M505.424 197.6L512.023 198.663L513.145 198.643C513.832 204.576 513.481 210.756 513.494 216.736Q513.645 236.082 513.471 255.427C513.405 262.725 512.776 270.537 513.367 277.777L512.289 277.257L511.695 276.557C509.529 278.009 508.709 280.982 506.879 282.794C505.71 276.091 506.327 269.372 506.411 262.611L506.494 229.28C506.55 219.088 507.665 207.541 505.424 197.6Z"/>
	<path fill="#FE9581" d="M505.248 108.252C507.643 108.501 509.938 108.601 512.344 108.575C511.241 116.157 511.805 124.093 511.921 131.744L512.305 160.147C512.585 172.944 511.971 185.845 512.023 198.663L505.424 197.6C504.187 188.875 504.844 179.5 504.863 170.682C504.893 157.255 504.75 143.794 505.044 130.37C505.204 123.063 505.904 115.541 505.248 108.252Z"/>
	<path fill="#F1593F" d="M513.32 108.128C524.268 104.604 533.561 102.763 544.315 108.345C551.97 112.319 562.746 122.287 568.127 129.015C567.739 140.066 569.065 209.925 567.378 213.998C558.856 205.645 549.42 196.664 537.476 193.747C528.242 191.493 520.99 193.877 513.145 198.643L512.023 198.663C511.971 185.845 512.585 172.944 512.305 160.147L511.921 131.744C511.805 124.093 511.241 116.157 512.344 108.575L513.32 108.128Z"/>
	<path fill="#D13530" d="M625.886 124.977C624.703 133.806 625.51 143.688 625.515 152.639C625.527 173.19 625.853 193.795 625.474 214.339C620.457 221.699 612.554 227.233 603.713 228.861C594.016 230.646 584.122 227.763 576.136 222.182C572.771 219.831 570.1 217.051 567.378 213.998C569.065 209.925 567.739 140.066 568.127 129.015C577.735 136.178 587.98 141.196 600.285 139.403C610.496 137.916 618.537 131.823 625.886 124.977Z"/>
	<path fill="#23C2B8" d="M362.733 583.11C373.208 576.876 382.571 568.949 392.354 561.71L447.569 521.176C451.791 518.044 456.11 514.988 460.217 511.71C462.706 509.724 464.919 507.44 467.546 505.616C468.702 504.814 469.923 503.967 471.39 504.03C472.225 504.065 472.495 504.779 472.992 505.368C464.606 516.942 458.155 529.722 450.634 541.846Q430.784 573.526 410.223 604.75L258.676 835.66Q231.283 877.181 203.349 918.34C196.163 928.945 189.419 940.204 181.825 950.486L113.974 950.364C100.06 950.337 85.9597 949.972 72.0711 950.787C77.1927 941.926 83.1756 933.442 88.8617 924.929L115.203 885.391L205.66 747.453Q261.328 660.314 318.412 574.093L341.759 538.567C346.079 531.982 349.899 524.992 355.153 519.096Q359.524 551.034 362.733 583.11Z"/>
	<path fill="#FEFEFE" d="M506.879 282.794C508.709 280.982 509.529 278.009 511.695 276.557L512.289 277.257L513.367 277.777L570.112 366.656C586.375 391.767 603.283 416.548 619.149 441.902C625.155 451.5 630.5 461.485 636.454 471.11C646.099 486.701 657.36 501.497 666.54 517.344C665.636 526.029 665.982 534.875 666.014 543.598Q666.18 563.805 665.996 584.012Q624.337 554.083 582.177 524.862C571.548 517.451 561.275 507.791 549.376 502.563L523.709 568.027C520.113 577.146 517.351 587.056 512.502 595.582L511.936 597.036C506.184 589.716 502.059 577.643 498.403 569.037Q485.07 537.453 472.992 505.368C472.495 504.779 472.225 504.065 471.39 504.03C469.923 503.967 468.702 504.814 467.546 505.616C464.919 507.44 462.706 509.724 460.217 511.71C456.11 514.988 451.791 518.044 447.569 521.176L392.354 561.71C382.571 568.949 373.208 576.876 362.733 583.11Q359.524 551.034 355.153 519.096C358.607 510.796 364.952 502.951 369.718 495.307Q391.933 460.074 414.859 425.299L477.092 329.13L495.729 300.146C499.41 294.361 502.91 288.382 506.879 282.794Z"/>
	<path fill="#EBCDCA" d="M512.289 277.257L513.367 277.777L570.112 366.656C586.375 391.767 603.283 416.548 619.149 441.902C625.155 451.5 630.5 461.485 636.454 471.11C646.099 486.701 657.36 501.497 666.54 517.344C665.636 526.029 665.982 534.875 666.014 543.598Q666.18 563.805 665.996 584.012Q624.337 554.083 582.177 524.862C571.548 517.451 561.275 507.791 549.376 502.563L523.709 568.027C520.113 577.146 517.351 587.056 512.502 595.582C510.83 587.125 512.068 577.879 512.031 569.285Q511.618 539.818 511.773 510.35L512.289 277.257Z"/>
	<path fill="#109D9E" d="M472.992 505.368Q485.07 537.453 498.403 569.037C502.059 577.643 506.184 589.716 511.936 597.036L512.066 598.372L481.553 748.959Q478.529 763.659 475.706 778.4C473.817 788.63 472.853 802.413 468.31 811.708C464.651 819.196 442.45 839.159 435.407 846.102C407.903 873.219 380.938 900.934 353.239 927.844C349.829 931.157 330.564 948.134 329.761 950.471L181.825 950.486C189.419 940.204 196.163 928.945 203.349 918.34Q231.282 877.181 258.676 835.66L410.223 604.75Q430.784 573.526 450.634 541.846C458.155 529.722 464.606 516.942 472.992 505.368Z"/>
	<path fill="#115A6F" d="M549.376 502.563C561.275 507.791 571.548 517.451 582.177 524.862Q624.337 554.082 665.996 584.012Q666.18 563.805 666.014 543.598C665.982 534.875 665.636 526.029 666.54 517.344C678.832 533.48 689.357 551.183 700.56 568.099L762.174 660.817Q829.065 760.973 894.274 862.233C913.399 891.66 933.083 920.794 951.807 950.47L790.089 950.443C760.782 950.446 731.455 950.166 702.151 950.516C671.306 950.963 640.394 950.537 609.544 950.514L446.359 950.306L378.38 950.084C362.173 950.035 345.958 949.796 329.761 950.471C330.564 948.134 349.829 931.157 353.239 927.844C380.938 900.934 407.903 873.219 435.407 846.102C442.45 839.159 464.651 819.196 468.31 811.708C472.853 802.413 473.817 788.63 475.706 778.4Q478.529 763.659 481.553 748.959L512.066 598.372L511.936 597.036L512.502 595.582C517.351 587.056 520.113 577.146 523.709 568.027L549.376 502.563Z"/>
	<path fill="#0F7D85" d="M512.066 598.372C514.874 604.767 516.655 629.465 517.748 637.782C523.212 679.371 527.821 721.057 533.54 762.62C535.827 779.237 537.622 799.738 541.497 815.734C576.787 843.741 610.777 873.46 645.203 902.527C663.709 918.152 685.021 933.755 702.151 950.516C671.306 950.963 640.394 950.537 609.544 950.514L446.359 950.306L378.38 950.084C362.173 950.035 345.958 949.796 329.761 950.471C330.564 948.134 349.829 931.157 353.239 927.844C380.938 900.934 407.903 873.219 435.407 846.102C442.45 839.159 464.651 819.196 468.31 811.708C472.853 802.413 473.817 788.63 475.706 778.4Q478.529 763.659 481.553 748.959L512.066 598.372Z"/>
</svg>
