<?xml version="1.0" encoding="utf-8" ?>
<svg xmlns="http://www.w3.org/2000/svg" xmlns:xlink="http://www.w3.org/1999/xlink" width="1024" height="1024">
	<path fill="#4B4951" transform="scale(2 2)" d="M310.917 415.803C324.89 414.475 327.82 435.508 313.052 438.475C298.462 438.909 294.892 419.041 310.917 415.803Z"/>
	<path fill="#4B4951" transform="scale(2 2)" d="M198.641 414.761C214.1 413.992 217.19 433.693 203.198 437.683C187.844 440.01 183.151 418.847 198.641 414.761Z"/>
	<path fill="#F78987" transform="scale(2 2)" d="M434.486 240.828C449.973 239.094 454.045 260.976 438.439 264.916C423.509 267.795 417.388 244.995 434.486 240.828Z"/>
	<path fill="#F78987" transform="scale(2 2)" d="M248.031 63.3621C265.523 61.1056 270.178 83.2669 253.541 88.3727C237.039 90.7743 231.239 68.9376 248.031 63.3621Z"/>
	<path fill="#D63F56" transform="scale(2 2)" d="M273.65 407.961C279.41 408.396 285.212 410.697 286.67 416.95C287.334 419.797 287.234 441.323 286.849 444.287C286.121 449.888 282.363 453.592 276.859 454.838C270.798 455.057 265.232 452.191 263.561 445.992C262.711 442.838 262.801 422.436 263.223 418.858C263.915 412.997 268.057 409.474 273.65 407.961Z"/>
	<path fill="#D63F56" transform="scale(2 2)" d="M231.718 407.961C250.965 406.187 248.759 415.688 248.764 429.661C248.769 441.851 251.754 447.173 240.652 454.838C222.682 457.865 224.39 440.659 224.4 429.718C224.407 421.755 222.064 411.214 231.718 407.961Z"/>
	<path fill="#73717C" transform="scale(2 2)" d="M255.743 352.239C275.472 352.213 291.454 347.339 308.296 337.174C315.529 344.865 323.121 352.212 330.268 359.979C309.679 375.506 281.467 384.136 255.743 383.238L255.743 352.239Z"/>
	<path fill="#73717C" transform="scale(2 2)" d="M352.914 268.753C363.042 268.925 373.205 268.762 383.336 268.753C376.345 298.531 375.481 312.333 353.564 338.703C352.062 340.382 350.555 342.028 348.954 343.614C342.641 336.733 332.75 328.476 327.402 321.532C342.859 306.594 348.021 288.594 352.914 268.753Z"/>
	<path fill="#F78987" transform="scale(2 2)" d="M429.968 287.594C455.592 285.778 434.378 327.44 429.791 336.702C416.011 364.527 394.979 390.259 369.594 408.102C365.944 410.667 362.254 413.769 357.812 414.761C351.819 414.49 345.946 411.154 344.884 404.825C343.15 394.483 354.035 390.638 360.666 385.624C385.745 366.661 407.845 335.011 416.88 304.697C419.351 296.403 419.726 289.058 429.968 287.594Z"/>
	<path fill="#F78987" transform="scale(2 2)" d="M297.545 71.0472C310.385 70.4804 341.042 84.724 352.357 91.1091C388.48 111.494 417.463 145.608 433.263 183.762C437.695 194.464 448.997 216.058 431.673 220.614C420.682 221.934 418.448 212.312 415.933 204.254C400.23 153.944 356.966 110.83 306.523 95.897C301.994 94.5564 296.567 93.9501 292.578 91.2963C283.381 85.1779 287.49 72.932 297.545 71.0472Z"/>
	<path fill="#73717C" transform="scale(2 2)" d="M255.743 125.35C276.918 124.052 302.787 132.409 320.85 143.228C358.302 165.66 379.135 202.707 383.336 245.346L363.263 245.361C359.849 245.364 356.314 245.566 352.914 245.346C349.103 198.078 309.2 156.298 260.947 154.793C259.227 154.739 257.449 154.867 255.743 154.717C255.741 144.96 256.094 135.089 255.743 125.35Z"/>
	<path fill="#D63F56" transform="scale(2 2)" d="M210.162 71.0472C221.944 68.8046 234.588 88.1394 209.903 94.9782C164.446 107.571 124.665 140.926 104.217 183.334C70.0246 254.244 91.9429 344.105 155.986 389.903C159.435 392.369 163.432 394.337 166.552 397.209C173.949 404.018 169.693 414.422 161.049 417.19C152.721 418.041 145.475 411.089 139.235 406.424C86.168 366.746 58.4897 297.754 65.9186 232.313C73.7509 163.318 119.617 106.659 182.909 79.8206C191.017 76.3827 201.562 72.2903 210.162 71.0472Z"/>
	<path fill="#E0E0E0" transform="scale(2 2)" d="M255.743 383.238C183.599 382.755 127.24 324.473 127.875 253.088C128.502 182.698 185.167 124.713 255.743 125.35C256.094 135.089 255.741 144.96 255.743 154.717C233.273 153.237 207.793 164.535 191.33 178.994C126.296 236.106 161.866 346.696 249.882 352.315C251.859 352.441 253.774 352.482 255.743 352.239L255.743 383.238Z"/>
</svg>
