<?xml version="1.0" encoding="utf-8" ?>
<svg xmlns="http://www.w3.org/2000/svg" xmlns:xlink="http://www.w3.org/1999/xlink" width="300" height="300">
	<path fill="#FED47C" transform="scale(0.292969 0.292969)" d="M856.443 286.592C859.644 287.97 862.357 289.354 863.852 292.747C864.775 294.84 864.581 297.207 863.689 299.275C862.669 301.638 860.768 303.554 858.328 304.427C856.098 305.224 853.382 305.191 851.285 304.021C849.492 303.02 848.5 301.28 847.988 299.344C847.278 296.66 847.579 294.308 848.113 291.625C850.434 288.984 853.034 287.41 856.443 286.592Z"/>
	<path fill="#FED47C" transform="scale(0.292969 0.292969)" d="M783.53 245.529C785.012 245.433 786.494 245.332 787.942 245.745C790.117 246.366 792.068 247.931 793.123 249.934C794.394 252.349 794.472 255.235 793.628 257.8C792.499 261.226 790.48 262.896 787.388 264.541C786.544 264.528 785.712 264.504 784.875 264.377C782.478 264.013 780.11 262.732 778.697 260.734C777.182 258.592 776.855 255.934 777.418 253.407C778.251 249.672 780.362 247.466 783.53 245.529Z"/>
	<path fill="#FED47C" transform="scale(0.292969 0.292969)" d="M750.496 299.969C754.038 298.397 758.529 298.523 762.148 299.865C770.902 303.109 776.396 310.99 781.091 318.611C789.948 338.829 783.842 363.18 776.188 382.794C773.761 389.012 770.862 395.275 769.136 401.723C756.9 400.196 740.791 390.933 731.84 382.778C737.452 373.521 741.625 363.702 745.517 353.631C744.151 350.559 742.751 347.655 740.967 344.802C739.158 341.319 736.611 338.146 734.26 335.024L732.994 333.404C734.183 332.17 735.5 331.047 736.768 329.895L742.516 332.066C743.71 330.727 745.168 329.522 746.476 328.288Q743.407 324.935 740.466 321.469L740.038 319.969L743.292 317.241C746.233 312.713 751.556 310.746 755.825 307.75L756.263 307.439C753.649 305.414 752.121 302.772 750.496 299.969Z"/>
	<path fill="#FFA100" transform="scale(0.292969 0.292969)" d="M765.023 320.294C766.383 325.531 766.274 329.951 765.832 335.317C763.795 332.287 761.652 329.375 759.431 326.478C761.21 324.295 763.007 322.264 765.023 320.294Z"/>
	<path fill="#8B1702" transform="scale(0.292969 0.292969)" d="M746.476 328.288C752.373 334.39 755.74 339.164 758.327 347.284C753.834 342.862 749.577 337.236 744.517 333.556C743.845 333.067 743.187 332.557 742.516 332.066C743.71 330.727 745.168 329.522 746.476 328.288Z"/>
	<path fill="#C88623" transform="scale(0.292969 0.292969)" d="M756.263 307.439C760.428 310.897 762.441 315.667 765.023 320.294C763.007 322.264 761.21 324.295 759.431 326.478C754.873 321.428 749.967 318.457 743.292 317.241C746.233 312.713 751.556 310.746 755.825 307.75L756.263 307.439Z"/>
	<path fill="#FED47C" transform="scale(0.292969 0.292969)" d="M855.253 802.329C860.583 821.232 865.999 839.983 870.665 859.074Q902.106 868.723 933.746 877.693C944.095 880.632 954.441 883.836 964.872 886.463C953.049 890.946 940.451 893.443 928.175 896.383Q903.237 902.346 878.393 908.694C869.071 911.049 859.48 913.092 850.333 916.038C835.364 882.955 821.948 849.159 806.188 816.431C811.714 814.156 818.021 812.787 823.812 811.246C834.349 808.441 844.905 805.79 855.253 802.329Z"/>
	<path fill="#FFA100" transform="scale(0.292969 0.292969)" d="M803.26 231.537C812.37 226.827 821.856 222.75 831.055 218.179L919.787 173.837L887.222 233.495C878.999 248.674 871.058 264.091 862.225 278.927C858.275 279.097 854.28 278.987 850.325 278.999C851.11 280.861 851.931 283.666 853.148 285.233C854.246 286.646 854.805 286.433 856.443 286.592C853.034 287.41 850.434 288.984 848.113 291.625C841.762 290.083 835.397 288.979 828.937 288.009C830.073 291.934 831.659 295.564 833.249 299.318C836.695 299.757 839.836 300.786 842.083 303.637C843.282 305.159 843.681 306.915 843.407 308.813C842.986 311.727 840.861 314.51 838.512 316.18C836.448 317.648 833.718 318.595 831.171 318.189C829.545 317.93 828.189 317.062 827.312 315.668C825.206 312.318 825.604 306.615 826.62 302.984C826.697 302.711 826.781 302.44 826.862 302.167C820.189 300.337 813.565 298.293 806.869 296.558C801.259 301.49 786.741 316.132 781.091 318.611C776.396 310.99 770.902 303.109 762.148 299.865C758.529 298.523 754.038 298.397 750.496 299.969L750.288 298.017C765.248 287.114 779.976 276.298 795.891 266.797C798.72 255.172 800.831 243.259 803.26 231.537Z"/>
	<path fill="#3B7377" transform="scale(0.292969 0.292969)" d="M613.698 455.472C624.821 459.056 638.254 458.873 649.536 456.148C686.066 447.323 713.104 413.464 731.84 382.778C740.791 390.933 756.9 400.196 769.136 401.723Q768.448 403.593 767.715 405.447Q766.982 407.3 766.204 409.135Q765.427 410.971 764.606 412.787Q763.785 414.603 762.921 416.399Q762.056 418.195 761.149 419.969Q760.242 421.744 759.292 423.496Q758.342 425.248 757.351 426.977Q756.359 428.706 755.327 430.411Q754.294 432.116 753.221 433.795Q752.148 435.474 751.034 437.128Q749.921 438.781 748.769 440.407Q747.616 442.033 746.424 443.631Q745.233 445.228 744.004 446.797Q742.775 448.366 741.508 449.905Q740.241 451.444 738.938 452.952Q737.635 454.46 736.296 455.936Q734.957 457.412 733.583 458.856Q732.209 460.299 730.8 461.71Q729.392 463.12 727.95 464.496Q726.508 465.872 725.034 467.213Q723.56 468.554 722.053 469.86Q720.547 471.165 719.01 472.434Q717.473 473.703 715.906 474.934Q714.339 476.166 712.743 477.359Q711.147 478.553 709.522 479.707Q707.898 480.862 706.246 481.978Q704.595 483.094 702.917 484.169Q701.239 485.245 699.536 486.28Q697.832 487.315 696.105 488.309Q694.377 489.302 692.626 490.254Q690.875 491.207 689.102 492.116Q687.329 493.026 685.534 493.893C667.813 502.284 630.052 510.663 610.634 506.006C609.502 492.014 606.373 479.609 600.217 466.967C604.789 463.252 609.383 459.485 613.698 455.472Z"/>
	<path fill="#3B7377" transform="scale(0.292969 0.292969)" d="M294.163 593.055C294.307 593.116 294.451 593.176 294.594 593.24C300.472 595.858 305.523 600.07 311.45 602.672C336.177 613.527 364.641 615.34 390.077 605.874C393.228 604.701 396.364 603.178 399.616 602.353C414.49 625.271 435.231 644.593 462.696 650.343C478.807 653.715 497.274 651.976 512.271 645.033C517.527 642.599 522.303 639.149 527.528 636.769C525.224 641.283 521.515 644.982 518.181 648.746Q484.47 678.943 448.906 706.933Q435.541 717.445 422.023 727.76C416.825 731.74 411.261 735.528 406.434 739.943C402.216 738.357 397.99 736.832 393.952 734.818C390.812 728.116 375.613 710.021 370.296 702.886Q342.663 666.489 316.706 628.878C308.809 617.272 300.437 605.639 294.163 593.055Z"/>
	<path fill="#69B2BB" transform="scale(0.292969 0.292969)" d="M294.163 593.055C289.675 589.033 285.256 584.444 281.406 579.813C255.353 548.477 244.138 492.824 247.938 452.676C250.88 421.596 264.83 406.519 287.72 387.571C287.77 387.739 287.822 387.906 287.87 388.075C289.777 394.832 290.148 402.556 291.088 409.543Q293.801 429.123 296.212 448.742C299.466 476.49 303.575 536.916 330.207 552.026C343.142 559.364 358.524 556.894 372.211 553.382C394.796 546.73 417.579 539.441 438.695 528.898C444.861 541.23 451.626 553.173 458.019 565.375C451.892 568.479 446.932 573.143 441.488 577.25C428.482 587.063 414.893 596.445 399.616 602.353C396.364 603.178 393.228 604.701 390.077 605.874C364.641 615.34 336.177 613.527 311.45 602.672C305.523 600.07 300.472 595.858 294.594 593.24C294.451 593.176 294.307 593.116 294.163 593.055Z"/>
	<path fill="#3B7377" transform="scale(0.292969 0.292969)" d="M340.846 349.027C343.856 349.125 346.622 349.588 349.568 350.186C350.703 358.018 353.217 368.887 353.632 376.356C364.267 379.451 374.432 386.541 383.835 392.295L411.516 409.232C431.66 421.482 452.259 433.153 471.83 446.305Q468.154 454.017 464.219 461.6C439.737 458.984 417.151 463.485 397.759 479.269C382.014 492.084 372.527 509.689 370.532 529.904C369.752 537.81 370.774 545.608 372.211 553.382C358.524 556.894 343.142 559.364 330.207 552.026C303.575 536.916 299.466 476.49 296.212 448.742Q293.801 429.123 291.088 409.543C290.148 402.556 289.777 394.832 287.87 388.075C287.822 387.906 287.77 387.739 287.72 387.571C291.422 383.844 296.243 381.26 299.423 376.969Q302.156 364.399 303.905 351.654C309.554 348.587 333.525 349.023 340.846 349.027Z"/>
	<path fill="#FED47C" transform="scale(0.292969 0.292969)" d="M340.846 349.027C343.856 349.125 346.622 349.588 349.568 350.186C350.703 358.018 353.217 368.887 353.632 376.356C347.194 378.551 308.939 377.201 299.423 376.969Q302.156 364.399 303.905 351.654C309.554 348.587 333.525 349.023 340.846 349.027Z"/>
	<path fill="#2F0000" transform="scale(0.292969 0.292969)" d="M304.69 346.9C304.63 346.383 304.63 344.85 304.409 344.469C303.97 343.714 287.896 335.042 285.859 333.672C268 321.651 254.201 303.274 246.429 283.293Q245.911 281.956 245.426 280.606Q244.941 279.257 244.489 277.896Q244.037 276.535 243.618 275.163Q243.199 273.791 242.814 272.41Q242.429 271.028 242.078 269.638Q241.727 268.247 241.41 266.849Q241.093 265.45 240.81 264.044Q240.527 262.638 240.278 261.226Q240.03 259.814 239.816 258.396Q239.602 256.978 239.423 255.555Q239.244 254.132 239.099 252.705Q238.955 251.278 238.845 249.848Q238.735 248.418 238.661 246.986Q238.586 245.554 238.547 244.121Q238.507 242.687 238.502 241.253Q238.498 239.819 238.528 238.385Q238.558 236.951 238.624 235.519Q238.689 234.086 238.789 232.655Q238.89 231.225 239.025 229.797Q239.16 228.369 239.33 226.945Q239.5 225.521 239.705 224.102Q239.91 222.683 240.149 221.269Q240.389 219.855 240.662 218.447Q240.936 217.039 241.244 215.639Q241.552 214.238 241.895 212.845Q242.237 211.453 242.613 210.069Q242.989 208.685 243.399 207.31Q243.809 205.936 244.252 204.572Q244.695 203.208 245.171 201.856Q245.648 200.503 246.157 199.162Q246.666 197.822 247.208 196.494Q247.75 195.166 248.324 193.852Q248.867 192.618 249.442 191.397Q250.016 190.177 250.62 188.971Q251.225 187.765 251.859 186.575Q252.494 185.385 253.158 184.211Q253.822 183.037 254.515 181.88Q255.209 180.723 255.931 179.584Q256.653 178.445 257.403 177.324Q258.154 176.203 258.932 175.102Q259.71 174 260.516 172.918Q261.321 171.836 262.154 170.775Q262.986 169.714 263.845 168.674Q264.704 167.634 265.588 166.616Q266.473 165.597 267.383 164.602Q268.292 163.606 269.227 162.633Q270.161 161.661 271.12 160.712Q272.078 159.763 273.06 158.838Q274.042 157.913 275.047 157.014Q276.051 156.114 277.078 155.24Q278.105 154.365 279.154 153.517Q280.203 152.669 281.272 151.847Q282.342 151.025 283.431 150.23Q284.521 149.435 285.63 148.668Q286.74 147.901 287.868 147.162Q288.996 146.423 290.143 145.712Q291.289 145.001 292.453 144.32Q293.616 143.638 294.797 142.985Q295.977 142.333 297.174 141.71Q298.37 141.088 299.582 140.495Q300.794 139.903 302.02 139.341Q303.246 138.779 304.486 138.248Q305.726 137.717 306.978 137.217Q308.231 136.717 309.496 136.249C339.931 124.712 372.297 128.467 401.242 142.604C411.581 147.654 421.179 154.132 431.727 158.813C438.511 161.824 445.669 163.456 452.989 164.531C474.172 167.644 488.601 163.228 508.131 155.779C495.97 169.582 482.226 184.079 466.863 194.34C461.517 197.911 456.122 201.458 450.463 204.519C445.329 207.297 439.934 209.74 434.938 212.755C434.333 213.12 433.929 213.554 433.512 214.115C433.986 217.4 434.276 220.672 434.53 223.98L434.658 232.33C445.838 244.856 456.967 257.561 467.384 270.729C457.488 272.575 446.767 273.917 437.218 277.013C435.389 296.914 427.273 314.708 411.721 327.674C397.939 339.164 380.56 345.863 362.507 344.119Q355.329 343.413 348.352 341.587L349.008 346.187L349.568 350.186C346.622 349.588 343.856 349.125 340.846 349.027C333.525 349.023 309.554 348.587 303.905 351.654L304.69 346.9Z"/>
	<path fill="#FED47C" transform="scale(0.292969 0.292969)" d="M403.099 224.512C406.876 222.999 411.123 222.164 415.034 220.985Q424.495 218.148 433.512 214.115C433.986 217.4 434.276 220.672 434.53 223.98L434.658 232.33C445.838 244.856 456.967 257.561 467.384 270.729C457.488 272.575 446.767 273.917 437.218 277.013C435.389 296.914 427.273 314.708 411.721 327.674C397.939 339.164 380.56 345.863 362.507 344.119Q355.329 343.413 348.352 341.587L349.008 346.187L349.568 350.186C346.622 349.588 343.856 349.125 340.846 349.027C333.525 349.023 309.554 348.587 303.905 351.654L304.69 346.9C307.868 334.828 308.971 321.908 310.95 309.571C313.378 296.544 315.356 283.438 317.842 270.411C311.37 270.466 305.418 270.522 299.725 266.865Q299.261 266.566 298.813 266.244Q298.365 265.922 297.934 265.579Q297.502 265.235 297.089 264.87Q296.675 264.505 296.28 264.119Q295.886 263.734 295.511 263.329Q295.136 262.925 294.781 262.502Q294.427 262.079 294.095 261.638Q293.762 261.198 293.452 260.742Q293.142 260.286 292.855 259.814Q292.569 259.343 292.306 258.858Q292.043 258.373 291.805 257.875Q291.567 257.378 291.354 256.869Q291.141 256.36 290.954 255.841Q290.767 255.322 290.606 254.794Q290.445 254.266 290.311 253.731Q290.177 253.196 290.07 252.655C288.911 246.833 290.271 240.942 293.587 236.054C296.84 231.258 301.689 227.822 307.472 226.983C317.969 225.46 332.558 229.34 343.65 229.952Q354.86 230.532 366.068 229.935Q377.277 229.337 388.361 227.568C393.305 226.735 398.16 225.41 403.099 224.512Z"/>
	<path fill="#FFA100" transform="scale(0.292969 0.292969)" d="M403.099 224.512C406.876 222.999 411.123 222.164 415.034 220.985Q424.495 218.148 433.512 214.115C433.986 217.4 434.276 220.672 434.53 223.98C432.228 222.285 430.801 222.115 427.984 222.497C419.113 223.699 412.191 227.267 403.099 224.512Z"/>
	<defs>
		<linearGradient id="gradient_0" gradientUnits="userSpaceOnUse" x1="321.06836" y1="310.60892" x2="326.73328" y2="349.57416">
			<stop offset="0" stop-color="#F18B05"/>
			<stop offset="1" stop-color="#FAC25A"/>
		</linearGradient>
	</defs>
	<path fill="url(#gradient_0)" transform="scale(0.292969 0.292969)" d="M310.95 309.571C321.892 325.019 330.303 335.005 348.352 341.587L349.008 346.187L349.568 350.186C346.622 349.588 343.856 349.125 340.846 349.027C333.525 349.023 309.554 348.587 303.905 351.654L304.69 346.9C307.868 334.828 308.971 321.908 310.95 309.571Z"/>
	<path fill="#FFA100" transform="scale(0.292969 0.292969)" d="M349.008 346.187L349.568 350.186C346.622 349.588 343.856 349.125 340.846 349.027L339.03 348.437C341.676 346.991 346.007 346.616 349.008 346.187Z"/>
	<path fill="#060605" transform="scale(0.292969 0.292969)" d="M395.702 232.575C400.269 232.193 405.053 233.029 409.069 235.278C414.563 238.354 418.46 243.834 420.04 249.88C421.711 256.272 420.809 263.331 417.29 268.96C413.469 275.072 407.746 278.018 400.925 279.531Q400.006 279.68 399.078 279.754Q398.15 279.827 397.219 279.824Q396.288 279.821 395.36 279.742Q394.433 279.662 393.515 279.507Q392.597 279.352 391.694 279.122Q390.792 278.893 389.912 278.589Q389.032 278.286 388.179 277.912Q387.327 277.538 386.508 277.095C380.982 274.044 377.086 268.516 375.511 262.457Q375.36 261.882 375.239 261.301Q375.117 260.719 375.024 260.133Q374.931 259.546 374.867 258.955Q374.803 258.364 374.769 257.771Q374.735 257.178 374.73 256.584Q374.725 255.99 374.749 255.396Q374.774 254.803 374.828 254.211Q374.882 253.619 374.965 253.031Q375.048 252.443 375.16 251.859Q375.273 251.276 375.414 250.699Q375.555 250.122 375.724 249.552Q375.893 248.983 376.091 248.422Q376.288 247.862 376.513 247.312Q376.738 246.762 376.99 246.224Q377.242 245.686 377.521 245.161Q377.799 244.636 378.103 244.126C382.202 237.315 388.343 234.494 395.702 232.575Z"/>
	<path fill="#FFA100" transform="scale(0.292969 0.292969)" d="M568.507 426.692Q600.185 405.248 631.313 383.015L709.241 327.615Q729.665 312.678 750.288 298.017L750.496 299.969C752.121 302.772 753.649 305.414 756.263 307.439L755.825 307.75C751.556 310.746 746.233 312.713 743.292 317.241L740.038 319.969L740.466 321.469Q743.407 324.935 746.476 328.288C745.168 329.522 743.71 330.727 742.516 332.066L736.768 329.895C735.5 331.047 734.183 332.17 732.994 333.404L734.26 335.024C736.611 338.146 739.158 341.319 740.967 344.802C742.751 347.655 744.151 350.559 745.517 353.631C741.625 363.702 737.452 373.521 731.84 382.778C713.104 413.464 686.066 447.323 649.536 456.148C638.254 458.873 624.821 459.056 613.698 455.472C609.383 459.485 604.789 463.252 600.217 466.967C606.373 479.609 609.502 492.014 610.634 506.006C610.457 524.715 606.788 543.567 592.97 557.182C583.587 566.427 573.286 569.96 560.62 572.48C559.504 597.792 544.863 619.336 527.528 636.769C522.303 639.149 517.527 642.599 512.271 645.033C497.274 651.976 478.807 653.715 462.696 650.343C435.231 644.593 414.49 625.271 399.616 602.353C414.893 596.445 428.482 587.063 441.488 577.25C446.932 573.143 451.892 568.479 458.019 565.375C451.626 553.173 444.861 541.23 438.695 528.898C417.579 539.441 394.796 546.73 372.211 553.382C370.774 545.608 369.752 537.81 370.532 529.904C372.527 509.689 382.014 492.084 397.759 479.269C417.151 463.485 439.737 458.984 464.219 461.6Q468.154 454.017 471.83 446.305Q476.373 437.641 482.317 429.871C491.112 418.606 503.188 411.06 517.506 409.366C537.006 407.06 553.6 414.894 568.507 426.692ZM740.967 344.802C712.344 370.113 683.095 394.759 654.213 419.781C640.64 431.541 626.625 442.999 613.698 455.472C624.821 459.056 638.254 458.873 649.536 456.148C686.066 447.323 713.104 413.464 731.84 382.778C737.452 373.521 741.625 363.702 745.517 353.631C744.151 350.559 742.751 347.655 740.967 344.802Z"/>
	<path fill="#8B1702" transform="scale(0.292969 0.292969)" d="M578.208 451.298C580.311 452.131 581.128 454.603 583.411 454.705L583.592 455.477C579.467 463.262 553.211 479.72 544.61 486.056L543.808 486.353C541.385 485.042 540.598 482.704 539.534 480.323C545.525 476.887 551.103 472.171 556.597 467.998C563.835 462.5 571.226 457.118 578.208 451.298Z"/>
	<path fill="#8B1702" transform="scale(0.292969 0.292969)" d="M732.994 333.404L734.26 335.024C725.125 339.506 717.161 346.815 709.047 352.924Q691.14 366.288 673.083 379.448L610.674 423.966C600.465 431.211 589.851 438.13 580.034 445.899C577.984 447.522 577.689 450.12 575.628 451.708C565.917 459.19 556.055 466.943 545.966 473.87C540.859 477.377 535.113 479.909 530.15 483.612C522.229 489.523 515.046 497.192 506.166 501.635C514.643 493.567 528.393 482.783 538.409 477.06C537.827 474.976 537.449 472.847 537.032 470.726C541.54 467.601 546.276 464.815 550.766 461.643C557.802 456.671 564.493 451.224 571.193 445.814L575.713 448.239C611.432 421.158 648.517 395.661 684.876 369.428Q700.935 357.97 716.651 346.046C722.07 341.912 727.269 337.039 732.994 333.404Z"/>
	<path fill="#8B1702" transform="scale(0.292969 0.292969)" d="M544.703 486.825C551.535 483.626 578.559 463.261 583.909 458.016C585.949 466.342 586.918 474.575 582.239 482.326Q581.935 482.823 581.607 483.304Q581.278 483.785 580.925 484.248Q580.572 484.712 580.196 485.156Q579.82 485.601 579.422 486.026Q579.024 486.451 578.604 486.855Q578.185 487.259 577.745 487.642Q577.306 488.024 576.847 488.383Q576.388 488.742 575.912 489.077Q575.436 489.413 574.943 489.723Q574.45 490.033 573.942 490.318Q573.434 490.603 572.912 490.862Q572.39 491.12 571.856 491.352Q571.321 491.583 570.776 491.787Q570.23 491.991 569.675 492.167Q569.12 492.343 568.556 492.49Q567.992 492.637 567.422 492.755C561.473 494.012 555.497 492.844 549.997 490.467L544.703 486.825Z"/>
	<path fill="#FED47C" transform="scale(0.292969 0.292969)" d="M477.554 515.439C483.181 504.95 489.985 480.584 499.436 474.109C500.578 473.327 501.303 473.114 502.648 473.305C505.805 477.467 503.537 488.524 503.518 493.704C503.516 497.701 503.186 501.733 502.963 505.724C507.751 503.166 513.129 501.442 518.157 499.395Q528.92 495.061 539.108 489.508C540.941 488.496 542.664 487.358 544.703 486.825L549.997 490.467C542.059 522.151 519.597 536.73 493.094 552.645C482.914 558.758 470.304 566.09 458.019 565.375C451.626 553.173 444.861 541.23 438.695 528.898C438.461 527.76 438.343 527.462 438.727 526.327C447.575 522.198 467.057 518.472 477.554 515.439Z"/>
	<defs>
		<linearGradient id="gradient_1" gradientUnits="userSpaceOnUse" x1="743.60785" y1="439.82181" x2="380.36209" y2="411.29364">
			<stop offset="0" stop-color="#FF8F01"/>
			<stop offset="1" stop-color="#FFB103"/>
		</linearGradient>
	</defs>
	<path fill="url(#gradient_1)" transform="scale(0.292969 0.292969)" d="M568.507 426.692Q600.185 405.248 631.313 383.015L709.241 327.615Q729.665 312.678 750.288 298.017L750.496 299.969C752.121 302.772 753.649 305.414 756.263 307.439L755.825 307.75C751.556 310.746 746.233 312.713 743.292 317.241L740.038 319.969L740.466 321.469C732.562 326.158 725.227 331.972 717.829 337.41L686.064 360.561C653.505 384.062 620.444 407.011 588.214 430.952L554.989 456.074C549.253 460.386 543.105 465.861 536.647 468.94C533.512 469.651 506.007 490.534 503.518 493.704C503.537 488.524 505.805 477.467 502.648 473.305C501.303 473.114 500.578 473.327 499.436 474.109C489.985 480.584 483.181 504.95 477.554 515.439C467.057 518.472 447.575 522.198 438.727 526.327C438.343 527.462 438.461 527.76 438.695 528.898C417.579 539.441 394.796 546.73 372.211 553.382C370.774 545.608 369.752 537.81 370.532 529.904C372.527 509.689 382.014 492.084 397.759 479.269C417.151 463.485 439.737 458.984 464.219 461.6Q468.154 454.017 471.83 446.305Q476.373 437.641 482.317 429.871C491.112 418.606 503.188 411.06 517.506 409.366C537.006 407.06 553.6 414.894 568.507 426.692Z"/>
	<path fill="#8B1702" transform="scale(0.292969 0.292969)" d="M568.986 443.524C608.394 415.862 647.295 387.303 686.209 358.947L721.564 333.176C727.554 328.806 733.63 323.662 740.038 319.969L740.466 321.469C732.562 326.158 725.227 331.972 717.829 337.41L686.064 360.561C653.505 384.062 620.444 407.011 588.214 430.952L554.989 456.074C549.253 460.386 543.105 465.861 536.647 468.94C537.448 467.566 537.561 465.79 537.881 464.245C539.016 458.762 541.402 453.993 545.531 450.114C552.375 443.682 560.139 443.183 568.986 443.524Z"/>
	<path fill="#C88623" transform="scale(0.292969 0.292969)" d="M518.181 648.746C537.508 644.457 557.681 636.621 574.747 626.517C582.682 621.819 590.237 616.354 597.88 611.197Q612.558 601.179 627.843 592.115C652.517 577.46 678.047 564.785 703.936 552.465C714.63 547.376 725.925 539.46 737.753 537.576C748.468 535.869 760.281 539.16 769.309 544.932C776.669 549.637 782.072 556.068 785.733 563.973C790.632 574.551 793.226 586.692 796.475 597.882Q804.655 625.271 812.366 652.795L855.253 802.329C844.905 805.79 834.349 808.441 823.812 811.246C818.021 812.787 811.714 814.156 806.188 816.431C803.937 813.347 802.332 808.963 800.617 805.497Q795.013 794.114 789.255 782.809L761.604 728.054C753.077 710.955 744.475 693.766 738.025 675.75C735.35 668.278 733.348 660.555 731.266 652.901C716.577 662.245 701.847 672.226 686.601 680.607C671.529 687.467 657.842 696.996 643.242 704.765C593.153 731.418 537.021 754.294 479.243 753.002Q469.32 752.708 459.458 751.575Q449.596 750.441 439.865 748.475C435.248 747.514 408.661 739.778 406.434 739.943C411.261 735.528 416.825 731.74 422.023 727.76Q435.541 717.445 448.906 706.933Q484.47 678.943 518.181 648.746Z"/>
	<path fill="#D15800" transform="scale(0.292969 0.292969)" d="M686.601 680.607C678.781 697.063 671.294 713.909 661.793 729.482Q660.236 732.052 658.625 734.59Q657.015 737.127 655.351 739.629Q653.687 742.132 651.971 744.599Q650.255 747.066 648.487 749.496Q646.719 751.927 644.9 754.319Q643.082 756.712 641.213 759.065Q639.344 761.419 637.427 763.733Q635.509 766.046 633.543 768.319Q631.576 770.592 629.563 772.823Q627.549 775.054 625.489 777.242Q623.429 779.43 621.323 781.574Q619.217 783.718 617.067 785.817Q614.916 787.916 612.722 789.97Q610.528 792.023 608.29 794.03Q606.053 796.036 603.774 797.996Q601.496 799.955 599.176 801.865Q596.856 803.776 594.497 805.637Q592.138 807.499 589.74 809.31Q587.341 811.121 584.906 812.882Q582.47 814.642 579.998 816.351Q577.525 818.059 575.018 819.715Q572.51 821.371 569.968 822.974Q567.426 824.577 564.85 826.126Q562.275 827.675 559.668 829.169Q557.06 830.664 554.422 832.103Q551.784 833.542 549.116 834.925Q546.448 836.308 543.751 837.635Q541.055 838.962 538.331 840.231Q535.607 841.501 532.857 842.713Q530.107 843.924 527.332 845.078Q524.557 846.232 521.758 847.326Q518.959 848.421 516.138 849.457Q512.97 850.605 509.774 851.674Q506.578 852.744 503.357 853.734Q500.136 854.724 496.892 855.635Q493.647 856.545 490.381 857.375Q487.115 858.205 483.83 858.954Q480.544 859.704 477.241 860.371Q473.938 861.039 470.62 861.625Q467.301 862.211 463.969 862.715Q460.637 863.219 457.294 863.641Q453.951 864.062 450.598 864.401Q447.245 864.74 443.885 864.996Q440.525 865.251 437.159 865.424Q433.794 865.597 430.425 865.687Q427.057 865.777 423.687 865.783Q420.317 865.79 416.948 865.713Q413.579 865.636 410.213 865.477Q406.847 865.317 403.486 865.074Q400.125 864.831 396.771 864.505Q393.417 864.179 390.072 863.771Q386.727 863.362 383.393 862.871Q380.059 862.38 376.738 861.807Q373.418 861.234 370.112 860.579Q366.806 859.924 363.518 859.187Q360.23 858.451 356.96 857.633Q353.691 856.816 350.443 855.918Q347.195 855.02 343.97 854.042Q340.745 853.065 337.546 852.008Q334.346 850.95 331.173 849.815Q328.001 848.679 324.857 847.465Q321.713 846.251 318.601 844.96Q315.488 843.669 312.408 842.302Q309.328 840.934 306.283 839.491C207.225 792.412 151.186 690.744 116.008 591.562C86.1227 507.301 70.2589 418.404 62.0997 329.582C59.6716 303.149 56.6307 275.357 59.3365 248.878C63.9791 273.579 68.5937 298.414 75.0121 322.734Q81.4609 346.861 89.2747 370.581Q97.0886 394.302 106.242 417.538C146.489 520.817 208.287 624.058 301.509 687.704C323.114 702.455 369.071 729.035 393.952 734.818C397.99 736.832 402.216 738.357 406.434 739.943C408.661 739.778 435.248 747.514 439.865 748.475Q449.596 750.441 459.458 751.575Q469.32 752.708 479.243 753.002C537.021 754.294 593.153 731.418 643.242 704.765C657.842 696.996 671.529 687.467 686.601 680.607Z"/>
</svg>
