<?xml version="1.0" encoding="utf-8" ?>
<svg xmlns="http://www.w3.org/2000/svg" xmlns:xlink="http://www.w3.org/1999/xlink" width="1024" height="1024">
	<path fill="#0F2F48" d="M842.915 140.147C844.237 140.002 845.667 139.964 846.975 140.215C849.972 140.792 853.079 142.512 854.717 145.15C856.787 148.485 855.644 152.018 854.851 155.577C851.822 169.172 846.475 182.378 842.59 195.764L833.151 228.609C831.638 233.874 830.438 239.85 828.213 244.841C827.127 247.277 825.078 249.605 822.775 250.961C820.734 252.162 818.31 252.653 816.003 251.993C807.522 249.569 798.022 229.042 793.625 221.31C784.89 228.094 776.883 235.798 768.607 243.127L724.431 281.995L569.029 417.372L546.634 436.795C539.188 443.343 527.555 455.913 518.587 459.414C515.65 459.356 512.633 458.018 509.993 456.789C498.994 451.668 488.673 444.986 478.096 439.055C459.83 428.813 441.261 418.818 423.465 407.772C416.648 413.666 409.794 418.35 401.037 420.858C386.691 424.967 374.435 421.398 361.758 414.436C351.856 424.616 341.537 434.452 331.459 444.463L266.406 509.068L232.206 543.481C226.245 549.479 220.395 555.838 214.037 561.405C211.471 563.652 209.373 565.556 205.794 565.791C203.018 565.973 200.324 564.815 198.273 562.992C196.13 561.086 194.469 558.339 194.482 555.411C194.512 549.091 200.545 543.894 204.644 539.75L306.906 438.244L331.28 414.027C336.494 408.848 341.722 403.17 347.575 398.724C343.519 390.142 341.691 381.287 342.965 371.824C344.538 360.145 350.357 349.235 359.805 342.057Q360.768 341.339 361.765 340.669Q362.762 340 363.791 339.38Q364.82 338.761 365.878 338.193Q366.936 337.625 368.021 337.11Q369.106 336.596 370.216 336.135Q371.325 335.675 372.456 335.27Q373.586 334.865 374.735 334.516Q375.885 334.167 377.05 333.876Q378.215 333.585 379.393 333.351Q380.571 333.118 381.76 332.943Q382.948 332.768 384.143 332.653Q385.339 332.537 386.538 332.48Q387.738 332.424 388.939 332.427Q390.14 332.43 391.34 332.492Q392.539 332.554 393.734 332.676Q394.929 332.797 396.116 332.978C408.5 334.817 418.444 341.212 425.763 351.306C433.985 362.645 435.741 375.731 433.492 389.3C461.005 404.216 488.625 419.409 515.22 435.903C546.272 407.964 578.145 380.852 609.64 353.41L779.929 204.4C773.029 199.485 751.575 186.515 749.742 178.718C749.066 175.845 749.486 172.566 751.083 170.058C752.146 168.388 753.45 167.435 755.22 166.585C763.604 162.56 773.625 160.579 782.528 157.791C802.339 151.589 822.54 144.176 842.915 140.147Z"/>
	<path fill="#F07245" d="M821.919 190.382C822.351 194.976 817.052 208.591 815.405 213.847C814.473 212.455 813.639 211.001 812.784 209.562C811.308 206.83 809.663 204.206 808.029 201.568C812.758 197.939 817.424 194.3 821.919 190.382Z"/>
	<path fill="#F07245" d="M821.299 168.103L821.758 168.677C814.324 176.349 805.343 183.174 797.133 190.027C794.132 188.12 791.189 186.104 788.222 184.143L781.284 179.567C794.705 175.812 808 172.308 821.299 168.103Z"/>
	<path fill="#EC8C8F" d="M383.579 354.552C388.811 354.084 393.854 354.093 398.795 356.163Q399.334 356.387 399.862 356.637Q400.389 356.888 400.902 357.165Q401.416 357.443 401.915 357.746Q402.414 358.049 402.897 358.377Q403.38 358.705 403.845 359.058Q404.31 359.41 404.757 359.786Q405.204 360.162 405.631 360.56Q406.058 360.958 406.465 361.377Q406.871 361.796 407.255 362.236Q407.639 362.675 408.001 363.133Q408.362 363.592 408.7 364.068Q409.037 364.545 409.35 365.037Q409.663 365.53 409.95 366.039Q410.238 366.547 410.499 367.069Q410.76 367.591 410.994 368.126Q411.228 368.661 411.434 369.207Q411.642 369.756 411.821 370.315Q412.001 370.874 412.153 371.441Q412.304 372.008 412.427 372.582Q412.55 373.156 412.644 373.736Q412.739 374.315 412.804 374.898Q412.869 375.482 412.904 376.068Q412.94 376.654 412.946 377.241Q412.953 377.828 412.93 378.414Q412.907 379.001 412.854 379.586Q412.802 380.17 412.721 380.752Q412.639 381.333 412.528 381.91Q412.418 382.486 412.279 383.056Q412.139 383.627 411.972 384.189Q411.804 384.752 411.609 385.305Q411.413 385.859 411.19 386.402Q410.967 386.945 410.717 387.476C407.08 395.1 400.729 398.586 393.131 401.234C388.105 402.216 382.038 401.175 377.529 398.87Q376.969 398.582 376.425 398.266Q375.881 397.95 375.354 397.607Q374.826 397.264 374.317 396.895Q373.807 396.525 373.318 396.13Q372.828 395.735 372.359 395.316Q371.889 394.897 371.442 394.454Q370.995 394.012 370.571 393.547Q370.146 393.082 369.746 392.597Q369.346 392.111 368.971 391.606Q368.596 391.1 368.248 390.577Q367.899 390.053 367.577 389.512Q367.256 388.971 366.962 388.415Q366.668 387.858 366.403 387.288Q366.138 386.717 365.902 386.134Q365.666 385.55 365.46 384.956Q365.254 384.361 365.079 383.757Q364.92 383.193 364.789 382.622Q364.658 382.051 364.556 381.474Q364.454 380.897 364.38 380.316Q364.307 379.735 364.263 379.151Q364.219 378.566 364.204 377.981Q364.188 377.395 364.203 376.809Q364.217 376.224 364.26 375.639Q364.304 375.055 364.376 374.474Q364.448 373.892 364.55 373.315Q364.651 372.738 364.781 372.167Q364.911 371.596 365.07 371.032Q365.228 370.468 365.414 369.912Q365.6 369.357 365.814 368.811Q366.028 368.266 366.269 367.732Q366.509 367.197 366.776 366.676Q367.043 366.155 367.336 365.647C371.035 359.304 376.77 356.4 383.579 354.552Z"/>
	<path fill="#0F2F48" d="M138.922 214.542C141.91 214.802 144.824 215.542 147.045 217.685C148.214 218.813 149.048 220.254 149.62 221.764C150.355 223.705 150.639 225.807 150.747 227.87C151.121 235.038 150.85 242.328 150.84 249.51L150.771 289.186L150.589 408.095L151.047 852.512L181.28 852.391L181.111 700.158L181.054 655.271C181.041 645.304 180.715 635.259 181.642 625.326C182.083 624.758 182.518 624.184 182.981 623.635C185.969 620.099 190.636 618.844 195.11 618.538C209.689 617.541 224.885 618.733 239.524 618.695C251.072 618.665 263.497 617.149 274.935 618.498C278.001 618.86 281.392 619.758 283.7 621.931C285.678 623.794 286.575 626.395 286.827 629.043C287.579 636.942 287.01 645.219 286.987 653.164L286.933 698.808L287.011 852.559L318.51 852.572L318.312 658.757L318.309 601.957C318.256 591.163 317.589 580.22 318.29 569.447C318.545 565.542 318.832 561.358 321.455 558.231C324.385 554.738 329.571 554.315 333.846 554.01C342.12 553.418 350.53 554.363 358.83 554.286L394.732 554.032C400.939 553.997 407.634 553.467 413.788 554.189C416.732 554.534 420.364 555.275 422.595 557.389C424.896 559.569 425.721 562.497 426.007 565.55C427.08 577.03 426.443 588.872 426.356 600.402L426.085 656.255L426.149 852.841L458.041 852.85L458.049 623.793L457.947 555.237C457.861 540.923 457.126 526.451 458.085 512.166C458.312 508.775 458.673 505.432 461.011 502.769C464.138 499.206 470.286 498.716 474.782 498.539C488.718 497.988 502.739 499.105 516.679 499.056C527.33 499.019 544.337 497.657 554.181 498.867C557.315 499.253 561.489 500.203 563.809 502.518C566.499 505.202 566.751 509.118 566.965 512.701C567.662 524.378 566.89 536.386 566.9 548.104L567.01 623.261L567.471 852.791C578.404 853.198 589.41 852.858 600.351 852.797Q599.556 716.778 600.387 580.762L600.231 487.512C600.115 469.474 599.127 451.225 600.216 433.218C600.434 429.611 600.891 426.269 603.504 423.532C605.237 421.717 607.42 420.565 609.877 420.113C619.025 418.429 629.24 419.53 638.547 419.556L692.04 419.628C695.914 419.809 699.623 420.679 702.41 423.54C704.499 425.684 705.521 428.585 705.802 431.523C706.244 436.151 705.959 441.027 705.95 445.676L705.928 470.927L705.89 553.743L705.832 744.056C705.799 780.22 705.303 816.444 705.877 852.598L740.008 852.566L740.061 447.23L740.052 367.458C739.985 353.239 737.783 322.393 741.313 310.461C741.455 310.291 741.592 310.117 741.74 309.952C744.96 306.348 748.508 305.149 753.293 304.879C768.573 304.015 785.835 304.974 801.329 304.987C812.23 304.996 823.858 303.514 834.627 305.293C837.69 305.799 840.196 306.905 842.484 309.035C845.188 311.552 846.401 314.462 846.754 318.112C847.323 324.015 846.955 330.247 846.949 336.182L846.913 368.252L846.854 472.555L846.82 720.34C846.815 764.377 846.174 808.503 846.957 852.526Q872.039 852.587 897.12 852.373C906.326 852.281 916.02 851.387 925.154 852.305C928.125 852.604 931.239 853.083 933.6 855.057C935.736 856.843 936.894 859.487 937.029 862.243C937.167 865.04 936.435 868.239 934.365 870.241C930.882 873.609 925.869 874.231 921.257 874.44C914.102 874.763 906.826 873.908 899.651 873.883L849.122 874.048L674.793 874.068L151.044 874.073Q151.125 877.99 151.154 881.907C151.149 886.339 150.559 890.68 147.16 893.863Q146.737 894.259 146.276 894.612Q145.816 894.965 145.323 895.271Q144.83 895.577 144.31 895.832Q143.789 896.088 143.246 896.292Q142.703 896.495 142.143 896.644Q141.582 896.793 141.01 896.886Q140.437 896.979 139.858 897.015Q139.28 897.052 138.7 897.031C135.967 896.909 133.374 895.793 131.531 893.751C127.233 888.987 128.367 880.456 128.47 874.474C119.51 874.521 97.2934 877.096 90.6355 870.58C88.569 868.558 87.7743 865.816 87.7428 862.981C87.7131 860.318 88.4908 857.769 90.4505 855.891C96.4021 850.189 120.276 852.492 128.793 852.529C128.357 842.203 128.68 831.728 128.679 821.388L128.683 764.361L128.657 592.209L128.573 350.962C128.551 310.506 127.731 269.935 128.521 229.495C128.583 226.341 128.802 223.037 130.368 220.22C132.31 216.726 135.291 215.609 138.922 214.542Z"/>
	<path fill="#F1F1E8" d="M218.444 640.735L265.507 640.506L265.51 852.511L250.25 852.51L202.987 852.504L202.971 640.992Q210.711 641.056 218.444 640.735Z"/>
	<path fill="#F07245" d="M339.967 575.981L404.527 575.972L404.501 852.957L340.014 852.551L339.967 575.981Z"/>
	<path fill="#F09F58" d="M479.49 520.003L546.031 520.002L546.014 745.656L546.035 814.251C546.072 826.894 546.904 839.659 545.872 852.274C539.781 853.462 531.711 852.564 525.447 852.557L479.784 852.49C479.423 838.602 479.718 824.639 479.718 810.744L479.722 733.303L479.49 520.003Z"/>
	<path fill="#F07245" d="M621.492 440.999C642.344 440.725 663.368 441.27 684.228 441.512C684.949 484.624 684.277 527.86 684.277 570.983L684.322 852.412C675.99 853.341 667.551 852.644 659.183 852.555L621.825 852.497C620.423 837.504 621.473 821.925 621.505 806.874L621.509 720.609L621.492 440.999Z"/>
	<path fill="#F1F1E8" d="M777.475 326.733L824.518 326.707L824.313 852.774L808.75 852.774L761.983 853.031L761.669 326.997Q769.575 327.056 777.475 326.733Z"/>
</svg>
