<?xml version="1.0" encoding="utf-8" ?>
<svg xmlns="http://www.w3.org/2000/svg" xmlns:xlink="http://www.w3.org/1999/xlink" width="300" height="300">
	<path fill="#390800" transform="scale(0.292969 0.292969)" d="M152.061 669.022C155.757 669.733 159.012 670.787 161.977 673.164C159.956 675.057 158.886 680.13 158.077 682.766C155.332 691.71 153.148 700.852 150.631 709.866L136.783 758.426C135.038 764.584 127.004 790.643 126.824 794.901C127.861 796.031 128.85 796.466 130.221 797.057C124.856 796.389 119.999 796.856 114.581 795.624C117.854 785.169 120.513 774.451 123.581 763.924L138.646 713.163C142.86 698.457 146.494 683.27 152.061 669.022Z"/>
	<path fill="#390800" transform="scale(0.292969 0.292969)" d="M836.375 907.597C839.061 911.537 841.045 915.664 842.968 920.016C829.83 926.383 815.68 931.318 802.175 936.928C776.613 947.548 751.184 958.341 725.325 968.231C723.848 963.825 722.381 959.454 721.266 954.938C728.804 951.672 736.569 948.877 744.179 945.776L798.764 923.58C811.289 918.491 823.68 912.072 836.375 907.597Z"/>
	<path fill="#FCAB09" transform="scale(0.292969 0.292969)" d="M690.839 859.244C708.728 850.819 727.367 842.98 746.005 836.375C750.808 854.052 754.256 872.064 759.084 889.744C749.342 893.204 739.776 897.547 730.216 901.495C722.701 904.598 714.766 907.388 707.486 910.959C702.111 893.651 696.78 876.369 690.839 859.244Z"/>
	<path fill="#FCAB09" transform="scale(0.292969 0.292969)" d="M203.521 690.183Q228.977 699.655 254.635 708.564Q248.253 726.634 242.262 744.838C240.033 751.529 238.249 759.086 234.931 765.3C230.203 762.352 224.146 760.459 218.973 758.394Q205.342 752.818 191.516 747.746C191.201 747.163 191.007 746.63 190.829 745.988C186.55 730.569 190.885 717.233 197.287 703.158C199.269 698.802 201.148 694.343 203.521 690.183Z"/>
	<path fill="#F49502" transform="scale(0.292969 0.292969)" d="M759.084 889.744C780.865 885.124 804.737 884.405 824.218 896.905Q827.633 899.118 830.688 901.805Q833.744 904.493 836.375 907.597C823.68 912.072 811.289 918.491 798.764 923.58L744.179 945.776C736.569 948.877 728.804 951.672 721.266 954.938C717.198 940.15 711.989 925.628 707.486 910.959C714.766 907.388 722.701 904.598 730.216 901.495C739.776 897.547 749.342 893.204 759.084 889.744Z"/>
	<path fill="#F49502" transform="scale(0.292969 0.292969)" d="M130.221 797.057C128.85 796.466 127.861 796.031 126.824 794.901C127.004 790.643 135.038 764.584 136.783 758.426L150.631 709.866C153.148 700.852 155.332 691.71 158.077 682.766C158.886 680.13 159.956 675.057 161.977 673.164C168.241 676.401 175.149 678.498 181.75 680.955Q192.862 685.035 203.521 690.183C201.148 694.343 199.269 698.802 197.287 703.158C190.885 717.233 186.55 730.569 190.829 745.988C191.007 746.63 191.201 747.163 191.516 747.746C191.394 747.869 191.26 747.981 191.152 748.116C190.628 748.772 190.535 749.181 190.279 749.944C186.044 762.543 163.876 788.425 151.781 794.233C144.361 797.796 138.294 797.759 130.221 797.057Z"/>
	<path fill="#FCAB09" transform="scale(0.292969 0.292969)" d="M329.907 395.599C344.257 402.975 358.778 409.975 372.392 418.695C366.324 425.07 362.205 435.366 358.101 443.208Q359.094 444.334 360.003 445.528Q360.913 446.722 361.734 447.978Q362.555 449.234 363.285 450.546Q364.014 451.858 364.647 453.219Q365.28 454.58 365.814 455.983Q366.348 457.385 366.78 458.823Q367.212 460.26 367.54 461.725Q367.868 463.19 368.09 464.674C369.087 471.423 368.451 480.506 364.139 486.068C362.917 487.645 361.308 488.796 359.279 488.983C355.697 489.315 352.824 487.109 350.253 484.939C346.551 488.615 342.478 491.945 337.662 494.038Q336.866 494.378 336.055 494.678Q335.244 494.979 334.419 495.24Q333.594 495.501 332.757 495.721Q331.92 495.942 331.074 496.121Q330.227 496.301 329.373 496.439Q328.519 496.577 327.659 496.674Q326.799 496.77 325.936 496.825Q325.072 496.879 324.207 496.892Q323.342 496.904 322.477 496.874Q321.612 496.845 320.75 496.773Q319.887 496.702 319.03 496.588Q318.172 496.475 317.321 496.32Q316.469 496.165 315.627 495.968Q314.784 495.772 313.952 495.535Q313.12 495.298 312.3 495.021Q311.48 494.744 310.675 494.427Q309.825 494.098 308.992 493.728Q308.159 493.357 307.345 492.945Q306.532 492.534 305.74 492.082Q304.948 491.631 304.18 491.14Q303.411 490.65 302.668 490.122Q301.925 489.593 301.209 489.029Q300.493 488.465 299.806 487.865Q299.12 487.266 298.463 486.633Q297.807 486 297.183 485.335Q296.559 484.671 295.969 483.976Q295.379 483.281 294.825 482.557Q294.27 481.834 293.752 481.084Q293.234 480.334 292.754 479.559Q292.274 478.784 291.833 477.986Q291.392 477.188 290.992 476.369Q290.591 475.55 290.232 474.712C286.286 465.42 286.124 454.149 289.984 444.799C294.781 433.181 304.042 427.254 315.171 422.532C320.579 413.954 325.013 404.503 329.907 395.599Z"/>
	<path fill="#FCAB09" transform="scale(0.292969 0.292969)" d="M831.394 368.616L832.135 368.074C842.166 360.637 849.965 353.055 863.496 354.92C872.709 356.189 879.681 362.194 884.995 369.456C891.586 378.462 896.137 389.693 894.13 401.001C892.384 410.836 886.023 418.612 877.902 424.08C867.359 431.178 857.648 432.664 845.254 432.516C835.347 438.504 824.841 445.85 814.345 450.552C805.365 438.115 797.347 424.233 789.611 410.974C799.141 405.565 808.88 400.358 818.109 394.453L817.497 388.8C813.981 384.475 811.344 380.583 811.992 374.679Q812.08 373.871 812.25 373.077Q812.421 372.282 812.672 371.509Q812.922 370.736 813.251 369.993Q813.579 369.25 813.982 368.544Q814.385 367.839 814.858 367.178Q815.331 366.517 815.869 365.908Q816.406 365.299 817.004 364.748Q817.601 364.198 818.252 363.711C821.739 361.126 826.374 360.2 830.625 360.934C832.423 361.245 834.11 361.835 835.804 362.495C834.412 364.614 833.053 366.689 831.394 368.616Z"/>
	<path fill="#390800" transform="scale(0.292969 0.292969)" d="M574.861 273.117C575.094 272.024 575.342 271.007 575.265 269.88C575.211 269.091 574.927 268.629 574.306 268.104C572.39 266.484 568.492 265.099 566.213 263.732Q562.067 261.243 558.175 258.375Q554.282 255.506 550.678 252.283C530.099 234.205 515.524 208.397 513.888 180.732C512.272 153.397 523.794 126.523 541.868 106.422C563.685 82.1591 591.591 69.8668 623.993 68.2473C601.568 89.2969 588.291 108.462 581.01 138.795C579.18 146.422 578.603 154.439 576.621 161.961C562.664 166.725 551.544 172.878 544.856 186.607Q544.351 187.652 543.897 188.72Q543.444 189.788 543.044 190.878Q542.644 191.967 542.298 193.075Q541.952 194.182 541.661 195.306Q541.37 196.429 541.134 197.565Q540.898 198.702 540.719 199.848Q540.54 200.995 540.417 202.149Q540.295 203.303 540.229 204.461Q540.163 205.62 540.154 206.78Q540.146 207.941 540.194 209.1Q540.243 210.259 540.348 211.415Q540.454 212.571 540.616 213.72Q540.778 214.869 540.997 216.009Q541.215 217.148 541.49 218.276Q541.764 219.403 542.094 220.516Q542.423 221.629 542.807 222.724C546.935 234.557 555.265 244.535 566.663 249.898C569.991 251.464 574.758 253.368 578.442 253.535C578.017 260.093 577.564 267.026 574.861 273.117Z"/>
	<path fill="#390800" transform="scale(0.292969 0.292969)" d="M623.993 68.2473C635.181 65.1272 653.37 69.7582 664.119 73.381C670.551 75.1945 677.093 76.6377 683.394 78.8866C703.963 86.2277 723.853 99.309 738.91 115.125C733.531 121.602 727.26 126.616 720.403 131.442C717.153 133.73 711.82 136.535 709.374 139.535C702.366 144.733 693.935 149.083 685.943 152.486C659.466 163.757 632.702 165.919 604.327 163.362C602.722 162.477 601.338 163.004 599.669 161.591L599.305 162.248L598.524 162.361L598.945 162.948C598.657 162.774 598.392 162.552 598.079 162.426C594.973 161.177 580.747 162.055 576.621 161.961C578.603 154.439 579.18 146.422 581.01 138.795C588.291 108.462 601.568 89.2969 623.993 68.2473Z"/>
	<path fill="#F49502" transform="scale(0.292969 0.292969)" d="M623.993 68.2473C635.181 65.1272 653.37 69.7582 664.119 73.381C634.303 88.1823 616.412 108.963 605.698 140.512C603.336 147.47 601.689 154.542 599.669 161.591L599.305 162.248L598.524 162.361L598.945 162.948C598.657 162.774 598.392 162.552 598.079 162.426C594.973 161.177 580.747 162.055 576.621 161.961C578.603 154.439 579.18 146.422 581.01 138.795C588.291 108.462 601.568 89.2969 623.993 68.2473Z"/>
	<path fill="#417E90" transform="scale(0.292969 0.292969)" d="M430.626 619.704C434.342 624.066 437.681 628.73 441.549 632.962C453.804 646.374 469.748 656.161 487.558 660.034C494.526 661.549 501.761 661.079 508.592 663.333C500.752 675.797 491.504 687.744 482.901 699.717L449.677 746.885L421.405 787.154C415.97 794.841 410.669 803.385 404.058 810.108C399.464 814.779 393.634 817.748 387.284 819.227C379.268 821.095 371.094 820.577 363.186 818.44C351.439 815.266 339.935 809.26 328.745 804.459L277.836 783.18C267.619 778.936 243.955 771.137 235.671 765.819C235.418 765.656 235.17 765.484 234.931 765.3C238.249 759.086 240.033 751.529 242.262 744.838Q248.253 726.634 254.635 708.564C268.418 713.026 281.92 718.408 295.595 723.194L359.7 745.234C368.893 729.437 377.543 713.28 386.492 697.341L408.393 659.078C415.756 645.934 422.887 632.631 430.626 619.704Z"/>
	<path fill="#FCAB09" transform="scale(0.292969 0.292969)" d="M709.374 139.535C718.316 157.951 722.758 177.078 725.036 197.323C725.86 204.644 725.74 212.215 727.357 219.418C731.577 223.422 743.197 232.369 743.515 238.057C742.843 239.551 742.271 240.238 740.732 240.886C735.024 243.289 725.8 242.807 719.584 243.146C711.199 265.637 699.067 284.108 676.6 294.481C661.825 301.303 646.583 302.248 630.727 299.205Q627.796 316.651 623.388 333.783C609.886 328.481 596.609 322.644 583.239 317.024C576.269 314.094 569.162 311.479 562.228 308.473C565.982 296.514 571.422 285.255 574.861 273.117C577.564 267.026 578.017 260.093 578.442 253.535C574.758 253.368 569.991 251.464 566.663 249.898C555.265 244.535 546.935 234.557 542.807 222.724Q542.423 221.629 542.094 220.516Q541.764 219.403 541.49 218.276Q541.215 217.148 540.997 216.009Q540.778 214.869 540.616 213.72Q540.454 212.571 540.348 211.415Q540.243 210.259 540.194 209.1Q540.146 207.941 540.154 206.78Q540.163 205.62 540.229 204.461Q540.295 203.303 540.417 202.149Q540.54 200.995 540.719 199.848Q540.898 198.702 541.134 197.565Q541.37 196.429 541.661 195.306Q541.952 194.182 542.298 193.075Q542.644 191.967 543.044 190.878Q543.444 189.788 543.897 188.72Q544.351 187.652 544.856 186.607C551.544 172.878 562.664 166.725 576.621 161.961C580.747 162.055 594.973 161.177 598.079 162.426C598.392 162.552 598.657 162.774 598.945 162.948L598.524 162.361L599.305 162.248L599.669 161.591C601.338 163.004 602.722 162.477 604.327 163.362C632.702 165.919 659.466 163.757 685.943 152.486C693.935 149.083 702.366 144.733 709.374 139.535Z"/>
	<path fill="#390800" transform="scale(0.292969 0.292969)" d="M687.26 186.51C688.562 186.461 689.952 186.447 691.239 186.652C694.281 187.135 697.379 188.862 699.062 191.485Q699.334 191.904 699.561 192.348Q699.788 192.793 699.968 193.258Q700.147 193.724 700.278 194.205Q700.409 194.687 700.489 195.18Q700.569 195.672 700.598 196.17Q700.627 196.669 700.604 197.167Q700.581 197.666 700.507 198.159Q700.433 198.653 700.308 199.136C699.217 203.44 696.323 205.403 692.693 207.426C691.035 207.565 689.199 207.501 687.586 207.072C684.717 206.307 682.184 204.499 680.787 201.845Q680.552 201.392 680.362 200.919Q680.173 200.445 680.031 199.955Q679.89 199.465 679.797 198.964Q679.705 198.462 679.662 197.954Q679.62 197.445 679.628 196.935Q679.636 196.425 679.695 195.919Q679.753 195.412 679.862 194.914Q679.97 194.415 680.127 193.93C681.341 190.095 683.791 188.232 687.26 186.51Z"/>
	<path fill="#D15800" transform="scale(0.292969 0.292969)" d="M576.621 161.961C580.747 162.055 594.973 161.177 598.079 162.426C598.392 162.552 598.657 162.774 598.945 162.948L598.524 162.361L599.305 162.248L599.669 161.591C601.338 163.004 602.722 162.477 604.327 163.362C619.156 175.012 630.567 182.798 632.967 203.097Q633.102 204.225 633.182 205.358Q633.262 206.492 633.286 207.628Q633.311 208.763 633.279 209.899Q633.248 211.035 633.162 212.168Q633.075 213.3 632.933 214.428Q632.791 215.555 632.594 216.674Q632.397 217.793 632.146 218.901Q631.895 220.009 631.59 221.103Q631.284 222.197 630.926 223.275Q630.568 224.354 630.157 225.413Q629.747 226.472 629.285 227.51Q628.823 228.548 628.311 229.562Q627.799 230.576 627.238 231.564Q626.677 232.552 626.068 233.512Q625.459 234.471 624.804 235.399Q624.149 236.328 623.45 237.223C616.334 246.188 605.203 252.777 593.77 254.056C588.454 254.652 583.654 253.602 578.442 253.535C574.758 253.368 569.991 251.464 566.663 249.898C555.265 244.535 546.935 234.557 542.807 222.724Q542.423 221.629 542.094 220.516Q541.764 219.403 541.49 218.276Q541.215 217.148 540.997 216.009Q540.778 214.869 540.616 213.72Q540.454 212.571 540.348 211.415Q540.243 210.259 540.194 209.1Q540.146 207.941 540.154 206.78Q540.163 205.62 540.229 204.461Q540.295 203.303 540.417 202.149Q540.54 200.995 540.719 199.848Q540.898 198.702 541.134 197.565Q541.37 196.429 541.661 195.306Q541.952 194.182 542.298 193.075Q542.644 191.967 543.044 190.878Q543.444 189.788 543.897 188.72Q544.351 187.652 544.856 186.607C551.544 172.878 562.664 166.725 576.621 161.961Z"/>
	<path fill="#F49502" transform="scale(0.292969 0.292969)" d="M586.659 171.698C595.589 172.118 603.681 174.808 610.5 180.738Q611.173 181.331 611.816 181.957Q612.458 182.582 613.069 183.239Q613.68 183.896 614.258 184.582Q614.836 185.268 615.379 185.982Q615.922 186.696 616.429 187.436Q616.936 188.176 617.406 188.94Q617.876 189.704 618.307 190.49Q618.739 191.277 619.131 192.083Q619.523 192.89 619.875 193.715Q620.226 194.54 620.536 195.382Q620.847 196.224 621.115 197.08Q621.384 197.935 621.609 198.804Q621.835 199.672 622.017 200.55Q622.2 201.428 622.338 202.314Q622.477 203.201 622.572 204.092Q622.667 204.984 622.717 205.88Q622.774 206.774 622.788 207.67Q622.801 208.566 622.77 209.462Q622.74 210.357 622.665 211.25Q622.59 212.143 622.471 213.031Q622.353 213.92 622.19 214.801Q622.028 215.682 621.823 216.554Q621.617 217.426 621.369 218.288Q621.121 219.149 620.831 219.996Q620.541 220.844 620.209 221.677Q619.877 222.509 619.505 223.324Q619.133 224.139 618.721 224.935Q618.309 225.731 617.859 226.505Q617.408 227.28 616.92 228.032Q616.432 228.783 615.907 229.509Q615.383 230.236 614.823 230.936Q614.263 231.636 613.67 232.307C606.62 240.251 597.691 243.156 587.337 243.78Q585.828 243.767 584.326 243.628Q582.823 243.488 581.338 243.222Q579.853 242.956 578.395 242.566Q576.937 242.176 575.518 241.665Q574.098 241.154 572.727 240.525Q571.355 239.895 570.042 239.153Q568.728 238.41 567.482 237.56Q566.235 236.709 565.065 235.757C557.726 229.802 552.562 220.412 551.639 210.985Q551.551 210.085 551.507 209.182Q551.464 208.278 551.466 207.374Q551.467 206.47 551.514 205.566Q551.561 204.663 551.653 203.764Q551.744 202.864 551.881 201.97Q552.017 201.076 552.198 200.19Q552.379 199.304 552.603 198.428Q552.828 197.552 553.096 196.688Q553.364 195.824 553.675 194.975Q553.986 194.126 554.339 193.293Q554.691 192.46 555.085 191.646Q555.479 190.832 555.912 190.038Q556.346 189.245 556.819 188.474Q557.292 187.703 557.803 186.956Q558.313 186.21 558.86 185.49Q559.408 184.77 559.99 184.078C567.098 175.554 575.885 172.595 586.659 171.698Z"/>
	<path fill="#417E90" transform="scale(0.292969 0.292969)" d="M427.705 532.566C437.243 534.778 446.172 540.192 455.145 544.006C486.695 557.416 517.769 571.881 549.167 585.635C555.986 588.622 568.164 595.397 574.657 597.021C583.122 600.421 591.498 606.269 599.188 611.148C615.966 621.792 632.206 633.046 648.673 644.146C664.822 655.032 687.058 668.076 701.04 680.872Q702.109 681.837 703.123 682.86Q704.136 683.883 705.091 684.961Q706.047 686.039 706.94 687.168Q707.834 688.297 708.664 689.474Q709.494 690.652 710.257 691.873Q711.02 693.095 711.713 694.357Q712.407 695.619 713.03 696.917Q713.653 698.216 714.202 699.547C720.235 713.861 722.216 730.969 725.528 746.097C732.118 776.194 738.399 806.522 746.005 836.375C727.367 842.98 708.728 850.819 690.839 859.244C685.028 838.144 677.246 817.493 670.471 796.681C666.226 783.64 662.098 770.587 657.687 757.599C655.582 751.402 653.67 744.989 651.046 738.997C623.588 726.107 597.098 710.763 570.387 696.378C549.793 685.288 528.758 675.228 508.592 663.333C501.761 661.079 494.526 661.549 487.558 660.034C469.748 656.161 453.804 646.374 441.549 632.962C437.681 628.73 434.342 624.066 430.626 619.704C429.151 617.357 427.857 614.773 426.678 612.267C413.435 584.134 417.725 560.65 427.705 532.566Z"/>
	<path fill="#D15800" transform="scale(0.292969 0.292969)" d="M329.907 395.599C329.388 394.21 328.805 393.426 329.042 391.905C330.058 385.381 367.167 317.511 372.152 310.287C375.38 305.608 378.892 302.01 383.58 298.787Q385.003 297.794 386.488 296.898Q387.974 296.002 389.516 295.206Q391.058 294.411 392.649 293.72Q394.241 293.028 395.875 292.445Q397.508 291.861 399.177 291.386Q400.846 290.912 402.543 290.55Q404.24 290.188 405.957 289.94Q407.674 289.691 409.404 289.557C429.276 287.975 451.485 293.329 471.214 295.935C501.268 299.904 531.548 303.068 561.332 308.772L562.228 308.473C569.162 311.479 576.269 314.094 583.239 317.024C596.609 322.644 609.886 328.481 623.388 333.783C626.582 335.391 629.557 337.157 632.026 339.801C636.214 344.287 639.754 349.673 643.389 354.619Q653.337 368.135 663.11 381.779L716.066 454.716Q740.04 439.622 764.543 425.404C772.709 420.565 781.002 414.902 789.611 410.974C797.347 424.233 805.365 438.115 814.345 450.552C815.11 452.116 816.157 453.73 815.942 455.517C809.228 461.157 794.777 468.111 786.544 473.045L755.212 492.088C746.699 497.36 738.193 503.422 728.873 507.149C721.659 510.033 714.504 511.243 706.75 510.544C691.37 509.159 679.436 501.739 669.786 489.953C658.07 475.644 647.287 460.007 636.904 444.702C627.456 464.451 619.93 485.257 612.181 505.718Q601.31 534.904 589.348 563.66C585.504 573.058 581.86 585.037 577.331 593.777C576.628 595.135 575.809 596.032 574.657 597.021C568.164 595.397 555.986 588.622 549.167 585.635C517.769 571.881 486.695 557.416 455.145 544.006C446.172 540.192 437.243 534.778 427.705 532.566C426.922 530.391 427.618 528.687 428.378 526.63C434.224 510.809 442.365 495.439 449.378 480.072C467.923 439.432 487.672 399.055 504.544 357.694C486.654 354.49 468.616 352.067 450.66 349.256C438.459 347.346 426.334 345.01 414.123 343.16C405.892 358.054 397.658 372.975 389.684 388.008C384.55 397.688 379.352 410.305 372.392 418.695C358.778 409.975 344.257 402.975 329.907 395.599Z"/>
</svg>
