<?xml version="1.0" encoding="utf-8" ?>
<svg xmlns="http://www.w3.org/2000/svg" xmlns:xlink="http://www.w3.org/1999/xlink" width="1024" height="1024">
	<path fill="#E47F50" d="M511.963 67.9137C533.658 68.618 553.78 75.6379 568.902 91.7516C582.334 106.065 590.242 125.739 589.429 145.465C588.556 166.633 579.118 182.486 567.656 199.505C555.233 197.755 542.775 196.984 530.319 195.642C537.096 191.037 544.126 187.271 549.954 181.37C559.683 171.52 565.094 157.236 564.947 143.444C564.797 129.371 559.447 115.19 549.262 105.322C539.441 95.8079 526.06 91.2618 512.523 91.4367L511.835 91.3782C513.476 89.487 512.179 71.5217 511.963 67.9137Z"/>
	<path fill="#EFAF6E" d="M460.658 199.245C447.209 182.797 437.335 166.742 436.8 144.918C436.318 125.231 442.916 106.127 456.702 91.9072C471.975 76.1556 490.08 68.2802 511.963 67.9137C512.179 71.5217 513.476 89.487 511.835 91.3782C497.684 91.9523 483.641 98.0221 474.001 108.466Q473.159 109.366 472.363 110.306Q471.567 111.247 470.819 112.225Q470.07 113.204 469.372 114.219Q468.673 115.234 468.025 116.282Q467.377 117.33 466.782 118.409Q466.188 119.488 465.647 120.595Q465.106 121.702 464.622 122.835Q464.137 123.968 463.708 125.123Q463.28 126.278 462.91 127.454Q462.54 128.629 462.228 129.821Q461.917 131.013 461.665 132.219Q461.413 133.425 461.221 134.642Q461.029 135.859 460.898 137.084Q460.767 138.31 460.696 139.54Q460.626 140.77 460.617 142.002Q460.608 143.234 460.66 144.465C461.26 158.645 467.859 173.121 478.454 182.619C484.422 187.968 491.464 191.779 498.631 195.258C493.768 196.445 488.459 196.599 483.476 197.018C475.852 197.66 468.251 198.299 460.658 199.245Z"/>
	<path fill="#0E7794" d="M512.523 91.4367C526.06 91.2618 539.441 95.8079 549.262 105.322C559.447 115.19 564.797 129.371 564.947 143.444C565.094 157.236 559.683 171.52 549.954 181.37C544.126 187.271 537.096 191.037 530.319 195.642C525.312 196.385 519.901 195.962 514.852 195.797L512.552 195.424L512.523 91.4367Z"/>
	<path fill="#27427E" d="M498.631 195.258C503.26 195.609 507.913 195.471 512.552 195.424L514.852 195.797L513.35 196.227C512.654 197.907 512.754 250.392 513.265 255.637C497.096 256.312 481.141 256.617 465.1 259.045Q461.764 259.567 458.439 260.158Q455.115 260.75 451.803 261.411Q448.492 262.072 445.195 262.803Q441.898 263.534 438.617 264.333Q435.336 265.133 432.073 266.001Q428.81 266.87 425.566 267.806Q422.321 268.743 419.097 269.748Q415.873 270.752 412.671 271.824Q409.469 272.896 406.29 274.035Q403.111 275.174 399.957 276.38Q396.802 277.585 393.674 278.856Q390.546 280.128 387.445 281.465Q384.344 282.801 381.272 284.203Q378.199 285.605 375.157 287.07Q372.115 288.536 369.104 290.065Q366.094 291.595 363.116 293.187Q360.138 294.779 357.194 296.433Q354.25 298.088 351.342 299.803Q348.433 301.519 345.561 303.296Q342.69 305.072 339.856 306.908Q337.022 308.745 334.227 310.64Q331.432 312.535 328.678 314.489Q325.924 316.443 323.211 318.453Q320.498 320.465 317.828 322.532Q315.159 324.6 312.533 326.723Q309.907 328.846 307.326 331.023Q304.745 333.201 302.211 335.433Q299.676 337.664 297.189 339.948Q294.702 342.232 292.263 344.568Q289.825 346.904 287.436 349.291Q285.047 351.677 282.708 354.113Q280.37 356.549 278.083 359.034C218.653 423.767 190.701 505.992 194.574 593.366C198.169 674.457 237.637 754.482 297.39 808.848Q300.123 811.315 302.911 813.718Q305.699 816.122 308.542 818.461Q311.384 820.801 314.279 823.075Q317.174 825.349 320.12 827.556Q323.066 829.763 326.062 831.903Q329.058 834.042 332.101 836.113Q335.145 838.184 338.235 840.185Q341.325 842.185 344.46 844.115Q347.595 846.045 350.773 847.902Q353.951 849.76 357.171 851.545Q360.391 853.33 363.65 855.04Q366.91 856.751 370.208 858.387Q373.506 860.023 376.84 861.584Q380.174 863.144 383.543 864.628Q386.912 866.112 390.314 867.519Q393.716 868.926 397.149 870.255Q400.582 871.583 404.044 872.833Q407.507 874.083 410.997 875.254Q414.487 876.425 418.003 877.516Q421.519 878.607 425.059 879.618Q428.599 880.628 432.161 881.557Q435.723 882.487 439.305 883.335Q442.887 884.183 446.488 884.949Q450.089 885.715 453.706 886.399Q457.323 887.082 460.955 887.683Q464.587 888.284 468.232 888.802Q471.876 889.32 475.532 889.755Q479.187 890.19 482.852 890.541Q486.516 890.892 490.188 891.16Q493.859 891.428 497.536 891.611Q501.213 891.795 504.893 891.895Q508.573 891.995 512.254 892.011C511.295 899.395 511.978 907.734 511.996 915.21C512.025 927.076 511.611 939.171 512.319 951.003C499.034 951.405 485.645 949.838 472.458 948.366Q466.478 947.742 460.522 946.924Q454.565 946.107 448.638 945.098Q442.711 944.088 436.82 942.888Q430.928 941.688 425.079 940.298Q419.229 938.908 413.428 937.33Q407.626 935.752 401.878 933.987Q396.131 932.222 390.443 930.273Q384.756 928.323 379.134 926.191Q373.513 924.059 367.963 921.747Q362.413 919.434 356.941 916.943Q351.469 914.452 346.08 911.786Q340.691 909.12 335.391 906.281Q330.091 903.442 324.885 900.434Q319.68 897.425 314.574 894.25Q309.469 891.075 304.468 887.737Q299.468 884.398 294.578 880.9Q290.789 878.243 287.067 875.493Q283.345 872.743 279.693 869.901Q276.041 867.06 272.461 864.128Q268.88 861.196 265.374 858.176Q261.867 855.157 258.437 852.051Q255.007 848.944 251.655 845.754Q248.303 842.564 245.032 839.291Q241.76 836.018 238.571 832.665Q235.382 829.312 232.277 825.88Q229.172 822.449 226.153 818.941Q223.135 815.434 220.205 811.852Q217.274 808.271 214.434 804.618Q211.593 800.964 208.845 797.242Q206.096 793.519 203.441 789.729Q200.785 785.939 198.225 782.084Q195.665 778.229 193.201 774.312Q190.738 770.395 188.373 766.417Q186.007 762.44 183.741 758.405Q181.476 754.37 179.311 750.28Q177.146 746.19 175.084 742.047Q173.022 737.905 171.063 733.712Q169.104 729.52 167.25 725.28Q165.396 721.04 163.649 716.755Q161.901 712.47 160.26 708.143Q158.619 703.816 157.087 699.45Q155.554 695.083 154.13 690.68Q152.707 686.277 151.393 681.84Q150.079 677.403 148.877 672.934Q147.674 668.466 146.582 663.969Q145.491 659.472 144.512 654.949Q143.532 650.426 142.666 645.88Q141.799 641.335 141.046 636.769Q140.46 633.276 139.939 629.772Q139.418 626.268 138.963 622.755Q138.508 619.243 138.118 615.722Q137.729 612.201 137.406 608.674Q137.082 605.146 136.825 601.613Q136.568 598.08 136.377 594.543Q136.186 591.006 136.061 587.466Q135.936 583.926 135.877 580.385Q135.819 576.843 135.826 573.301Q135.834 569.759 135.908 566.217Q135.982 562.676 136.122 559.136Q136.263 555.597 136.469 552.061Q136.676 548.524 136.948 544.993Q137.221 541.461 137.56 537.935Q137.898 534.409 138.303 530.89Q138.708 527.371 139.178 523.86Q139.649 520.349 140.185 516.848Q140.721 513.346 141.322 509.856Q141.924 506.365 142.59 502.886Q143.257 499.407 143.989 495.941Q144.721 492.476 145.517 489.024Q146.314 485.573 147.175 482.137Q148.036 478.701 148.961 475.281Q149.886 471.862 150.875 468.461Q151.864 465.059 152.916 461.677Q153.968 458.295 155.084 454.933Q156.2 451.571 157.378 448.23Q158.556 444.89 159.797 441.572Q161.037 438.254 162.34 434.96Q163.642 431.666 165.006 428.397Q166.37 425.128 167.795 421.885Q169.22 418.642 170.705 415.426C181.384 392.777 194.97 371.021 209.428 350.612Q215.654 341.927 222.401 333.641Q229.148 325.354 236.391 317.498Q243.634 309.642 251.346 302.245Q259.058 294.848 267.21 287.939C323.206 239.856 388.128 211.664 460.658 199.245C468.251 198.299 475.852 197.66 483.476 197.018C488.459 196.599 493.768 196.445 498.631 195.258Z"/>
	<path fill="#183269" d="M530.319 195.642C542.775 196.984 555.233 197.755 567.656 199.505C596.185 203.816 623.32 211.545 650.073 222.334C718.016 249.733 772.127 293.838 815.412 352.571Q818.124 356.276 820.746 360.046Q823.368 363.815 825.899 367.647Q828.429 371.479 830.866 375.37Q833.302 379.262 835.645 383.212Q837.987 387.161 840.233 391.166Q842.479 395.171 844.627 399.229Q846.776 403.287 848.825 407.396Q850.875 411.505 852.825 415.662Q854.775 419.819 856.624 424.023Q858.473 428.226 860.22 432.472Q861.966 436.719 863.61 441.006Q865.253 445.294 866.793 449.62Q868.333 453.946 869.767 458.308Q871.202 462.67 872.53 467.065Q873.859 471.46 875.081 475.886Q876.303 480.312 877.418 484.767Q878.533 489.221 879.54 493.701Q880.546 498.181 881.445 502.684Q882.343 507.187 883.132 511.711Q883.921 516.234 884.601 520.776Q885.28 525.317 885.85 529.873Q886.42 534.429 886.879 538.998Q887.339 543.567 887.687 548.145Q888.036 552.724 888.274 557.309Q888.512 561.895 888.64 566.485Q888.767 571.075 888.783 575.667Q888.799 580.258 888.704 584.849Q888.61 589.44 888.404 594.027Q888.198 598.614 887.882 603.195Q887.565 607.776 887.138 612.348Q886.711 616.92 886.174 621.48Q885.636 626.04 884.989 630.586Q884.403 634.394 883.74 638.19Q883.078 641.986 882.339 645.768Q881.6 649.55 880.784 653.316Q879.969 657.082 879.078 660.83Q878.187 664.579 877.22 668.309Q876.254 672.039 875.212 675.749Q874.171 679.459 873.054 683.147Q871.938 686.835 870.748 690.5Q869.557 694.165 868.293 697.805Q867.029 701.445 865.692 705.058Q864.354 708.672 862.945 712.258Q861.535 715.844 860.053 719.401Q858.571 722.958 857.017 726.484Q855.464 730.01 853.839 733.505Q852.215 736.999 850.521 740.46Q848.826 743.92 847.062 747.346Q845.298 750.772 843.466 754.161Q841.633 757.551 839.732 760.903Q837.831 764.254 835.863 767.567Q833.895 770.88 831.861 774.153Q829.827 777.425 827.727 780.656Q825.627 783.886 823.462 787.074Q821.297 790.262 819.068 793.405Q816.84 796.549 814.548 799.646Q812.256 802.744 809.903 805.795Q807.549 808.846 805.134 811.849Q802.72 814.851 800.245 817.805Q797.77 820.758 795.236 823.661Q792.702 826.564 790.11 829.415Q787.518 832.266 784.869 835.065Q782.22 837.863 779.516 840.608Q776.811 843.352 774.051 846.041C760.946 858.682 746.689 869.968 732.02 880.729C679.114 919.541 614.739 941.409 549.917 948.726C537.405 950.138 524.863 950.194 512.319 951.003C511.611 939.171 512.025 927.076 511.996 915.21C511.978 907.734 511.295 899.395 512.254 892.011L516.054 891.993Q519.922 891.929 523.787 891.771Q527.652 891.614 531.512 891.364Q535.372 891.113 539.224 890.77Q543.077 890.426 546.921 889.99Q550.764 889.554 554.596 889.025Q558.428 888.497 562.246 887.876Q566.064 887.255 569.866 886.542Q573.668 885.829 577.451 885.025Q581.235 884.221 584.998 883.326Q588.761 882.431 592.502 881.445Q596.242 880.459 599.958 879.384Q603.673 878.308 607.362 877.144Q611.051 875.979 614.71 874.726Q618.37 873.473 621.998 872.131Q625.626 870.79 629.221 869.362Q632.816 867.934 636.375 866.42Q639.934 864.905 643.456 863.305Q646.978 861.706 650.46 860.021Q653.943 858.337 657.383 856.57Q660.824 854.802 664.221 852.952Q667.618 851.102 670.969 849.171Q674.321 847.239 677.625 845.228Q680.929 843.216 684.183 841.126Q687.438 839.035 690.641 836.866Q693.844 834.698 696.994 832.453Q700.144 830.208 703.239 827.888Q706.334 825.567 709.372 823.173Q712.41 820.779 715.39 818.312Q718.369 815.845 721.288 813.307Q724.207 810.769 727.065 808.162Q729.922 805.554 732.715 802.879Q735.509 800.203 738.237 797.461C798.272 736.192 830.968 656.654 830 570.727Q829.947 566.784 829.797 562.844Q829.647 558.903 829.4 554.968Q829.153 551.032 828.809 547.104Q828.465 543.176 828.025 539.257Q827.585 535.339 827.049 531.432Q826.512 527.526 825.88 523.633Q825.248 519.741 824.52 515.866Q823.792 511.99 822.969 508.134Q822.146 504.277 821.228 500.442Q820.311 496.607 819.299 492.796Q818.288 488.985 817.183 485.2Q816.078 481.414 814.88 477.657Q813.682 473.9 812.392 470.174Q811.103 466.448 809.721 462.754Q808.34 459.061 806.869 455.402Q805.398 451.744 803.837 448.123Q802.276 444.502 800.626 440.92Q798.976 437.338 797.239 433.798Q795.502 430.259 793.678 426.762Q791.855 423.266 789.945 419.816Q788.036 416.366 786.043 412.963Q784.05 409.561 781.973 406.209Q779.897 402.857 777.738 399.556Q775.58 396.256 773.341 393.01Q771.102 389.764 768.785 386.574Q766.467 383.384 764.071 380.252Q761.675 377.12 759.203 374.048Q756.731 370.976 754.184 367.965Q751.638 364.955 749.017 362.008Q746.397 359.061 743.706 356.179Q741.014 353.298 738.252 350.483Q735.49 347.669 732.66 344.923C675.307 289.081 593.652 254.625 513.265 255.637C512.754 250.392 512.654 197.907 513.35 196.227L514.852 195.797C519.901 195.962 525.312 196.385 530.319 195.642Z"/>
	<path fill="#FEFEFE" d="M513.265 255.637C593.652 254.625 675.307 289.081 732.66 344.923Q735.49 347.669 738.252 350.483Q741.014 353.298 743.706 356.179Q746.397 359.061 749.017 362.008Q751.638 364.955 754.184 367.965Q756.731 370.976 759.203 374.048Q761.675 377.12 764.071 380.252Q766.467 383.384 768.784 386.574Q771.102 389.764 773.341 393.01Q775.58 396.256 777.738 399.556Q779.897 402.857 781.973 406.209Q784.05 409.561 786.043 412.963Q788.036 416.366 789.946 419.816Q791.855 423.266 793.678 426.762Q795.502 430.259 797.239 433.799Q798.976 437.339 800.626 440.92Q802.276 444.502 803.837 448.123Q805.398 451.744 806.869 455.402Q808.34 459.061 809.721 462.754Q811.103 466.448 812.392 470.174Q813.682 473.9 814.88 477.657Q816.078 481.414 817.183 485.2Q818.288 488.985 819.299 492.796Q820.311 496.607 821.228 500.442Q822.146 504.277 822.969 508.134Q823.792 511.99 824.52 515.866Q825.248 519.741 825.88 523.633Q826.512 527.526 827.049 531.432Q827.585 535.339 828.025 539.257Q828.465 543.176 828.809 547.104Q829.153 551.032 829.4 554.968Q829.647 558.903 829.797 562.844Q829.947 566.784 830 570.727C830.968 656.654 798.272 736.192 738.237 797.461Q735.509 800.203 732.715 802.879Q729.922 805.554 727.065 808.162Q724.207 810.769 721.288 813.307Q718.369 815.845 715.39 818.312Q712.41 820.779 709.372 823.173Q706.334 825.567 703.239 827.887Q700.144 830.208 696.994 832.453Q693.844 834.698 690.641 836.866Q687.438 839.035 684.183 841.126Q680.929 843.216 677.625 845.228Q674.321 847.239 670.969 849.171Q667.618 851.102 664.221 852.952Q660.824 854.802 657.383 856.57Q653.943 858.337 650.46 860.021Q646.978 861.706 643.456 863.305Q639.934 864.905 636.375 866.42Q632.816 867.934 629.221 869.362Q625.626 870.79 621.998 872.131Q618.37 873.473 614.71 874.726Q611.051 875.979 607.362 877.144Q603.673 878.308 599.958 879.384Q596.242 880.459 592.502 881.445Q588.761 882.431 584.998 883.326Q581.235 884.221 577.451 885.025Q573.668 885.829 569.866 886.542Q566.064 887.255 562.246 887.876Q558.428 888.497 554.596 889.025Q550.764 889.554 546.921 889.99Q543.077 890.426 539.224 890.77Q535.372 891.113 531.512 891.364Q527.652 891.614 523.787 891.771Q519.922 891.929 516.054 891.993L512.254 892.011Q508.573 891.995 504.893 891.895Q501.213 891.795 497.536 891.611Q493.859 891.428 490.188 891.16Q486.516 890.892 482.852 890.541Q479.187 890.19 475.532 889.755Q471.876 889.32 468.232 888.802Q464.587 888.284 460.955 887.683Q457.323 887.082 453.706 886.399Q450.089 885.715 446.488 884.949Q442.887 884.183 439.305 883.335Q435.723 882.487 432.161 881.557Q428.599 880.628 425.059 879.618Q421.519 878.607 418.003 877.516Q414.487 876.425 410.997 875.254Q407.507 874.083 404.044 872.833Q400.582 871.583 397.149 870.255Q393.716 868.926 390.314 867.519Q386.912 866.112 383.543 864.628Q380.174 863.144 376.84 861.584Q373.506 860.023 370.208 858.388Q366.91 856.751 363.65 855.041Q360.391 853.33 357.171 851.545Q353.951 849.76 350.773 847.902Q347.595 846.045 344.46 844.115Q341.325 842.185 338.235 840.185Q335.145 838.184 332.101 836.113Q329.057 834.042 326.062 831.903Q323.066 829.763 320.12 827.556Q317.174 825.349 314.279 823.075Q311.384 820.801 308.542 818.461Q305.699 816.122 302.911 813.718Q300.123 811.315 297.39 808.848C237.637 754.482 198.169 674.457 194.574 593.366C190.701 505.992 218.653 423.767 278.083 359.034Q280.37 356.549 282.708 354.113Q285.047 351.677 287.436 349.291Q289.825 346.904 292.263 344.568Q294.702 342.232 297.189 339.948Q299.676 337.664 302.211 335.433Q304.745 333.201 307.326 331.023Q309.907 328.846 312.533 326.723Q315.159 324.599 317.828 322.532Q320.498 320.464 323.211 318.453Q325.924 316.443 328.678 314.489Q331.432 312.535 334.227 310.64Q337.022 308.745 339.856 306.908Q342.69 305.072 345.562 303.296Q348.433 301.519 351.342 299.803Q354.25 298.088 357.194 296.433Q360.138 294.779 363.116 293.187Q366.094 291.595 369.104 290.065Q372.115 288.536 375.157 287.07Q378.199 285.605 381.272 284.203Q384.344 282.801 387.445 281.465Q390.546 280.128 393.674 278.856Q396.802 277.585 399.957 276.38Q403.111 275.174 406.29 274.035Q409.469 272.896 412.671 271.824Q415.873 270.752 419.097 269.748Q422.321 268.743 425.566 267.806Q428.81 266.87 432.073 266.001Q435.336 265.133 438.617 264.333Q441.898 263.534 445.195 262.803Q448.492 262.072 451.803 261.411Q455.115 260.75 458.439 260.158Q461.764 259.567 465.1 259.045C481.141 256.617 497.096 256.312 513.265 255.637ZM511.602 820.222L513.859 820.181C524.758 819.921 535.564 819.673 546.382 818.172C594.679 811.472 641.342 788.78 677.673 756.513Q679.867 754.588 682.013 752.61Q684.158 750.632 686.255 748.601Q688.351 746.57 690.396 744.489Q692.442 742.407 694.435 740.275Q696.428 738.143 698.368 735.963Q700.308 733.782 702.194 731.555Q704.079 729.327 705.909 727.054Q707.739 724.78 709.512 722.462Q711.285 720.144 713.001 717.783Q714.716 715.421 716.373 713.018Q718.029 710.615 719.625 708.172Q721.222 705.729 722.758 703.247Q724.293 700.766 725.767 698.247Q727.241 695.728 728.652 693.173Q730.064 690.618 731.411 688.03Q732.759 685.441 734.042 682.82Q735.325 680.198 736.543 677.546Q737.761 674.894 738.914 672.213Q740.066 669.531 741.151 666.822Q742.237 664.113 743.255 661.378Q744.273 658.643 745.224 655.883Q746.174 653.124 747.056 650.342Q747.938 647.56 748.75 644.757Q749.563 641.953 750.307 639.131Q751.05 636.309 751.723 633.469Q752.397 630.629 753 627.774Q753.602 624.918 754.135 622.049Q754.667 619.179 755.128 616.297Q755.589 613.415 755.979 610.523Q756.369 607.631 756.687 604.73Q757.005 601.828 757.251 598.92Q757.498 596.012 757.672 593.099C758.628 576.381 758.639 558.858 756.503 542.219C750.429 494.907 728.241 445.778 696.367 410.235C651.864 360.608 592.891 329.937 525.934 326.504Q522.919 326.345 519.901 326.26Q516.883 326.175 513.864 326.164Q510.845 326.153 507.827 326.216Q504.808 326.278 501.792 326.415Q498.776 326.552 495.765 326.762Q492.753 326.972 489.747 327.256Q486.741 327.54 483.744 327.897Q480.746 328.254 477.757 328.685Q474.769 329.115 471.792 329.619Q468.816 330.122 465.852 330.698Q462.888 331.274 459.94 331.923Q456.991 332.571 454.059 333.292Q451.127 334.012 448.214 334.804Q445.301 335.596 442.407 336.458Q439.514 337.321 436.643 338.255Q433.772 339.188 430.924 340.191Q428.077 341.195 425.255 342.267Q422.433 343.34 419.638 344.481Q416.843 345.623 414.076 346.832Q411.31 348.041 408.574 349.318Q405.838 350.595 403.135 351.938Q400.431 353.281 397.761 354.69Q395.09 356.099 392.455 357.573Q389.821 359.047 387.223 360.585Q384.624 362.122 382.065 363.723Q379.505 365.324 376.985 366.987Q374.466 368.65 371.987 370.375Q369.509 372.099 367.074 373.883Q364.638 375.667 362.247 377.511Q359.856 379.354 357.511 381.255Q355.166 383.156 352.867 385.114Q350.569 387.072 348.32 389.086C295.58 436.843 269.083 491.119 265.753 562.371C262.572 630.453 287.473 694.908 333.194 744.98Q334.866 746.78 336.576 748.544Q338.287 750.307 340.033 752.035Q341.78 753.762 343.563 755.452Q345.347 757.142 347.165 758.794Q348.983 760.446 350.836 762.059Q352.689 763.672 354.576 765.246Q356.462 766.82 358.381 768.353Q360.301 769.887 362.252 771.379Q364.203 772.872 366.186 774.323Q368.168 775.774 370.181 777.183Q372.194 778.591 374.236 779.957Q376.278 781.323 378.348 782.646Q380.418 783.968 382.516 785.247Q384.614 786.525 386.739 787.759Q388.863 788.993 391.013 790.182Q393.163 791.37 395.338 792.513Q397.512 793.656 399.711 794.753Q401.909 795.85 404.13 796.9Q406.351 797.95 408.594 798.953Q410.836 799.956 413.1 800.911Q415.363 801.866 417.646 802.774Q419.929 803.681 422.231 804.54Q424.533 805.399 426.852 806.209Q429.171 807.019 431.507 807.779Q433.843 808.54 436.195 809.251Q438.546 809.963 440.912 810.624Q443.278 811.286 445.658 811.897Q448.037 812.508 450.429 813.069Q452.821 813.63 455.224 814.14Q457.627 814.65 460.041 815.109Q462.454 815.569 464.877 815.977Q467.299 816.385 469.73 816.742C483.597 818.913 497.599 819.579 511.602 820.222Z"/>
	<path fill="#DC5B4D" d="M245.054 557.402L245.456 557.603C246.552 559.503 245.544 565.247 245.432 567.635C245.037 576.104 245.707 584.17 246.716 592.556C240.212 589.517 233.92 585.879 227.603 582.464L214.797 575.291C224.327 568.595 235.013 563.314 245.054 557.402Z"/>
	<path fill="#DC5B4D" d="M777.024 557.903C788.178 562.589 798.998 568.913 809.78 574.444C805.958 576.656 801.88 578.541 797.942 580.544Q787.541 586.089 777.049 591.461L777.024 557.903Z"/>
	<path fill="#DC5B4D" d="M511.905 271.229C517.32 274.03 528.24 298.954 531.345 305.487L513.25 305.485L493.594 305.484C499.319 293.82 505.612 282.584 511.905 271.229Z"/>
	<path fill="#DC5B4D" d="M493.06 840.715C505.995 841.78 519.115 840.839 532.081 841.138C527.236 851.056 523.388 861.557 518.823 871.626C516.6 876.693 514.287 881.734 512.44 886.954C510.277 882.345 508.593 877.53 506.536 872.872C501.824 862.199 496.823 851.784 493.06 840.715Z"/>
	<path fill="#63B1BB" d="M600.272 537.01C628.861 543.327 657.281 550.686 685.746 557.55C709.078 563.177 732.446 568.19 755.656 574.376L745.163 575.831C743.558 574.954 741.986 575.009 740.21 574.938C730.325 574.546 720.414 575.2 710.523 574.913C686.627 574.22 662.689 572.366 638.806 571.226C619.722 570.315 600.559 570.219 581.501 568.943C587.285 558.157 593.227 547.036 600.272 537.01Z"/>
	<path fill="#63B1BB" d="M472.867 485.876C475.226 481.065 476.053 475.182 477.35 469.99L482.842 448.595C490.16 420.251 497.902 391.997 504.946 363.588C506.397 357.738 510.246 338.538 512.439 334.533L513.077 334.511L513.449 335.867C517.448 348.788 520.547 362.117 523.881 375.234Q533.21 411.649 541.728 448.263C544.461 459.841 546.682 471.713 549.881 483.163C537.208 491.106 524.21 498.56 511.596 506.587L511.588 506.961C511.799 509.214 511.796 511.265 511.572 513.516Q504.998 513.602 498.442 514.086C477.905 521.802 464.53 530.03 455.058 550.789C453.901 553.323 452.826 555.876 452.216 558.601L451.708 557.131C453.985 543.383 459.845 529.624 463.853 516.295C466.901 506.159 468.501 495.578 472.867 485.876Z"/>
	<path fill="#E47F50" d="M511.588 506.961C511.799 509.214 511.796 511.265 511.572 513.516Q504.998 513.602 498.442 514.086C502.129 510.895 507.187 508.987 511.588 506.961Z"/>
	<path fill="#0E7794" d="M513.449 335.867C517.448 348.788 520.547 362.117 523.881 375.234Q533.21 411.649 541.728 448.263C544.461 459.841 546.682 471.713 549.881 483.163C537.208 491.106 524.21 498.56 511.596 506.587C511.27 500.188 511.715 493.669 511.73 487.252L512.014 436.121Q511.862 402.291 512.162 368.462C512.257 358.015 511.269 346.079 513.449 335.867Z"/>
	<path fill="#DC5B4D" d="M451.708 557.131L452.216 558.601C448.903 577.376 449.852 595.137 461.15 611.173C469.122 622.488 482.474 632.772 496.359 635.179C501.497 636.07 506.808 635.908 511.931 636.824L511.91 637.63C505.186 640.752 478.811 657.322 473.993 661.806C469.503 665.497 463.16 668.364 458.143 671.432C448.2 677.512 438.453 683.969 428.596 690.196L378.726 722.081C368.176 728.933 357.804 736.092 347.011 742.562L394.467 658.725C404.27 641.667 414.764 624.903 423.473 607.253C425.954 603.717 427.934 599.543 430.019 595.747Q435.737 585.417 441.315 575.012C444.66 568.967 448.053 562.994 451.708 557.131Z"/>
	<path fill="#DC5B4D" d="M549.881 483.163C556.043 478.999 562.644 475.452 568.944 471.49Q597.965 453.189 627.276 435.355L659.619 415.632C666.117 411.621 672.626 407.038 679.414 403.565C662.802 433.437 644.388 462.208 626.984 491.606L609.235 522.047C606.406 526.936 603.767 532.589 600.272 537.01C593.227 547.036 587.285 558.157 581.501 568.943C579.207 572.967 577.02 577.429 574.166 581.077C573.366 563.422 569.934 547.393 557.93 533.772C547.392 521.815 533.055 514.895 517.129 513.942C515.301 513.666 513.417 513.63 511.572 513.516C511.796 511.265 511.799 509.214 511.588 506.961L511.596 506.587C524.21 498.56 537.208 491.106 549.881 483.163Z"/>
	<path fill="#FEFEFE" d="M511.572 513.516C513.417 513.63 515.301 513.666 517.129 513.942C533.055 514.895 547.392 521.815 557.93 533.772C569.934 547.393 573.366 563.422 574.166 581.077C568.919 601.176 560.872 617.706 542.34 628.702C534.223 633.518 521.881 637.885 512.307 636.465L511.931 636.824C506.808 635.908 501.497 636.07 496.359 635.179C482.474 632.772 469.122 622.488 461.15 611.173C449.852 595.137 448.903 577.376 452.216 558.601C452.826 555.876 453.901 553.323 455.058 550.789C464.53 530.03 477.905 521.802 498.442 514.086Q504.998 513.602 511.572 513.516Z"/>
	<path fill="#183269" d="M517.129 513.942C533.055 514.895 547.392 521.815 557.93 533.772C569.934 547.393 573.366 563.422 574.166 581.077C568.919 601.176 560.872 617.706 542.34 628.702C534.223 633.518 521.881 637.885 512.307 636.465C510.977 629.649 511.995 619.684 512.095 612.55C519.1 612.521 525.99 610.681 531.864 606.818Q532.639 606.305 533.387 605.754Q534.136 605.203 534.855 604.615Q535.575 604.027 536.265 603.404Q536.954 602.781 537.612 602.124Q538.27 601.467 538.893 600.778Q539.517 600.089 540.106 599.37Q540.695 598.651 541.247 597.903Q541.799 597.156 542.313 596.381Q542.826 595.607 543.301 594.808Q543.776 594.009 544.21 593.187Q544.644 592.365 545.036 591.522Q545.428 590.68 545.778 589.819Q546.128 588.958 546.434 588.08Q546.741 587.203 547.003 586.311Q547.265 585.42 547.482 584.516Q547.699 583.612 547.871 582.699C549.773 572.926 547.871 562.479 542.234 554.22C534.977 543.59 524.178 539.723 512.041 537.45C512.288 532.358 511.211 518.195 512.474 514.331L517.129 513.942Z"/>
	<path fill="#27427E" d="M511.572 513.516C513.417 513.63 515.301 513.666 517.129 513.942L512.474 514.331C511.211 518.195 512.288 532.358 512.041 537.45C499.681 539.37 489.666 542.984 482.104 553.487C476.087 561.844 473.8 571.723 475.49 581.882Q475.644 582.799 475.843 583.707Q476.042 584.615 476.285 585.512Q476.529 586.409 476.816 587.293Q477.103 588.177 477.434 589.046Q477.765 589.915 478.137 590.766Q478.51 591.618 478.925 592.45Q479.339 593.282 479.794 594.092Q480.249 594.903 480.743 595.69Q481.238 596.478 481.77 597.239Q482.303 598.001 482.872 598.736Q483.441 599.471 484.046 600.177Q484.651 600.883 485.29 601.558Q485.929 602.233 486.6 602.876Q487.272 603.519 487.974 604.128Q488.676 604.737 489.408 605.31Q490.139 605.884 490.898 606.421C497.271 610.933 504.429 612.346 512.095 612.55C511.995 619.684 510.977 629.649 512.307 636.465L511.931 636.824C506.808 635.908 501.497 636.07 496.359 635.179C482.474 632.772 469.122 622.488 461.15 611.173C449.852 595.137 448.903 577.376 452.216 558.601C452.826 555.876 453.901 553.323 455.058 550.789C464.53 530.03 477.905 521.802 498.442 514.086Q504.998 513.602 511.572 513.516Z"/>
	<path fill="#0E7794" d="M341.907 403.534C353.65 410.398 364.989 418.049 376.444 425.388L428.396 458.186C443.115 467.535 457.723 477.229 472.867 485.876C468.501 495.578 466.901 506.159 463.853 516.295C459.845 529.624 453.985 543.383 451.708 557.131C448.053 562.994 444.66 568.967 441.315 575.012Q435.737 585.417 430.019 595.747C427.934 599.543 425.954 603.717 423.473 607.253C417.911 605.477 411.66 604.724 405.904 603.571L369.69 596.388L272.031 576.396C270.839 576.124 269.967 575.98 268.968 575.235C272.144 573.2 292.01 569.672 297.487 568.405Q344.555 557.144 391.944 547.322C405.172 544.464 418.354 541.168 431.653 538.677C425.329 527.432 417.974 516.794 410.76 506.111L383.999 466.456C370.002 445.562 357.155 423.527 341.907 403.534Z"/>
	<path fill="#63B1BB" d="M272.031 576.396C275.674 574.344 280.87 574.591 284.962 574.442C301.54 573.841 318.166 574.92 334.749 574.981L441.315 575.012Q435.737 585.417 430.019 595.747C427.934 599.543 425.954 603.717 423.473 607.253C417.911 605.477 411.66 604.724 405.904 603.571L369.69 596.388L272.031 576.396Z"/>
	<path fill="#0E7794" d="M581.501 568.943C600.559 570.219 619.722 570.315 638.806 571.226C662.689 572.366 686.627 574.22 710.523 574.913C720.414 575.2 730.325 574.546 740.21 574.938C741.986 575.009 743.558 574.954 745.163 575.831C695.513 586.419 646.32 598.86 596.5 608.68L668.501 723.618C672.863 730.667 677.643 737.484 681.927 744.571C669.333 736.207 656.275 728.484 643.468 720.447Q612.993 701.205 582.799 681.522C572.111 674.577 561.222 667.814 550.712 660.607Q538.877 715.518 525.611 770.102C521.7 786.756 518.783 803.8 513.859 820.181L511.602 820.222L510.762 817.631C505.246 803.501 502.475 787.385 499.004 772.618Q491.218 739.265 483.78 705.831C480.561 691.157 477.736 676.353 473.993 661.806C478.811 657.322 505.186 640.752 511.91 637.63L511.931 636.824L512.307 636.465C521.881 637.885 534.223 633.518 542.34 628.702C560.872 617.706 568.919 601.176 574.166 581.077C577.02 577.429 579.207 572.967 581.501 568.943Z"/>
	<path fill="#63B1BB" d="M473.993 661.806C478.811 657.322 505.186 640.752 511.91 637.63C512.391 676.9 511.973 716.128 512.001 755.397L512.04 789.312C512.047 798.615 512.624 808.473 510.762 817.631C505.246 803.501 502.475 787.385 499.004 772.618Q491.218 739.265 483.78 705.831C480.561 691.157 477.736 676.353 473.993 661.806Z"/>
</svg>
