<?xml version="1.0" encoding="utf-8" ?>
<svg xmlns="http://www.w3.org/2000/svg" xmlns:xlink="http://www.w3.org/1999/xlink" width="300" height="300">
	<path fill="#A9F5F3" transform="scale(0.292969 0.292969)" d="M633.749 475.088C633.927 470.515 633.684 465.236 635.146 460.86C635.767 460.159 636.334 459.864 637.215 459.593C647.401 456.466 684.458 459.168 693.21 463.959L693.433 469.681C693.419 494.636 691.833 501.531 675.385 520.73C669.72 511.99 654.336 494.419 646.291 487.195C643.649 484.823 634.522 478.099 633.749 475.088Z"/>
	<path fill="#FCAB09" transform="scale(0.292969 0.292969)" d="M154.144 798.608C163.235 798.594 210.543 797.543 215.438 799.599C203.85 811.718 192.862 824.538 181.652 837.011L84.9928 837.424C70.0242 837.451 51.7751 838.945 37.3223 836.561C46.5039 831.321 66.2889 827.216 77.4714 824.04C101.947 817.088 126.425 809.754 151.093 803.534L154.144 798.608Z"/>
	<path fill="#F67800" transform="scale(0.292969 0.292969)" d="M584.899 274.264Q586.883 270.281 589.028 266.383Q591.174 262.485 593.476 258.677Q595.779 254.87 598.235 251.16Q600.691 247.449 603.296 243.842Q605.902 240.236 608.652 236.738Q611.403 233.241 614.294 229.858Q617.185 226.476 620.212 223.215Q623.239 219.953 626.396 216.818Q628.281 214.947 630.211 213.124Q632.142 211.3 634.117 209.525Q636.091 207.75 638.109 206.024Q640.128 204.298 642.188 202.622Q644.248 200.947 646.349 199.322Q648.449 197.698 650.59 196.126Q652.73 194.554 654.908 193.036Q657.087 191.517 659.302 190.053Q661.517 188.588 663.768 187.179Q666.019 185.77 668.304 184.417Q670.588 183.063 672.906 181.767Q675.224 180.471 677.572 179.232Q679.921 177.993 682.3 176.813Q684.679 175.632 687.086 174.511Q689.493 173.389 691.927 172.328Q694.361 171.266 696.821 170.265Q699.28 169.264 701.764 168.324Q704.247 167.384 706.753 166.505Q709.259 165.627 711.786 164.81Q714.313 163.994 716.859 163.24Q719.406 162.486 721.97 161.796Q724.534 161.105 727.114 160.478Q729.694 159.851 732.29 159.288Q734.885 158.724 737.493 158.225Q740.101 157.726 742.721 157.292Q745.34 156.857 747.97 156.488Q750.6 156.118 753.238 155.813Q755.876 155.509 758.52 155.269Q761.165 155.03 763.815 154.856Q766.465 154.682 769.118 154.573Q771.771 154.465 774.427 154.422Q777.082 154.378 779.737 154.401Q782.017 154.432 784.297 154.51Q786.576 154.588 788.853 154.711Q791.131 154.835 793.405 155.005Q795.68 155.175 797.95 155.391Q800.22 155.607 802.486 155.868Q804.752 156.13 807.011 156.438Q809.271 156.746 811.524 157.099Q813.778 157.452 816.023 157.851Q818.269 158.25 820.505 158.695Q822.742 159.139 824.97 159.629Q827.197 160.118 829.415 160.653Q831.632 161.187 833.838 161.767Q836.043 162.346 838.237 162.97Q840.431 163.594 842.611 164.263Q844.792 164.931 846.958 165.643Q849.125 166.356 851.277 167.112Q853.429 167.868 855.564 168.667Q857.7 169.467 859.82 170.309Q861.939 171.152 864.041 172.037Q866.143 172.923 868.226 173.85Q870.31 174.778 872.374 175.748Q874.438 176.718 876.482 177.729Q878.526 178.74 880.55 179.793Q882.573 180.846 884.574 181.939Q886.576 183.032 888.555 184.166Q890.534 185.3 892.489 186.473Q894.445 187.647 896.376 188.86Q898.308 190.073 900.214 191.324Q902.121 192.576 904.001 193.866Q905.882 195.156 907.736 196.484Q909.59 197.812 911.417 199.178Q913.244 200.543 915.043 201.945C924.189 209.081 932.691 217.258 940.835 225.501C940.167 227.044 939.482 228.102 938.387 229.374C938.246 229.314 938.106 229.251 937.964 229.195C929.606 225.898 920.257 224.158 911.461 222.417C870.284 214.267 828.95 217.475 790.286 234.368Q788.111 235.318 785.961 236.32Q783.81 237.323 781.684 238.377Q779.558 239.432 777.458 240.537Q775.359 241.643 773.286 242.8Q771.214 243.956 769.171 245.162Q767.127 246.369 765.114 247.625Q763.1 248.88 761.118 250.184Q759.135 251.489 757.185 252.841Q755.235 254.193 753.318 255.592Q751.401 256.991 749.519 258.436Q747.637 259.881 745.79 261.371Q743.944 262.862 742.134 264.397Q740.324 265.932 738.552 267.51Q736.78 269.088 735.047 270.709Q733.314 272.33 731.62 273.993Q729.927 275.655 728.275 277.359Q726.622 279.062 725.012 280.805Q723.401 282.548 721.834 284.329Q720.266 286.11 718.742 287.93Q717.218 289.749 715.739 291.604Q714.26 293.46 712.826 295.35Q711.392 297.241 710.005 299.166Q708.617 301.092 707.277 303.05Q705.937 305.008 704.644 306.998Q703.352 308.989 702.108 311.01Q700.865 313.031 699.671 315.082Q698.477 317.132 697.333 319.211Q696.189 321.29 695.096 323.397Q694.003 325.503 692.961 327.635Q691.919 329.767 690.93 331.924Q689.94 334.081 689.003 336.261Q688.067 338.442 687.183 340.644Q686.809 337.434 686.562 334.212Q686.315 330.99 686.196 327.76Q686.077 324.531 686.085 321.299Q686.094 318.067 686.23 314.839Q686.366 311.61 686.629 308.389Q686.893 305.168 687.284 301.96Q687.674 298.752 688.192 295.562Q688.709 292.372 689.352 289.205Q689.995 286.038 690.762 282.899Q691.529 279.759 692.42 276.653Q693.311 273.547 694.324 270.478Q695.337 267.409 696.471 264.383Q697.604 261.356 698.857 258.377Q700.109 255.398 701.478 252.47Q702.847 249.543 704.33 246.672Q705.814 243.801 707.41 240.991C712.672 231.854 718.899 223.595 725.362 215.286C716.176 215.546 706.784 217.364 697.786 219.163C656.435 227.431 616.138 245.582 584.899 274.264Z"/>
	<path fill="#B96103" transform="scale(0.292969 0.292969)" d="M37.6484 185.207L41.9955 190.684C52.4676 204.348 60.6795 219.394 69.8303 233.93C82.0685 253.371 94.8917 272.531 107.404 291.806C154.009 363.601 203.848 433.486 262.471 496.062C278.546 513.222 294.853 529.955 312.568 545.444C310.143 550.834 305.783 556.209 302.51 561.175Q293.354 575.1 284.442 589.182C270.771 613.136 255.089 636.146 240.45 659.536L227.981 679.62C226.203 682.494 224.343 686.425 221.995 688.822C205.561 670.972 188.599 642.23 176.198 621.093Q169.237 609.035 162.62 596.784Q156.003 584.533 149.737 572.099Q143.47 559.666 137.559 547.06Q131.648 534.453 126.097 521.684Q120.545 508.915 115.358 495.994Q110.172 483.073 105.353 470.01Q100.535 456.947 96.0891 443.752Q91.6432 430.557 87.5734 417.242Q77.4847 383.008 69.103 348.317Q60.7212 313.626 54.0668 278.563C47.9508 247.573 41.7668 216.537 37.6484 185.207Z"/>
	<path fill="#A23200" transform="scale(0.292969 0.292969)" d="M41.9955 190.684C52.4676 204.348 60.6795 219.394 69.8303 233.93C82.0685 253.371 94.8917 272.531 107.404 291.806C154.009 363.601 203.848 433.486 262.471 496.062C278.546 513.222 294.853 529.955 312.568 545.444C310.143 550.834 305.783 556.209 302.51 561.175Q293.354 575.1 284.442 589.182Q277.88 582.489 271.435 575.683C211.829 512.408 165.651 438.894 124.41 362.745Q92.3814 303.506 63.9608 242.455L50.0937 212.727C47.4575 207.066 44.2607 201.23 42.4425 195.263C41.9804 193.747 41.9498 192.255 41.9955 190.684Z"/>
	<path fill="#417E90" transform="scale(0.292969 0.292969)" d="M312.568 545.444C322.535 530.383 332.544 517.689 351.033 514.024C363.391 511.574 374.872 512.982 386.77 516.891C406.811 523.475 427.303 536.528 445.621 547.016L519.011 588.526L550.115 606.34C555.623 609.462 561.118 612.886 566.822 615.628C571.365 618.027 575.661 620.793 579.993 623.547C612.815 643.756 645.49 663.81 675.434 688.235C685.837 696.721 695.584 705.859 705.304 715.103C685.227 718.024 665.182 718.224 644.95 717.576C546.725 714.428 453.035 677.714 373.418 621.322Q317.843 682.548 263.845 745.168L232.996 779.913C227.16 786.486 221.572 793.301 215.438 799.599C210.543 797.543 163.235 798.594 154.144 798.608C165.297 781.715 175.561 764.134 186.204 746.91C198.152 727.574 210.512 708.433 221.995 688.822C224.343 686.425 226.203 682.494 227.981 679.62L240.45 659.536C255.089 636.146 270.771 613.136 284.442 589.182Q293.353 575.1 302.51 561.175C305.783 556.209 310.143 550.834 312.568 545.444Z"/>
	<path fill="#FCAB09" transform="scale(0.292969 0.292969)" d="M747.54 437.524C748.474 436.89 749.312 436.485 750.348 436.038C759.213 432.207 757.905 427.987 762.134 424.05C762.64 423.578 763.34 423.571 763.997 423.777C764.895 424.059 765.349 424.458 765.645 425.31C767.615 430.988 763.352 437.454 772.851 442.847C776.291 444.8 780.466 444.941 784.185 443.748C788.872 442.245 792.159 439.203 794.971 435.287L829.435 446.253C826.825 453.554 823.236 462.442 826.89 470.01C828.63 473.614 831.314 475.615 834.886 477.181L835.733 477.562L836.244 477.784C836.915 480.938 837.621 487.329 839.523 489.799C835.79 508.496 830.268 526.696 826.349 545.293C829.94 546.024 833.851 546.613 836.873 548.82C846.193 548.066 853.908 547.278 861.684 553.925C863.441 555.427 865.187 557.141 866.695 558.894C871.12 567.817 873.129 575.625 869.839 585.399C867.439 592.53 863.155 599.149 858.67 605.138C853.935 613.94 847.788 622.21 841.584 630.026Q840.181 631.791 838.745 633.529Q837.309 635.268 835.84 636.979Q834.371 638.689 832.871 640.372Q831.37 642.055 829.838 643.71Q828.306 645.364 826.743 646.989Q825.18 648.614 823.586 650.21Q821.993 651.805 820.37 653.37Q818.746 654.935 817.094 656.469Q815.442 658.004 813.761 659.506Q812.08 661.009 810.37 662.48Q808.661 663.951 806.925 665.389Q805.188 666.827 803.425 668.233Q801.662 669.638 799.872 671.01Q798.083 672.382 796.268 673.72Q794.453 675.057 792.613 676.361Q790.773 677.664 788.909 678.933Q787.044 680.201 785.157 681.434Q783.269 682.667 781.358 683.865Q779.448 685.062 777.515 686.223Q775.582 687.384 773.627 688.508Q771.673 689.633 769.697 690.72Q767.722 691.807 765.727 692.857Q763.731 693.907 761.716 694.919Q759.701 695.932 757.668 696.906Q755.634 697.88 753.583 698.815Q751.531 699.75 749.462 700.647Q747.393 701.544 745.308 702.401Q743.222 703.258 741.121 704.076Q739.02 704.894 736.904 705.673Q734.787 706.451 732.657 707.189Q730.526 707.927 728.382 708.625Q726.238 709.323 724.081 709.98C717.872 711.842 711.481 713.179 705.304 715.103C695.584 705.859 685.837 696.721 675.434 688.235C645.49 663.81 612.815 643.756 579.993 623.547C575.661 620.793 571.365 618.027 566.822 615.628C581.715 584.86 609.006 562.792 631.489 537.911C629.686 535.973 627.946 533.891 626.7 531.549C624.444 527.58 617.376 522.77 617.733 518.003C617.922 515.486 620.105 514.136 621.944 512.805L622.568 512.358C621.97 510.407 620.459 509.911 619.209 508.423C618.546 507.634 618.157 506.897 618.409 505.864C618.992 503.469 622.8 501.367 624.849 500.259C623.324 498.697 621.235 497.014 620.692 494.816C620.388 493.587 620.541 492.401 621.314 491.369C622.991 489.128 626.439 488.537 628.984 488.039C627.289 485.924 625.817 483.821 624.87 481.254C624.316 479.754 624.307 479.067 624.981 477.631C627.224 476.017 630.708 476.445 633.347 476.493L633.749 475.088C634.522 478.099 643.649 484.823 646.291 487.195C654.336 494.419 669.72 511.99 675.385 520.73C691.833 501.531 693.419 494.636 693.433 469.681L693.21 463.959C700.988 455.031 730.145 437.434 733.649 430.145C735.142 431.667 736.538 433.277 737.952 434.871C740.894 436.129 744.302 437.519 747.54 437.524ZM747.54 437.524C744.302 437.519 740.894 436.129 737.952 434.871C736.538 433.277 735.142 431.667 733.649 430.145C730.145 437.434 700.988 455.031 693.21 463.959L693.433 469.681C693.419 494.636 691.833 501.531 675.385 520.73Q679.703 527.099 684.244 533.312C685.381 535.566 686.878 538.172 688.668 539.983C690.336 542.847 691.977 546.453 694.146 548.921C703.432 540.177 714.649 529.662 726.691 525.168C743.295 518.972 761.968 524.23 777.417 531.393C788.455 539.136 803.65 541.274 816.647 543.61C819.731 544.164 823.253 545.166 826.349 545.293C830.268 526.696 835.79 508.496 839.523 489.799C837.621 487.329 836.915 480.938 836.244 477.784L835.733 477.562L834.886 477.181C831.314 475.615 828.63 473.614 826.89 470.01C823.236 462.442 826.825 453.554 829.435 446.253L794.971 435.287C792.159 439.203 788.872 442.245 784.185 443.748C780.466 444.941 776.291 444.8 772.851 442.847C763.352 437.454 767.615 430.988 765.645 425.31C765.349 424.458 764.895 424.059 763.997 423.777C763.34 423.571 762.64 423.578 762.134 424.05C757.905 427.987 759.213 432.207 750.348 436.038C749.312 436.485 748.474 436.89 747.54 437.524ZM660.146 552.878C653.726 566.931 645.298 582.86 640.646 597.469C650.849 590.021 660.137 581.435 670.415 574.098C671.044 572.354 669.55 569.772 668.756 568.088C666.28 562.841 663.255 557.769 660.146 552.878Z"/>
	<path fill="#A9F5F3" transform="scale(0.292969 0.292969)" d="M626.7 531.549C637.457 536.213 647.326 542.954 656.976 549.546C647.431 546.363 639.295 544.526 631.489 537.911C629.686 535.973 627.946 533.891 626.7 531.549Z"/>
	<path fill="#FEE279" transform="scale(0.292969 0.292969)" d="M694.146 548.921C703.432 540.177 714.649 529.662 726.691 525.168C743.295 518.972 761.968 524.23 777.417 531.393C788.455 539.136 803.65 541.274 816.647 543.61C819.731 544.164 823.253 545.166 826.349 545.293C829.94 546.024 833.851 546.613 836.873 548.82C829.423 553.754 823.204 562.367 817.307 569.027C809.126 578.266 800.548 587.11 792.169 596.162C785.075 603.828 778.057 612.344 769.907 618.881C766.581 621.549 763.507 623.436 759.386 624.632C759.278 624.592 759.17 624.55 759.062 624.511C758.014 624.138 756.967 623.771 755.95 623.321C741.228 616.814 715.282 579.167 705.173 565.162C701.731 560.394 696.189 554.363 694.146 548.921Z"/>
	<path fill="#FEE279" transform="scale(0.292969 0.292969)" d="M670.415 574.098C670.55 574.238 670.694 574.369 670.82 574.517C674.79 579.224 680.437 592.911 683.656 599.037C697.224 624.852 710.997 649.748 731.53 670.762C738.396 677.788 746.375 685.603 756.629 686.794C771.83 688.559 788.283 674.804 799.287 665.675C811.534 655.514 822.787 644.013 833.588 632.344C837.125 628.523 855.194 606.253 858.67 605.138C853.935 613.94 847.788 622.21 841.584 630.026Q840.181 631.791 838.745 633.529Q837.309 635.268 835.84 636.979Q834.371 638.689 832.871 640.372Q831.37 642.055 829.838 643.71Q828.306 645.364 826.743 646.989Q825.18 648.614 823.586 650.21Q821.993 651.805 820.37 653.37Q818.746 654.935 817.094 656.469Q815.442 658.004 813.761 659.506Q812.08 661.009 810.37 662.48Q808.661 663.951 806.925 665.389Q805.188 666.827 803.425 668.233Q801.662 669.638 799.872 671.01Q798.083 672.382 796.268 673.72Q794.453 675.057 792.613 676.361Q790.773 677.664 788.909 678.933Q787.044 680.201 785.157 681.434Q783.269 682.667 781.358 683.865Q779.448 685.062 777.515 686.223Q775.582 687.384 773.627 688.508Q771.673 689.633 769.697 690.72Q767.722 691.807 765.727 692.857Q763.731 693.907 761.716 694.919Q759.701 695.932 757.668 696.906Q755.634 697.88 753.583 698.815Q751.531 699.75 749.462 700.647Q747.393 701.544 745.308 702.401Q743.222 703.258 741.121 704.076Q739.02 704.894 736.904 705.673Q734.787 706.451 732.657 707.189Q730.526 707.927 728.382 708.625Q726.238 709.323 724.081 709.98C717.872 711.842 711.481 713.179 705.304 715.103C695.584 705.859 685.837 696.721 675.434 688.235C645.49 663.81 612.815 643.756 579.993 623.547C585.572 622.109 591.588 622.362 597.25 621.139C610.909 618.19 631.019 607.673 640.646 597.469C650.849 590.021 660.137 581.435 670.415 574.098Z"/>
	<path fill="#FCAB09" transform="scale(0.292969 0.292969)" d="M747.54 437.524C748.474 436.89 749.312 436.485 750.348 436.038C759.213 432.207 757.905 427.987 762.134 424.05C762.64 423.578 763.34 423.571 763.997 423.777C764.895 424.059 765.349 424.458 765.645 425.31C767.615 430.988 763.352 437.454 772.851 442.847C776.291 444.8 780.466 444.941 784.185 443.748C788.872 442.245 792.159 439.203 794.971 435.287L829.435 446.253C826.825 453.554 823.236 462.442 826.89 470.01C828.63 473.614 831.314 475.615 834.886 477.181L835.733 477.562L836.244 477.784C836.915 480.938 837.621 487.329 839.523 489.799C835.79 508.496 830.268 526.696 826.349 545.293C823.253 545.166 819.731 544.164 816.647 543.61C803.65 541.274 788.455 539.136 777.417 531.393C761.968 524.23 743.295 518.972 726.691 525.168C714.649 529.662 703.432 540.177 694.146 548.921C691.977 546.453 690.336 542.847 688.668 539.983C686.878 538.172 685.381 535.566 684.244 533.312Q679.703 527.099 675.385 520.73C691.833 501.531 693.419 494.636 693.433 469.681L693.21 463.959C700.988 455.031 730.145 437.434 733.649 430.145C735.142 431.667 736.538 433.277 737.952 434.871C740.894 436.129 744.302 437.519 747.54 437.524ZM733.649 430.145C730.145 437.434 700.988 455.031 693.21 463.959L693.433 469.681C693.419 494.636 691.833 501.531 675.385 520.73Q679.703 527.099 684.244 533.312C685.381 535.566 686.878 538.172 688.668 539.983C688.763 539.691 688.835 539.389 688.955 539.106C690.447 535.572 701.723 521.93 704.732 517.824Q717.916 499.756 730.439 481.224C732.675 477.962 740.061 465.443 743.038 464.192L743.936 465.068C744.087 459.663 744.587 454.311 744.627 448.891C746.242 445.482 747.548 441.311 747.54 437.524C744.302 437.519 740.894 436.129 737.952 434.871C736.538 433.277 735.142 431.667 733.649 430.145ZM688.668 539.983C690.336 542.847 691.977 546.453 694.146 548.921C703.432 540.177 714.649 529.662 726.691 525.168C743.295 518.972 761.968 524.23 777.417 531.393C782.941 523.071 787.79 514.113 792.855 505.494C781.881 506.063 770.95 506.185 761.619 499.473C750.362 491.376 746.164 478.137 743.936 465.068L743.038 464.192C740.061 465.443 732.675 477.962 730.439 481.224Q717.916 499.756 704.732 517.824C701.723 521.93 690.447 535.572 688.955 539.106C688.835 539.389 688.763 539.691 688.668 539.983Z"/>
	<path fill="#FEE279" transform="scale(0.292969 0.292969)" d="M733.649 430.145C735.142 431.667 736.538 433.277 737.952 434.871C729.658 442.762 719.692 449.202 710.663 456.265C705.897 459.994 698.459 467.052 693.433 469.681L693.21 463.959C700.988 455.031 730.145 437.434 733.649 430.145Z"/>
	<path fill="#A23200" transform="scale(0.292969 0.292969)" d="M684.244 533.312C693.087 523.89 700.108 513.032 707.646 502.59C720.455 484.849 733.043 467.483 744.627 448.891C744.587 454.311 744.087 459.663 743.936 465.068L743.038 464.192C740.061 465.443 732.675 477.962 730.439 481.224Q717.916 499.756 704.732 517.824C701.723 521.93 690.447 535.572 688.955 539.106C688.835 539.389 688.763 539.691 688.668 539.983C686.878 538.172 685.381 535.566 684.244 533.312Z"/>
	<path fill="#B96103" transform="scale(0.292969 0.292969)" d="M980.485 183.944C980.549 216.203 978.487 248.718 976.936 280.943C970.992 404.491 958.14 548.369 904.2 660.679Q900.88 667.659 897.262 674.489Q893.644 681.319 889.736 687.987Q885.827 694.655 881.635 701.148Q877.443 707.642 872.975 713.949Q868.507 720.256 863.772 726.364Q859.037 732.473 854.043 738.372Q849.049 744.271 843.805 749.95Q838.562 755.629 833.079 761.076C764.093 830.346 665.461 868.339 568.129 868.43C552.547 868.444 536.826 867.107 521.356 865.329C426.113 854.38 332.354 813.023 263.845 745.168Q317.843 682.548 373.418 621.322C453.035 677.714 546.725 714.428 644.95 717.576C665.182 718.224 685.227 718.024 705.304 715.103C711.481 713.179 717.872 711.842 724.081 709.98Q726.238 709.323 728.382 708.625Q730.526 707.927 732.657 707.189Q734.787 706.451 736.904 705.673Q739.02 704.894 741.121 704.076Q743.222 703.258 745.308 702.401Q747.393 701.544 749.462 700.647Q751.531 699.75 753.582 698.815Q755.634 697.879 757.668 696.905Q759.701 695.932 761.716 694.919Q763.731 693.907 765.727 692.857Q767.722 691.807 769.697 690.72Q771.673 689.633 773.627 688.508Q775.582 687.384 777.515 686.223Q779.447 685.062 781.358 683.865Q783.269 682.667 785.157 681.434Q787.044 680.201 788.909 678.933Q790.773 677.664 792.613 676.361Q794.453 675.057 796.268 673.72Q798.083 672.382 799.872 671.01Q801.662 669.638 803.425 668.233Q805.188 666.827 806.925 665.389Q808.661 663.951 810.37 662.48Q812.079 661.009 813.76 659.506Q815.442 658.004 817.094 656.469Q818.746 654.935 820.37 653.37Q821.993 651.805 823.586 650.21Q825.18 648.614 826.743 646.989Q828.306 645.364 829.838 643.71Q831.37 642.055 832.87 640.372Q834.371 638.69 835.84 636.979Q837.309 635.268 838.745 633.529Q840.181 631.791 841.584 630.026C847.788 622.21 853.935 613.94 858.67 605.138C863.155 599.149 867.439 592.53 869.839 585.399C873.129 575.625 871.12 567.817 866.695 558.894C865.187 557.141 863.441 555.427 861.684 553.925C853.908 547.278 846.193 548.066 836.873 548.82C833.851 546.613 829.94 546.024 826.349 545.293C830.268 526.696 835.79 508.496 839.523 489.799C837.621 487.329 836.915 480.938 836.244 477.784L835.733 477.562L834.886 477.181C831.314 475.615 828.63 473.614 826.89 470.01C823.236 462.442 826.825 453.554 829.435 446.253L794.971 435.287C792.159 439.203 788.872 442.245 784.185 443.748C780.466 444.941 776.291 444.8 772.851 442.847C763.352 437.454 767.615 430.988 765.645 425.31C765.349 424.458 764.895 424.059 763.997 423.777C763.34 423.571 762.64 423.578 762.134 424.05C757.905 427.987 759.213 432.207 750.348 436.038C749.312 436.485 748.474 436.89 747.54 437.524C744.302 437.519 740.894 436.129 737.952 434.871C736.538 433.277 735.142 431.667 733.649 430.145C731.715 426.876 731.065 422.621 731.829 418.903C731.922 417.508 732.183 416.289 732.669 414.971Q732.915 414.287 733.229 413.632Q733.542 412.976 733.919 412.355Q734.296 411.734 734.733 411.154Q735.171 410.573 735.664 410.04Q736.157 409.506 736.701 409.024Q737.244 408.542 737.833 408.117Q738.423 407.691 739.051 407.327Q739.68 406.963 740.342 406.663C745.363 404.374 750.379 405.105 755.386 406.886C758.693 399.504 761.748 392.592 766.434 385.952C766.739 385.352 766.716 385.579 766.712 384.963C766.671 379.827 766.594 373.982 769.224 369.382C777.178 355.47 796.965 350.817 811.695 350.374C815.654 350.255 821.817 351.346 825.446 350.178C825.631 350.118 825.803 350.021 825.982 349.943C830.316 343.059 846.197 328.075 852.624 321.041Q875.351 296.139 898.383 271.519C911.574 257.293 924.613 243.048 938.387 229.374C939.482 228.102 940.167 227.044 940.835 225.501L941.339 225.819C945.77 221.214 949.818 216.116 954.174 211.406C962.776 202.104 971.687 193.061 980.485 183.944ZM891.393 384.076C894.515 390.617 899.048 396.425 902.116 402.984C904.521 408.125 905.729 414.29 908.334 419.174C911.653 411.126 913.548 402.612 915.758 394.217Q919.814 378.811 924.04 363.451L961.576 222.4C957.027 230.076 954.162 239.313 950.92 247.618C947.939 255.25 944.618 262.759 941.381 270.285Q916.933 327.421 891.393 384.076ZM839.523 489.799C835.79 508.496 830.268 526.696 826.349 545.293C829.94 546.024 833.851 546.613 836.873 548.82C846.193 548.066 853.908 547.278 861.684 553.925C863.441 555.427 865.187 557.141 866.695 558.894C872.033 535.849 880.957 513.624 887.022 490.756C877.695 496.123 867.653 502.251 856.399 500.849C848.912 499.916 844.042 495.368 839.523 489.799ZM866.836 362.891C872.743 367.034 878.482 372.782 884.707 376.236C889.914 365.409 895.575 354.805 900.711 343.92C912.313 319.331 923.174 294.436 934.383 269.672C940.726 255.66 948.495 241.908 953.669 227.427C948.917 233.665 945.674 241.249 941.245 247.788Q917.053 283.907 893.889 320.695C884.931 334.815 876.299 349.094 866.836 362.891ZM944.957 229.489C929.991 245.949 915.721 263.024 900.81 279.523C879.066 303.583 856.883 327.12 835.801 351.785C840.431 353.339 853.23 357.304 857.74 358.176C863.138 349.776 869.649 341.96 875.284 333.686L919.263 268.415C927.773 255.954 937.893 242.75 944.957 229.489Z"/>
	<path fill="#090D06" transform="scale(0.292969 0.292969)" d="M766.434 385.952C766.739 385.352 766.716 385.579 766.712 384.963C766.671 379.827 766.594 373.982 769.224 369.382C777.178 355.47 796.965 350.817 811.695 350.374C815.654 350.255 821.817 351.346 825.446 350.178C825.631 350.118 825.803 350.021 825.982 349.943C829.077 350.978 832.573 351.284 835.801 351.785C840.431 353.339 853.23 357.304 857.74 358.176C860.947 359.525 863.857 361.098 866.836 362.891C872.743 367.034 878.482 372.782 884.707 376.236C887.258 378.442 889.593 381.221 891.393 384.076C894.515 390.617 899.048 396.425 902.116 402.984C904.521 408.125 905.729 414.29 908.334 419.174C911.588 441.047 909.949 461.812 896.33 480.131C893.536 483.89 890.336 487.45 887.022 490.756C877.695 496.123 867.653 502.251 856.399 500.849C848.912 499.916 844.042 495.368 839.523 489.799C837.621 487.329 836.915 480.938 836.244 477.784L835.733 477.562L834.886 477.181C831.314 475.615 828.63 473.614 826.89 470.01C823.236 462.442 826.825 453.554 829.435 446.253L794.971 435.287C792.159 439.203 788.872 442.245 784.185 443.748C780.466 444.941 776.291 444.8 772.851 442.847C763.352 437.454 767.615 430.988 765.645 425.31C765.349 424.458 764.895 424.059 763.997 423.777C763.34 423.571 762.64 423.578 762.134 424.05C757.905 427.987 759.213 432.207 750.348 436.038C749.312 436.485 748.474 436.89 747.54 437.524C744.302 437.519 740.894 436.129 737.952 434.871C736.538 433.277 735.142 431.667 733.649 430.145C731.715 426.876 731.065 422.621 731.829 418.903C731.922 417.508 732.183 416.289 732.669 414.971Q732.915 414.287 733.229 413.632Q733.542 412.976 733.919 412.355Q734.296 411.734 734.733 411.154Q735.171 410.573 735.664 410.04Q736.157 409.506 736.701 409.024Q737.244 408.542 737.833 408.117Q738.423 407.691 739.051 407.327Q739.68 406.963 740.342 406.663C745.363 404.374 750.379 405.105 755.386 406.886C758.693 399.504 761.748 392.592 766.434 385.952Z"/>
	<path fill="#FCAB09" transform="scale(0.292969 0.292969)" d="M839.191 448.487C841.036 448.483 843.021 448.348 844.843 448.661C848.321 449.258 851.788 451.887 853.671 454.806Q854.036 455.365 854.34 455.958Q854.645 456.552 854.885 457.175Q855.126 457.797 855.3 458.441Q855.475 459.085 855.581 459.744Q855.687 460.403 855.723 461.069Q855.76 461.736 855.726 462.402Q855.693 463.068 855.59 463.728Q855.487 464.387 855.316 465.032C854.065 469.633 850.638 472.23 846.638 474.401C844.198 474.85 841.682 475.08 839.242 474.52C836.191 473.818 833.54 472.078 831.888 469.39C829.93 466.204 829.641 462.062 830.624 458.508C831.993 453.556 834.975 450.976 839.191 448.487Z"/>
	<path fill="#FCAB09" transform="scale(0.292969 0.292969)" d="M766.434 385.952C766.567 386.079 766.712 386.195 766.835 386.332C768.224 387.886 769.024 390.343 770.051 392.174C772.077 395.784 774.479 399.43 777.319 402.459C790.519 416.541 816.858 429.277 834.063 438.374L831.163 444.234C819.734 439.534 808.228 436.129 796.368 432.728C796.815 427.256 797.152 422.252 793.319 417.759C790.855 414.871 787.307 413.224 783.534 412.995Q782.719 412.952 781.903 412.99Q781.087 413.028 780.279 413.146Q779.471 413.264 778.678 413.46Q777.886 413.657 777.116 413.931Q776.347 414.205 775.608 414.553Q774.87 414.901 774.169 415.32Q773.468 415.739 772.812 416.225Q772.155 416.711 771.55 417.259C770.167 418.514 768.897 420.01 767.665 421.411L766.964 421.169C765.766 420.745 764.416 420.326 763.402 419.546C761.607 418.165 760.224 413.6 758.822 411.634C755.064 406.364 747.237 404.659 741.47 407.259C736.429 409.531 733.619 413.87 731.829 418.903C731.922 417.508 732.183 416.289 732.669 414.971Q732.915 414.287 733.229 413.632Q733.542 412.976 733.919 412.355Q734.296 411.734 734.733 411.154Q735.171 410.573 735.664 410.04Q736.157 409.506 736.701 409.024Q737.244 408.542 737.833 408.117Q738.423 407.691 739.051 407.327Q739.68 406.963 740.342 406.663C745.363 404.374 750.379 405.105 755.386 406.886C758.693 399.504 761.748 392.592 766.434 385.952Z"/>
</svg>
