<?xml version="1.0" encoding="utf-8" ?>
<svg xmlns="http://www.w3.org/2000/svg" xmlns:xlink="http://www.w3.org/1999/xlink" width="1024" height="1024">
	<path fill="#FB5551" d="M781.521 518.904C781.756 518.921 781.993 518.922 782.225 518.955C787.851 519.77 814.285 548.059 818.11 553.833C819.315 555.653 820.449 557.299 819.786 559.552C818.994 562.247 816.56 563.482 814.241 564.68C813.828 564.645 813.415 564.607 813.006 564.544C807.086 563.618 780.904 536.097 776.78 529.614C775.782 528.045 775.088 526.426 775.707 524.551C776.635 521.741 779.095 520.313 781.521 518.904Z"/>
	<path fill="#FB5551" d="M212.749 448.447Q213.342 448.508 213.928 448.617C220.628 449.798 244.786 475.411 248.598 481.589C249.628 483.258 250.342 485.031 249.698 487C248.813 489.705 246.648 491.037 244.278 492.35C243.373 492.394 242.405 492.485 241.525 492.203C234.588 489.986 209.806 463.475 206.503 456.254C207.93 452.147 208.759 450.458 212.749 448.447Z"/>
	<path fill="#FB5551" d="M241.286 520.41C244.134 520.775 246.684 521.851 248.444 524.216C249.416 525.523 249.893 527.218 249.526 528.831C248.198 534.655 222.006 559.861 216.096 563.29C215.001 563.199 213.938 563.053 212.864 562.81C210.964 562.38 208.961 561.495 208.05 559.637C207.165 557.831 207.24 555.958 207.865 554.077C210.507 546.128 233.538 524.101 241.286 520.41Z"/>
	<path fill="#FB5551" d="M811.135 449.452C812.155 449.426 813.235 449.387 814.24 449.576C816.103 449.925 818.363 451.043 819.411 452.682C820.131 453.808 820.287 455.119 820.025 456.41C818.929 461.808 789.3 491.044 783.268 495.343C782.718 495.401 782.644 495.434 782.009 495.354C779.894 495.085 777.211 493.855 776.042 491.998Q775.829 491.664 775.654 491.308Q775.478 490.952 775.342 490.58Q775.206 490.207 775.111 489.822Q775.017 489.437 774.964 489.044Q774.911 488.651 774.902 488.255Q774.892 487.858 774.925 487.463Q774.958 487.068 775.034 486.679Q775.11 486.29 775.227 485.911C776.951 480.356 805.198 452.906 811.135 449.452Z"/>
	<path fill="#FEA209" d="M525.915 270.541C516.496 270.675 507.115 273.151 497.765 270.257C490.885 268.127 485.515 263.288 482.214 256.956C477.866 248.618 477.031 238.187 479.958 229.252Q480.215 228.476 480.51 227.713Q480.805 226.95 481.137 226.202Q481.469 225.455 481.837 224.725Q482.205 223.994 482.609 223.283Q483.013 222.572 483.451 221.881Q483.889 221.19 484.36 220.522Q484.832 219.854 485.336 219.209Q485.839 218.565 486.374 217.946Q486.909 217.327 487.473 216.736Q488.038 216.144 488.631 215.58Q489.224 215.017 489.843 214.483Q490.463 213.95 491.108 213.447Q491.754 212.945 492.423 212.474Q493.092 212.004 493.783 211.567Q494.475 211.131 495.187 210.728Q495.899 210.326 496.63 209.959C505.778 205.472 515.396 206.343 524.766 209.512C524.506 209.684 524.249 209.86 523.986 210.027C521.707 211.475 518.948 212.261 516.523 213.467C507.761 217.822 502.273 224.318 499.958 233.877Q499.779 234.648 499.638 235.426Q499.496 236.204 499.393 236.988Q499.289 237.772 499.224 238.561Q499.158 239.349 499.13 240.139Q499.103 240.93 499.114 241.721Q499.124 242.512 499.173 243.301Q499.222 244.091 499.309 244.877Q499.396 245.663 499.521 246.444Q499.646 247.225 499.808 247.999Q499.971 248.774 500.171 249.539Q500.37 250.304 500.607 251.059Q500.843 251.814 501.115 252.557Q501.388 253.299 501.696 254.028Q502.004 254.756 502.347 255.469Q502.69 256.182 503.067 256.877Q503.444 257.573 503.854 258.249C510.771 269.595 517.006 265.25 525.915 270.541Z"/>
	<path fill="#FEC530" d="M524.766 209.512C533.384 213.257 539.959 217.982 543.513 227.135C546.805 235.616 546.599 245.689 542.87 253.995C539.433 261.65 533.32 266.878 525.915 270.541C517.006 265.25 510.771 269.595 503.854 258.249Q503.444 257.573 503.067 256.877Q502.69 256.182 502.347 255.469Q502.004 254.756 501.696 254.028Q501.388 253.299 501.115 252.557Q500.843 251.814 500.607 251.059Q500.37 250.304 500.171 249.539Q499.971 248.774 499.808 247.999Q499.646 247.225 499.521 246.444Q499.396 245.663 499.309 244.877Q499.222 244.091 499.173 243.301Q499.124 242.512 499.114 241.721Q499.103 240.93 499.13 240.139Q499.158 239.349 499.224 238.561Q499.289 237.772 499.393 236.988Q499.496 236.204 499.638 235.426Q499.779 234.648 499.958 233.877C502.273 224.318 507.761 217.822 516.523 213.467C518.948 212.261 521.707 211.475 523.986 210.027C524.249 209.86 524.506 209.684 524.766 209.512Z"/>
	<path fill="#FDF01A" d="M557.359 738.687C562.396 738.604 581.723 737.664 584.876 739.653C586.097 742.33 584.698 745.81 583.737 748.418C576.344 768.482 562.419 784.557 542.852 793.472C524.54 801.816 505.153 801.624 486.4 795.003C492.299 788.012 499.97 781.979 506.769 775.894C512.677 770.607 518.208 765.052 523.817 759.456C527.878 755.404 540.369 741.654 544.558 739.322C547.572 737.644 553.46 740.79 556.974 738.959C557.114 738.887 557.231 738.778 557.359 738.687Z"/>
	<path fill="#FEA209" d="M438.108 738.649C455.43 738.083 472.886 738.475 490.222 738.47Q523.792 738.284 557.359 738.687C557.231 738.778 557.114 738.887 556.974 738.959C553.46 740.79 547.572 737.644 544.558 739.322C540.369 741.654 527.878 755.404 523.817 759.456C518.208 765.052 512.677 770.607 506.769 775.894C499.97 781.979 492.299 788.012 486.4 795.003C480.165 792.487 474.02 789.457 468.453 785.671Q466.979 784.647 465.557 783.553Q464.135 782.459 462.768 781.296Q461.401 780.134 460.092 778.906Q458.783 777.678 457.536 776.388Q456.289 775.097 455.106 773.748Q453.923 772.398 452.808 770.993Q451.693 769.587 450.647 768.128Q449.602 766.67 448.629 765.162Q447.656 763.654 446.757 762.101Q445.859 760.547 445.038 758.952Q444.216 757.356 443.474 755.723Q442.731 754.089 442.069 752.421Q441.408 750.753 440.828 749.055Q440.248 747.356 439.752 745.632Q439.256 743.907 438.845 742.16Q438.434 740.414 438.108 738.649Z"/>
	<path fill="#FEA209" d="M322.346 573.383C323.125 549.692 322.657 525.621 322.471 501.903C322.326 483.554 321.798 465.126 324.511 446.917Q324.865 444.568 325.276 442.229Q325.688 439.89 326.156 437.561Q326.624 435.232 327.15 432.916Q327.675 430.6 328.256 428.297Q328.838 425.994 329.476 423.706Q330.113 421.418 330.807 419.146Q331.5 416.874 332.249 414.62Q332.998 412.366 333.801 410.131Q334.605 407.896 335.463 405.681Q336.321 403.466 337.232 401.273Q338.144 399.079 339.109 396.909Q340.075 394.739 341.093 392.593Q342.11 390.447 343.18 388.326Q344.25 386.206 345.372 384.112Q346.494 382.018 347.666 379.952Q348.838 377.887 350.061 375.85Q351.283 373.814 352.555 371.808Q353.827 369.802 355.148 367.827Q356.468 365.853 357.837 363.912Q359.205 361.97 360.621 360.063Q362.036 358.155 363.498 356.283Q364.959 354.411 366.466 352.575Q367.973 350.739 369.524 348.94Q371.076 347.142 372.671 345.382Q374.266 343.621 375.903 341.901Q377.54 340.18 379.219 338.5Q380.898 336.82 382.618 335.181Q384.337 333.543 386.096 331.947Q387.855 330.35 389.653 328.798Q391.45 327.245 393.285 325.737Q395.12 324.229 396.991 322.766Q398.863 321.303 400.769 319.886C438.324 292.309 488.758 279.107 534.935 286.208C534.659 286.401 534.388 286.602 534.106 286.787C528.491 290.481 519.078 290.008 512.556 291.656C506.79 293.114 500.884 295.228 495.343 297.379C484.985 301.399 474.284 306.472 464.926 312.469C427.331 336.562 396.508 378.151 385.573 421.614C377.215 454.833 378.851 488.596 378.855 522.555C378.856 539.42 378.007 556.653 378.743 573.471L322.346 573.383Z"/>
	<path fill="#FB5551" d="M378.743 573.471L701.048 573.262C701.987 591.128 703.7 607.575 708.428 624.922C716.064 650.75 727.637 676.652 744.722 697.707C753.852 697.391 768.883 695.407 776.072 702.226C778.862 704.873 780.253 708.573 780.181 712.392Q780.173 713.087 780.092 713.777Q780.011 714.467 779.858 715.144Q779.704 715.822 779.479 716.479Q779.255 717.136 778.962 717.766Q778.669 718.396 778.311 718.992Q777.953 719.587 777.534 720.142Q777.116 720.696 776.64 721.203Q776.165 721.709 775.639 722.163C771.862 725.442 766.713 726.18 761.886 726.464C754.791 726.882 747.588 726.592 740.478 726.579L702.491 726.527L587.289 726.548L463.88 726.199L385.75 726.348C370.472 726.37 355.146 726.884 339.874 726.317C339.731 726.324 339.589 726.332 339.447 726.337C324.006 726.884 308.416 726.27 292.953 726.417C281.473 726.525 268.567 728.103 257.241 726.326C254.806 725.944 252.562 724.914 250.785 723.183C247.833 720.306 245.632 714.579 245.762 710.453C246.406 689.984 270.825 704.418 281.771 693.99C297.667 678.848 315.326 631.249 319.437 609.579C321.707 597.616 322.023 585.515 322.346 573.383L378.743 573.471Z"/>
	<path fill="#FEC530" d="M534.935 286.208Q537.265 286.491 539.588 286.832Q541.91 287.172 544.224 287.571Q546.537 287.969 548.839 288.425Q551.142 288.881 553.433 289.394Q555.723 289.907 558 290.477Q560.278 291.047 562.54 291.674Q564.802 292.3 567.048 292.983Q569.294 293.665 571.522 294.404Q573.75 295.142 575.959 295.935Q578.169 296.729 580.357 297.577Q582.546 298.425 584.713 299.328Q586.88 300.231 589.024 301.187Q591.167 302.143 593.287 303.152Q595.406 304.161 597.5 305.223Q599.593 306.285 601.66 307.398Q603.726 308.512 605.764 309.677Q607.802 310.841 609.811 312.056Q611.819 313.271 613.797 314.536Q615.774 315.8 617.72 317.114Q619.665 318.427 621.577 319.789Q623.49 321.15 625.367 322.559Q627.245 323.967 629.087 325.422Q630.929 326.877 632.734 328.378Q634.54 329.878 636.307 331.423Q638.074 332.968 639.803 334.556Q641.531 336.145 643.219 337.775Q644.907 339.406 646.555 341.079Q648.202 342.751 649.807 344.464Q651.412 346.177 652.974 347.929Q654.535 349.682 656.053 351.472Q657.571 353.263 659.044 355.091Q660.516 356.919 661.943 358.783Q663.987 361.423 665.934 364.136Q667.881 366.848 669.73 369.629Q671.578 372.409 673.326 375.254Q675.073 378.099 676.717 381.006Q678.361 383.912 679.899 386.875Q681.437 389.839 682.868 392.855Q684.299 395.872 685.62 398.939Q686.941 402.005 688.152 405.117Q689.362 408.229 690.459 411.382Q691.557 414.535 692.54 417.726Q693.524 420.917 694.392 424.141Q695.26 427.365 696.012 430.618Q696.763 433.871 697.397 437.15Q698.031 440.428 698.547 443.726Q699.063 447.025 699.46 450.34Q699.857 453.656 700.134 456.983C701.31 471.051 701.005 485.332 700.993 499.439C700.973 524.032 700.653 548.674 701.048 573.262L378.743 573.471C378.007 556.653 378.856 539.42 378.855 522.555C378.851 488.596 377.215 454.833 385.573 421.614C396.508 378.151 427.331 336.562 464.926 312.469C474.284 306.472 484.985 301.399 495.343 297.379C500.884 295.228 506.79 293.114 512.556 291.656C519.078 290.008 528.491 290.481 534.106 286.787C534.388 286.602 534.659 286.401 534.935 286.208Z"/>
	<path fill="#FEFEFE" d="M475.814 354.678L480.599 354.233C481.189 358.964 481.015 363.721 480.736 368.467C462.107 371.002 445.892 377.216 431.944 390.133C411.876 408.716 404.47 432.792 403.333 459.474C400.331 459.321 397.298 459.354 394.291 459.308C392.923 459.366 391.739 459.375 390.382 459.1C389.164 458.207 388.619 457.45 388.368 455.924C387.881 452.964 388.976 449.007 389.362 446.015C391.926 426.135 398.17 408.613 410.414 392.544C426.554 371.362 449.516 358.282 475.814 354.678Z"/>
</svg>
